M48
; DRILL file {KiCad 7.0.5-7.0.5~ubuntu20.04.1} date Mon 19 Jun 2023 09:49:01 AM CEST
; FORMAT={-:-/ absolute / inch / decimal}
; #@! TF.CreationDate,2023-06-19T09:49:01+02:00
; #@! TF.GenerationSoftware,Kicad,Pcbnew,7.0.5-7.0.5~ubuntu20.04.1
; #@! TF.FileFunction,MixedPlating,1,2
FMAT,2
INCH
; #@! TA.AperFunction,Plated,PTH,ComponentDrill
T1C0.0315
; #@! TA.AperFunction,Plated,PTH,ComponentDrill
T2C0.0394
; #@! TA.AperFunction,NonPlated,NPTH,ComponentDrill
T3C0.1378
%
G90
G05
T1
X7.15Y-3.8
X7.15Y-4.4
X7.25Y-3.8
X7.25Y-4.4
X7.35Y-3.8
X7.35Y-4.4
X7.45Y-3.8
X7.45Y-4.4
X7.55Y-3.8
X7.55Y-4.4
X7.65Y-3.8
X7.65Y-4.4
X7.75Y-3.8
X7.75Y-4.4
X7.85Y-3.8
X7.85Y-4.4
X7.95Y-3.8
X7.95Y-4.4
X8.05Y-3.8
X8.05Y-4.4
X8.15Y-3.8
X8.15Y-4.4
X8.25Y-3.8
X8.25Y-4.4
X8.35Y-3.8
X8.35Y-4.4
X8.45Y-3.8
X8.45Y-4.4
T2
X5.55Y-4.3
X5.5994Y-3.1998
X5.5994Y-3.2998
X5.5994Y-3.7
X5.5994Y-3.85
X5.5994Y-4.15
X5.6Y-3.45
X5.6Y-3.55
X5.6Y-4.0
X5.65Y-4.3
X5.6994Y-3.1998
X5.6994Y-3.2998
X5.6994Y-3.7
X5.6994Y-3.85
X5.6994Y-4.15
X5.7Y-3.45
X5.7Y-3.55
X5.7Y-4.0
X5.7994Y-3.1998
X5.7994Y-3.2998
X5.7994Y-3.7
X5.7994Y-3.85
X5.7994Y-4.15
X5.8Y-3.45
X5.8Y-3.55
X5.8Y-4.0
X5.801Y-4.3006
X5.801Y-4.4006
X5.801Y-4.5006
X5.9Y-2.95
X5.95Y-4.85
X6.0Y-2.95
X6.05Y-4.85
X6.25Y-3.05
X6.25Y-3.15
X6.25Y-3.25
X6.25Y-3.35
X6.25Y-3.45
X6.25Y-3.55
X6.25Y-3.65
X6.25Y-3.75
X6.25Y-3.85
X6.25Y-3.95
X6.25Y-4.05
X6.25Y-4.15
X6.25Y-4.25
X6.25Y-4.35
X6.25Y-4.45
X6.85Y-3.05
X6.85Y-3.15
X6.85Y-3.25
X6.85Y-3.35
X6.85Y-3.45
X6.85Y-3.55
X6.85Y-3.65
X6.85Y-3.75
X6.85Y-3.85
X6.85Y-3.95
X6.85Y-4.05
X6.85Y-4.15
X6.85Y-4.25
X6.85Y-4.35
X6.85Y-4.45
X7.4496Y-3.5831
X7.45Y-3.3
X7.45Y-3.4
X7.45Y-4.6331
X7.5496Y-3.5831
X7.55Y-4.6331
X7.6496Y-3.5831
X7.65Y-3.3
X7.65Y-3.4
X7.65Y-4.6331
X7.7496Y-3.5831
X7.75Y-4.6331
X7.9Y-3.5831
X7.9Y-4.6331
X8.0Y-3.5831
X8.0Y-4.6331
X8.1Y-3.5831
X8.1Y-4.6331
X8.2Y-3.5831
X8.2Y-4.6331
T3
X5.5Y-2.55
X5.5Y-4.95
X8.55Y-2.55
X8.55Y-4.95
T0
M30
