%TF.GenerationSoftware,KiCad,Pcbnew,7.0.5-7.0.5~ubuntu20.04.1*%
%TF.CreationDate,2023-06-19T10:08:00+02:00*%
%TF.ProjectId,nanoRIghtAux,6e616e6f-5249-4676-9874-4175782e6b69,rev?*%
%TF.SameCoordinates,Original*%
%TF.FileFunction,Copper,L1,Top*%
%TF.FilePolarity,Positive*%
%FSLAX46Y46*%
G04 Gerber Fmt 4.6, Leading zero omitted, Abs format (unit mm)*
G04 Created by KiCad (PCBNEW 7.0.5-7.0.5~ubuntu20.04.1) date 2023-06-19 10:08:00*
%MOMM*%
%LPD*%
G01*
G04 APERTURE LIST*
%TA.AperFunction,ComponentPad*%
%ADD10R,1.700000X1.700000*%
%TD*%
%TA.AperFunction,ComponentPad*%
%ADD11O,1.700000X1.700000*%
%TD*%
%TA.AperFunction,ComponentPad*%
%ADD12R,1.600000X1.600000*%
%TD*%
%TA.AperFunction,ComponentPad*%
%ADD13O,1.600000X1.600000*%
%TD*%
G04 APERTURE END LIST*
D10*
%TO.P,J13,1,Pin_1*%
%TO.N,GND*%
X140970000Y-109220000D03*
D11*
%TO.P,J13,2,Pin_2*%
%TO.N,+5V*%
X143510000Y-109220000D03*
%TD*%
D10*
%TO.P,SW2,1,1*%
%TO.N,GND*%
X194310000Y-83820000D03*
D11*
%TO.P,SW2,2,2*%
%TO.N,Net-(A1-A7)*%
X194310000Y-86360000D03*
%TD*%
D10*
%TO.P,J9,1,Pin_1*%
%TO.N,Net-(J9-Pin_1)*%
X196850000Y-117680000D03*
D11*
%TO.P,J9,2,Pin_2*%
%TO.N,Net-(J9-Pin_2)*%
X194310000Y-117680000D03*
%TO.P,J9,3,Pin_3*%
%TO.N,Net-(J9-Pin_3)*%
X191770000Y-117680000D03*
%TO.P,J9,4,Pin_4*%
%TO.N,Net-(J9-Pin_4)*%
X189230000Y-117680000D03*
%TD*%
D10*
%TO.P,J11,1,Pin_1*%
%TO.N,Net-(A1-D10)*%
X147345000Y-109235000D03*
D11*
%TO.P,J11,2,Pin_2*%
%TO.N,Net-(A1-D11)*%
X147345000Y-111775000D03*
%TO.P,J11,3,Pin_3*%
%TO.N,Net-(A1-D12)*%
X147345000Y-114315000D03*
%TD*%
D10*
%TO.P,SW1,1,1*%
%TO.N,Net-(A1-~{RESET}-Pad3)*%
X152400000Y-74930000D03*
D11*
%TO.P,SW1,2,2*%
%TO.N,GND*%
X149860000Y-74930000D03*
%TD*%
D10*
%TO.P,J1,1,Pin_1*%
%TO.N,Net-(A1-D4)*%
X147320000Y-87630000D03*
D11*
%TO.P,J1,2,Pin_2*%
%TO.N,Net-(A1-D5)*%
X147320000Y-90170000D03*
%TO.P,J1,3,Pin_3*%
%TO.N,+5V*%
X144780000Y-87630000D03*
%TO.P,J1,4,Pin_4*%
X144780000Y-90170000D03*
%TO.P,J1,5,Pin_5*%
%TO.N,GND*%
X142240000Y-87630000D03*
%TO.P,J1,6,Pin_6*%
X142240000Y-90170000D03*
%TD*%
D10*
%TO.P,J2,1,Pin_1*%
%TO.N,Net-(A1-D6)*%
X147305000Y-93980000D03*
D11*
%TO.P,J2,2,Pin_2*%
%TO.N,+5V*%
X144765000Y-93980000D03*
%TO.P,J2,3,Pin_3*%
%TO.N,GND*%
X142225000Y-93980000D03*
%TD*%
D10*
%TO.P,J5,1,Pin_1*%
%TO.N,Net-(A1-D9)*%
X147305000Y-105410000D03*
D11*
%TO.P,J5,2,Pin_2*%
%TO.N,+5V*%
X144765000Y-105410000D03*
%TO.P,J5,3,Pin_3*%
%TO.N,GND*%
X142225000Y-105410000D03*
%TD*%
D10*
%TO.P,J8,1,Pin_1*%
%TO.N,Net-(J8-Pin_1)*%
X196840000Y-91010000D03*
D11*
%TO.P,J8,2,Pin_2*%
%TO.N,Net-(J8-Pin_2)*%
X194300000Y-91010000D03*
%TO.P,J8,3,Pin_3*%
%TO.N,Net-(J8-Pin_3)*%
X191760000Y-91010000D03*
%TO.P,J8,4,Pin_4*%
%TO.N,Net-(J8-Pin_4)*%
X189220000Y-91010000D03*
%TD*%
D12*
%TO.P,U3,1,Vcc*%
%TO.N,GND*%
X181610000Y-111760000D03*
D13*
%TO.P,U3,2,Dir_B*%
%TO.N,Net-(A1-A0)*%
X184150000Y-111760000D03*
%TO.P,U3,3,Step_B*%
%TO.N,Net-(A1-D13)*%
X186690000Y-111760000D03*
%TO.P,U3,4,Mot_A3*%
%TO.N,Net-(J9-Pin_4)*%
X189230000Y-111760000D03*
%TO.P,U3,5,Mot_A4*%
%TO.N,Net-(J9-Pin_3)*%
X191770000Y-111760000D03*
%TO.P,U3,6,Mot_A2*%
%TO.N,Net-(J9-Pin_2)*%
X194310000Y-111760000D03*
%TO.P,U3,7,Mot_A1*%
%TO.N,Net-(J9-Pin_1)*%
X196850000Y-111760000D03*
%TO.P,U3,8,Mot_D1*%
%TO.N,Net-(J6-Pin_1)*%
X199390000Y-111760000D03*
%TO.P,U3,9,Mot_D2*%
%TO.N,Net-(J6-Pin_2)*%
X201930000Y-111760000D03*
%TO.P,U3,10,Mot_D4*%
%TO.N,Net-(J6-Pin_3)*%
X204470000Y-111760000D03*
%TO.P,U3,11,Mot_D3*%
%TO.N,Net-(J6-Pin_4)*%
X207010000Y-111760000D03*
%TO.P,U3,12,Vss*%
%TO.N,+5V*%
X209550000Y-111760000D03*
%TO.P,U3,13,Dir_C*%
%TO.N,Net-(A1-A1)*%
X212090000Y-111760000D03*
%TO.P,U3,14,Step_C*%
%TO.N,Net-(A1-A2)*%
X214630000Y-111760000D03*
%TO.P,U3,15,Vcc*%
%TO.N,GND*%
X214630000Y-96520000D03*
%TO.P,U3,16,Dir_D*%
%TO.N,unconnected-(U3-Dir_D-Pad16)*%
X212090000Y-96520000D03*
%TO.P,U3,17,Step_D*%
%TO.N,unconnected-(U3-Step_D-Pad17)*%
X209550000Y-96520000D03*
%TO.P,U3,18,Mot_C3*%
%TO.N,Net-(J7-Pin_4)*%
X207010000Y-96520000D03*
%TO.P,U3,19,Mot_C4*%
%TO.N,Net-(J7-Pin_3)*%
X204470000Y-96520000D03*
%TO.P,U3,20,Mot_C2*%
%TO.N,Net-(J7-Pin_2)*%
X201930000Y-96520000D03*
%TO.P,U3,21,Mot_C1*%
%TO.N,Net-(J7-Pin_1)*%
X199390000Y-96520000D03*
%TO.P,U3,22,Mot_B1*%
%TO.N,Net-(J8-Pin_1)*%
X196850000Y-96520000D03*
%TO.P,U3,23,Mot_B2*%
%TO.N,Net-(J8-Pin_2)*%
X194310000Y-96520000D03*
%TO.P,U3,24,Mot_B4*%
%TO.N,Net-(J8-Pin_3)*%
X191770000Y-96520000D03*
%TO.P,U3,25,Mot_B3*%
%TO.N,Net-(J8-Pin_4)*%
X189230000Y-96520000D03*
%TO.P,U3,26,Reset*%
%TO.N,Net-(A1-A3)*%
X186690000Y-96520000D03*
%TO.P,U3,27,Dir_A*%
%TO.N,Net-(A1-A5)*%
X184150000Y-96520000D03*
%TO.P,U3,28,Step_A*%
%TO.N,Net-(A1-A4)*%
X181610000Y-96520000D03*
%TD*%
D10*
%TO.P,J7,1,Pin_1*%
%TO.N,Net-(J7-Pin_1)*%
X200660000Y-91010000D03*
D11*
%TO.P,J7,2,Pin_2*%
%TO.N,Net-(J7-Pin_2)*%
X203200000Y-91010000D03*
%TO.P,J7,3,Pin_3*%
%TO.N,Net-(J7-Pin_3)*%
X205740000Y-91010000D03*
%TO.P,J7,4,Pin_4*%
%TO.N,Net-(J7-Pin_4)*%
X208280000Y-91010000D03*
%TD*%
D10*
%TO.P,J4,1,Pin_1*%
%TO.N,Net-(A1-D8)*%
X147320000Y-101600000D03*
D11*
%TO.P,J4,2,Pin_2*%
%TO.N,+5V*%
X144780000Y-101600000D03*
%TO.P,J4,3,Pin_3*%
%TO.N,GND*%
X142240000Y-101600000D03*
%TD*%
D10*
%TO.P,J3,1,Pin_1*%
%TO.N,Net-(A1-D7)*%
X147305000Y-97790000D03*
D11*
%TO.P,J3,2,Pin_2*%
%TO.N,+5V*%
X144765000Y-97790000D03*
%TO.P,J3,3,Pin_3*%
%TO.N,GND*%
X142225000Y-97790000D03*
%TD*%
D12*
%TO.P,A1,1,D1/TX*%
%TO.N,unconnected-(A1-D1{slash}TX-Pad1)*%
X158750000Y-77470000D03*
D13*
%TO.P,A1,2,D0/RX*%
%TO.N,unconnected-(A1-D0{slash}RX-Pad2)*%
X158750000Y-80010000D03*
%TO.P,A1,3,~{RESET}*%
%TO.N,Net-(A1-~{RESET}-Pad3)*%
X158750000Y-82550000D03*
%TO.P,A1,4,GND*%
%TO.N,GND*%
X158750000Y-85090000D03*
%TO.P,A1,5,D2*%
%TO.N,Net-(A1-D2)*%
X158750000Y-87630000D03*
%TO.P,A1,6,D3*%
%TO.N,Net-(A1-D3)*%
X158750000Y-90170000D03*
%TO.P,A1,7,D4*%
%TO.N,Net-(A1-D4)*%
X158750000Y-92710000D03*
%TO.P,A1,8,D5*%
%TO.N,Net-(A1-D5)*%
X158750000Y-95250000D03*
%TO.P,A1,9,D6*%
%TO.N,Net-(A1-D6)*%
X158750000Y-97790000D03*
%TO.P,A1,10,D7*%
%TO.N,Net-(A1-D7)*%
X158750000Y-100330000D03*
%TO.P,A1,11,D8*%
%TO.N,Net-(A1-D8)*%
X158750000Y-102870000D03*
%TO.P,A1,12,D9*%
%TO.N,Net-(A1-D9)*%
X158750000Y-105410000D03*
%TO.P,A1,13,D10*%
%TO.N,Net-(A1-D10)*%
X158750000Y-107950000D03*
%TO.P,A1,14,D11*%
%TO.N,Net-(A1-D11)*%
X158750000Y-110490000D03*
%TO.P,A1,15,D12*%
%TO.N,Net-(A1-D12)*%
X158750000Y-113030000D03*
%TO.P,A1,16,D13*%
%TO.N,Net-(A1-D13)*%
X173990000Y-113030000D03*
%TO.P,A1,17,3V3*%
%TO.N,unconnected-(A1-3V3-Pad17)*%
X173990000Y-110490000D03*
%TO.P,A1,18,AREF*%
%TO.N,unconnected-(A1-AREF-Pad18)*%
X173990000Y-107950000D03*
%TO.P,A1,19,A0*%
%TO.N,Net-(A1-A0)*%
X173990000Y-105410000D03*
%TO.P,A1,20,A1*%
%TO.N,Net-(A1-A1)*%
X173990000Y-102870000D03*
%TO.P,A1,21,A2*%
%TO.N,Net-(A1-A2)*%
X173990000Y-100330000D03*
%TO.P,A1,22,A3*%
%TO.N,Net-(A1-A3)*%
X173990000Y-97790000D03*
%TO.P,A1,23,A4*%
%TO.N,Net-(A1-A4)*%
X173990000Y-95250000D03*
%TO.P,A1,24,A5*%
%TO.N,Net-(A1-A5)*%
X173990000Y-92710000D03*
%TO.P,A1,25,A6*%
%TO.N,Net-(A1-A6)*%
X173990000Y-90170000D03*
%TO.P,A1,26,A7*%
%TO.N,Net-(A1-A7)*%
X173990000Y-87630000D03*
%TO.P,A1,27,+5V*%
%TO.N,unconnected-(A1-+5V-Pad27)*%
X173990000Y-85090000D03*
%TO.P,A1,28,~{RESET}*%
%TO.N,unconnected-(A1-~{RESET}-Pad28)*%
X173990000Y-82550000D03*
%TO.P,A1,29,GND*%
%TO.N,GND*%
X173990000Y-80010000D03*
%TO.P,A1,30,VIN*%
%TO.N,unconnected-(A1-VIN-Pad30)*%
X173990000Y-77470000D03*
%TD*%
D10*
%TO.P,J10,1,Pin_1*%
%TO.N,Net-(A1-D2)*%
X147305000Y-81275000D03*
D11*
%TO.P,J10,2,Pin_2*%
%TO.N,Net-(A1-D3)*%
X147305000Y-83815000D03*
%TO.P,J10,3,Pin_3*%
%TO.N,+5V*%
X144765000Y-81275000D03*
%TO.P,J10,4,Pin_4*%
X144765000Y-83815000D03*
%TO.P,J10,5,Pin_5*%
%TO.N,GND*%
X142225000Y-81275000D03*
%TO.P,J10,6,Pin_6*%
X142225000Y-83815000D03*
%TD*%
D10*
%TO.P,SW3,1,1*%
%TO.N,GND*%
X189230000Y-83820000D03*
D11*
%TO.P,SW3,2,2*%
%TO.N,Net-(A1-A6)*%
X189230000Y-86360000D03*
%TD*%
D10*
%TO.P,J12,1,Pin_1*%
%TO.N,GND*%
X151130000Y-123190000D03*
D11*
%TO.P,J12,2,Pin_2*%
%TO.N,+5V*%
X153670000Y-123190000D03*
%TD*%
D10*
%TO.P,J6,1,Pin_1*%
%TO.N,Net-(J6-Pin_1)*%
X200660000Y-117680000D03*
D11*
%TO.P,J6,2,Pin_2*%
%TO.N,Net-(J6-Pin_2)*%
X203200000Y-117680000D03*
%TO.P,J6,3,Pin_3*%
%TO.N,Net-(J6-Pin_3)*%
X205740000Y-117680000D03*
%TO.P,J6,4,Pin_4*%
%TO.N,Net-(J6-Pin_4)*%
X208280000Y-117680000D03*
%TD*%
M02*
