%TF.GenerationSoftware,KiCad,Pcbnew,7.0.5-7.0.5~ubuntu20.04.1*%
%TF.CreationDate,2023-06-15T15:54:27+02:00*%
%TF.ProjectId,nanoRIghtAux,6e616e6f-5249-4676-9874-4175782e6b69,rev?*%
%TF.SameCoordinates,Original*%
%TF.FileFunction,Copper,L1,Top*%
%TF.FilePolarity,Positive*%
%FSLAX46Y46*%
G04 Gerber Fmt 4.6, Leading zero omitted, Abs format (unit mm)*
G04 Created by KiCad (PCBNEW 7.0.5-7.0.5~ubuntu20.04.1) date 2023-06-15 15:54:27*
%MOMM*%
%LPD*%
G01*
G04 APERTURE LIST*
%TA.AperFunction,NonConductor*%
%ADD10C,0.200000*%
%TD*%
%ADD11C,0.300000*%
%TA.AperFunction,NonConductor*%
%ADD12C,0.300000*%
%TD*%
%ADD13C,0.150000*%
%TA.AperFunction,NonConductor*%
%ADD14C,0.150000*%
%TD*%
%ADD15C,0.250000*%
%TA.AperFunction,NonConductor*%
%ADD16C,0.250000*%
%TD*%
%TA.AperFunction,ComponentPad*%
%ADD17R,1.700000X1.700000*%
%TD*%
%TA.AperFunction,ComponentPad*%
%ADD18O,1.700000X1.700000*%
%TD*%
%TA.AperFunction,ComponentPad*%
%ADD19R,1.600000X1.600000*%
%TD*%
%TA.AperFunction,ComponentPad*%
%ADD20O,1.600000X1.600000*%
%TD*%
G04 APERTURE END LIST*
D10*
X206860000Y-68580000D02*
G75*
G03*
X206860000Y-68580000I-6200000J0D01*
G01*
D11*
D12*
X179624510Y-117910828D02*
X179624510Y-116410828D01*
X179624510Y-116410828D02*
X180124510Y-117482257D01*
X180124510Y-117482257D02*
X180624510Y-116410828D01*
X180624510Y-116410828D02*
X180624510Y-117910828D01*
X181553082Y-117910828D02*
X181410225Y-117839400D01*
X181410225Y-117839400D02*
X181338796Y-117767971D01*
X181338796Y-117767971D02*
X181267368Y-117625114D01*
X181267368Y-117625114D02*
X181267368Y-117196542D01*
X181267368Y-117196542D02*
X181338796Y-117053685D01*
X181338796Y-117053685D02*
X181410225Y-116982257D01*
X181410225Y-116982257D02*
X181553082Y-116910828D01*
X181553082Y-116910828D02*
X181767368Y-116910828D01*
X181767368Y-116910828D02*
X181910225Y-116982257D01*
X181910225Y-116982257D02*
X181981654Y-117053685D01*
X181981654Y-117053685D02*
X182053082Y-117196542D01*
X182053082Y-117196542D02*
X182053082Y-117625114D01*
X182053082Y-117625114D02*
X181981654Y-117767971D01*
X181981654Y-117767971D02*
X181910225Y-117839400D01*
X181910225Y-117839400D02*
X181767368Y-117910828D01*
X181767368Y-117910828D02*
X181553082Y-117910828D01*
X182481654Y-116910828D02*
X183053082Y-116910828D01*
X182695939Y-116410828D02*
X182695939Y-117696542D01*
X182695939Y-117696542D02*
X182767368Y-117839400D01*
X182767368Y-117839400D02*
X182910225Y-117910828D01*
X182910225Y-117910828D02*
X183053082Y-117910828D01*
X184624511Y-117482257D02*
X185338797Y-117482257D01*
X184481654Y-117910828D02*
X184981654Y-116410828D01*
X184981654Y-116410828D02*
X185481654Y-117910828D01*
D11*
D12*
X213914510Y-117910828D02*
X213914510Y-116410828D01*
X213914510Y-116410828D02*
X214414510Y-117482257D01*
X214414510Y-117482257D02*
X214914510Y-116410828D01*
X214914510Y-116410828D02*
X214914510Y-117910828D01*
X215843082Y-117910828D02*
X215700225Y-117839400D01*
X215700225Y-117839400D02*
X215628796Y-117767971D01*
X215628796Y-117767971D02*
X215557368Y-117625114D01*
X215557368Y-117625114D02*
X215557368Y-117196542D01*
X215557368Y-117196542D02*
X215628796Y-117053685D01*
X215628796Y-117053685D02*
X215700225Y-116982257D01*
X215700225Y-116982257D02*
X215843082Y-116910828D01*
X215843082Y-116910828D02*
X216057368Y-116910828D01*
X216057368Y-116910828D02*
X216200225Y-116982257D01*
X216200225Y-116982257D02*
X216271654Y-117053685D01*
X216271654Y-117053685D02*
X216343082Y-117196542D01*
X216343082Y-117196542D02*
X216343082Y-117625114D01*
X216343082Y-117625114D02*
X216271654Y-117767971D01*
X216271654Y-117767971D02*
X216200225Y-117839400D01*
X216200225Y-117839400D02*
X216057368Y-117910828D01*
X216057368Y-117910828D02*
X215843082Y-117910828D01*
X216771654Y-116910828D02*
X217343082Y-116910828D01*
X216985939Y-116410828D02*
X216985939Y-117696542D01*
X216985939Y-117696542D02*
X217057368Y-117839400D01*
X217057368Y-117839400D02*
X217200225Y-117910828D01*
X217200225Y-117910828D02*
X217343082Y-117910828D01*
X218985939Y-117910828D02*
X218985939Y-116410828D01*
X218985939Y-116410828D02*
X219343082Y-116410828D01*
X219343082Y-116410828D02*
X219557368Y-116482257D01*
X219557368Y-116482257D02*
X219700225Y-116625114D01*
X219700225Y-116625114D02*
X219771654Y-116767971D01*
X219771654Y-116767971D02*
X219843082Y-117053685D01*
X219843082Y-117053685D02*
X219843082Y-117267971D01*
X219843082Y-117267971D02*
X219771654Y-117553685D01*
X219771654Y-117553685D02*
X219700225Y-117696542D01*
X219700225Y-117696542D02*
X219557368Y-117839400D01*
X219557368Y-117839400D02*
X219343082Y-117910828D01*
X219343082Y-117910828D02*
X218985939Y-117910828D01*
D11*
D12*
X212644510Y-92510828D02*
X212644510Y-91010828D01*
X212644510Y-91010828D02*
X213144510Y-92082257D01*
X213144510Y-92082257D02*
X213644510Y-91010828D01*
X213644510Y-91010828D02*
X213644510Y-92510828D01*
X214573082Y-92510828D02*
X214430225Y-92439400D01*
X214430225Y-92439400D02*
X214358796Y-92367971D01*
X214358796Y-92367971D02*
X214287368Y-92225114D01*
X214287368Y-92225114D02*
X214287368Y-91796542D01*
X214287368Y-91796542D02*
X214358796Y-91653685D01*
X214358796Y-91653685D02*
X214430225Y-91582257D01*
X214430225Y-91582257D02*
X214573082Y-91510828D01*
X214573082Y-91510828D02*
X214787368Y-91510828D01*
X214787368Y-91510828D02*
X214930225Y-91582257D01*
X214930225Y-91582257D02*
X215001654Y-91653685D01*
X215001654Y-91653685D02*
X215073082Y-91796542D01*
X215073082Y-91796542D02*
X215073082Y-92225114D01*
X215073082Y-92225114D02*
X215001654Y-92367971D01*
X215001654Y-92367971D02*
X214930225Y-92439400D01*
X214930225Y-92439400D02*
X214787368Y-92510828D01*
X214787368Y-92510828D02*
X214573082Y-92510828D01*
X215501654Y-91510828D02*
X216073082Y-91510828D01*
X215715939Y-91010828D02*
X215715939Y-92296542D01*
X215715939Y-92296542D02*
X215787368Y-92439400D01*
X215787368Y-92439400D02*
X215930225Y-92510828D01*
X215930225Y-92510828D02*
X216073082Y-92510828D01*
X218573082Y-92367971D02*
X218501654Y-92439400D01*
X218501654Y-92439400D02*
X218287368Y-92510828D01*
X218287368Y-92510828D02*
X218144511Y-92510828D01*
X218144511Y-92510828D02*
X217930225Y-92439400D01*
X217930225Y-92439400D02*
X217787368Y-92296542D01*
X217787368Y-92296542D02*
X217715939Y-92153685D01*
X217715939Y-92153685D02*
X217644511Y-91867971D01*
X217644511Y-91867971D02*
X217644511Y-91653685D01*
X217644511Y-91653685D02*
X217715939Y-91367971D01*
X217715939Y-91367971D02*
X217787368Y-91225114D01*
X217787368Y-91225114D02*
X217930225Y-91082257D01*
X217930225Y-91082257D02*
X218144511Y-91010828D01*
X218144511Y-91010828D02*
X218287368Y-91010828D01*
X218287368Y-91010828D02*
X218501654Y-91082257D01*
X218501654Y-91082257D02*
X218573082Y-91153685D01*
D11*
D12*
X178354510Y-92510828D02*
X178354510Y-91010828D01*
X178354510Y-91010828D02*
X178854510Y-92082257D01*
X178854510Y-92082257D02*
X179354510Y-91010828D01*
X179354510Y-91010828D02*
X179354510Y-92510828D01*
X180283082Y-92510828D02*
X180140225Y-92439400D01*
X180140225Y-92439400D02*
X180068796Y-92367971D01*
X180068796Y-92367971D02*
X179997368Y-92225114D01*
X179997368Y-92225114D02*
X179997368Y-91796542D01*
X179997368Y-91796542D02*
X180068796Y-91653685D01*
X180068796Y-91653685D02*
X180140225Y-91582257D01*
X180140225Y-91582257D02*
X180283082Y-91510828D01*
X180283082Y-91510828D02*
X180497368Y-91510828D01*
X180497368Y-91510828D02*
X180640225Y-91582257D01*
X180640225Y-91582257D02*
X180711654Y-91653685D01*
X180711654Y-91653685D02*
X180783082Y-91796542D01*
X180783082Y-91796542D02*
X180783082Y-92225114D01*
X180783082Y-92225114D02*
X180711654Y-92367971D01*
X180711654Y-92367971D02*
X180640225Y-92439400D01*
X180640225Y-92439400D02*
X180497368Y-92510828D01*
X180497368Y-92510828D02*
X180283082Y-92510828D01*
X181211654Y-91510828D02*
X181783082Y-91510828D01*
X181425939Y-91010828D02*
X181425939Y-92296542D01*
X181425939Y-92296542D02*
X181497368Y-92439400D01*
X181497368Y-92439400D02*
X181640225Y-92510828D01*
X181640225Y-92510828D02*
X181783082Y-92510828D01*
X183925939Y-91725114D02*
X184140225Y-91796542D01*
X184140225Y-91796542D02*
X184211654Y-91867971D01*
X184211654Y-91867971D02*
X184283082Y-92010828D01*
X184283082Y-92010828D02*
X184283082Y-92225114D01*
X184283082Y-92225114D02*
X184211654Y-92367971D01*
X184211654Y-92367971D02*
X184140225Y-92439400D01*
X184140225Y-92439400D02*
X183997368Y-92510828D01*
X183997368Y-92510828D02*
X183425939Y-92510828D01*
X183425939Y-92510828D02*
X183425939Y-91010828D01*
X183425939Y-91010828D02*
X183925939Y-91010828D01*
X183925939Y-91010828D02*
X184068797Y-91082257D01*
X184068797Y-91082257D02*
X184140225Y-91153685D01*
X184140225Y-91153685D02*
X184211654Y-91296542D01*
X184211654Y-91296542D02*
X184211654Y-91439400D01*
X184211654Y-91439400D02*
X184140225Y-91582257D01*
X184140225Y-91582257D02*
X184068797Y-91653685D01*
X184068797Y-91653685D02*
X183925939Y-91725114D01*
X183925939Y-91725114D02*
X183425939Y-91725114D01*
D11*
D12*
X197815828Y-87218346D02*
X197815828Y-86218346D01*
X197815828Y-86218346D02*
X199315828Y-87218346D01*
X199315828Y-87218346D02*
X199315828Y-86218346D01*
X199244400Y-85075489D02*
X199315828Y-85218346D01*
X199315828Y-85218346D02*
X199315828Y-85504061D01*
X199315828Y-85504061D02*
X199244400Y-85646918D01*
X199244400Y-85646918D02*
X199101542Y-85718346D01*
X199101542Y-85718346D02*
X198530114Y-85718346D01*
X198530114Y-85718346D02*
X198387257Y-85646918D01*
X198387257Y-85646918D02*
X198315828Y-85504061D01*
X198315828Y-85504061D02*
X198315828Y-85218346D01*
X198315828Y-85218346D02*
X198387257Y-85075489D01*
X198387257Y-85075489D02*
X198530114Y-85004061D01*
X198530114Y-85004061D02*
X198672971Y-85004061D01*
X198672971Y-85004061D02*
X198815828Y-85718346D01*
X199315828Y-84361204D02*
X198315828Y-84361204D01*
X198601542Y-84361204D02*
X198458685Y-84289775D01*
X198458685Y-84289775D02*
X198387257Y-84218347D01*
X198387257Y-84218347D02*
X198315828Y-84075489D01*
X198315828Y-84075489D02*
X198315828Y-83932632D01*
X199315828Y-83218347D02*
X199244400Y-83361204D01*
X199244400Y-83361204D02*
X199172971Y-83432633D01*
X199172971Y-83432633D02*
X199030114Y-83504061D01*
X199030114Y-83504061D02*
X198601542Y-83504061D01*
X198601542Y-83504061D02*
X198458685Y-83432633D01*
X198458685Y-83432633D02*
X198387257Y-83361204D01*
X198387257Y-83361204D02*
X198315828Y-83218347D01*
X198315828Y-83218347D02*
X198315828Y-83004061D01*
X198315828Y-83004061D02*
X198387257Y-82861204D01*
X198387257Y-82861204D02*
X198458685Y-82789776D01*
X198458685Y-82789776D02*
X198601542Y-82718347D01*
X198601542Y-82718347D02*
X199030114Y-82718347D01*
X199030114Y-82718347D02*
X199172971Y-82789776D01*
X199172971Y-82789776D02*
X199244400Y-82861204D01*
X199244400Y-82861204D02*
X199315828Y-83004061D01*
X199315828Y-83004061D02*
X199315828Y-83218347D01*
X199315828Y-82075490D02*
X198315828Y-82075490D01*
X197815828Y-82075490D02*
X197887257Y-82146918D01*
X197887257Y-82146918D02*
X197958685Y-82075490D01*
X197958685Y-82075490D02*
X197887257Y-82004061D01*
X197887257Y-82004061D02*
X197815828Y-82075490D01*
X197815828Y-82075490D02*
X197958685Y-82075490D01*
X198315828Y-81504061D02*
X198315828Y-80718347D01*
X198315828Y-80718347D02*
X199315828Y-81504061D01*
X199315828Y-81504061D02*
X199315828Y-80718347D01*
X199244400Y-79575489D02*
X199315828Y-79718346D01*
X199315828Y-79718346D02*
X199315828Y-80004061D01*
X199315828Y-80004061D02*
X199244400Y-80146918D01*
X199244400Y-80146918D02*
X199101542Y-80218346D01*
X199101542Y-80218346D02*
X198530114Y-80218346D01*
X198530114Y-80218346D02*
X198387257Y-80146918D01*
X198387257Y-80146918D02*
X198315828Y-80004061D01*
X198315828Y-80004061D02*
X198315828Y-79718346D01*
X198315828Y-79718346D02*
X198387257Y-79575489D01*
X198387257Y-79575489D02*
X198530114Y-79504061D01*
X198530114Y-79504061D02*
X198672971Y-79504061D01*
X198672971Y-79504061D02*
X198815828Y-80218346D01*
X200945114Y-86575489D02*
X201016542Y-86361203D01*
X201016542Y-86361203D02*
X201087971Y-86289774D01*
X201087971Y-86289774D02*
X201230828Y-86218346D01*
X201230828Y-86218346D02*
X201445114Y-86218346D01*
X201445114Y-86218346D02*
X201587971Y-86289774D01*
X201587971Y-86289774D02*
X201659400Y-86361203D01*
X201659400Y-86361203D02*
X201730828Y-86504060D01*
X201730828Y-86504060D02*
X201730828Y-87075489D01*
X201730828Y-87075489D02*
X200230828Y-87075489D01*
X200230828Y-87075489D02*
X200230828Y-86575489D01*
X200230828Y-86575489D02*
X200302257Y-86432632D01*
X200302257Y-86432632D02*
X200373685Y-86361203D01*
X200373685Y-86361203D02*
X200516542Y-86289774D01*
X200516542Y-86289774D02*
X200659400Y-86289774D01*
X200659400Y-86289774D02*
X200802257Y-86361203D01*
X200802257Y-86361203D02*
X200873685Y-86432632D01*
X200873685Y-86432632D02*
X200945114Y-86575489D01*
X200945114Y-86575489D02*
X200945114Y-87075489D01*
X200730828Y-84932632D02*
X201730828Y-84932632D01*
X200730828Y-85575489D02*
X201516542Y-85575489D01*
X201516542Y-85575489D02*
X201659400Y-85504060D01*
X201659400Y-85504060D02*
X201730828Y-85361203D01*
X201730828Y-85361203D02*
X201730828Y-85146917D01*
X201730828Y-85146917D02*
X201659400Y-85004060D01*
X201659400Y-85004060D02*
X201587971Y-84932632D01*
X200730828Y-84432631D02*
X200730828Y-83861203D01*
X200230828Y-84218346D02*
X201516542Y-84218346D01*
X201516542Y-84218346D02*
X201659400Y-84146917D01*
X201659400Y-84146917D02*
X201730828Y-84004060D01*
X201730828Y-84004060D02*
X201730828Y-83861203D01*
X200730828Y-83575488D02*
X200730828Y-83004060D01*
X200230828Y-83361203D02*
X201516542Y-83361203D01*
X201516542Y-83361203D02*
X201659400Y-83289774D01*
X201659400Y-83289774D02*
X201730828Y-83146917D01*
X201730828Y-83146917D02*
X201730828Y-83004060D01*
X201730828Y-82289774D02*
X201659400Y-82432631D01*
X201659400Y-82432631D02*
X201587971Y-82504060D01*
X201587971Y-82504060D02*
X201445114Y-82575488D01*
X201445114Y-82575488D02*
X201016542Y-82575488D01*
X201016542Y-82575488D02*
X200873685Y-82504060D01*
X200873685Y-82504060D02*
X200802257Y-82432631D01*
X200802257Y-82432631D02*
X200730828Y-82289774D01*
X200730828Y-82289774D02*
X200730828Y-82075488D01*
X200730828Y-82075488D02*
X200802257Y-81932631D01*
X200802257Y-81932631D02*
X200873685Y-81861203D01*
X200873685Y-81861203D02*
X201016542Y-81789774D01*
X201016542Y-81789774D02*
X201445114Y-81789774D01*
X201445114Y-81789774D02*
X201587971Y-81861203D01*
X201587971Y-81861203D02*
X201659400Y-81932631D01*
X201659400Y-81932631D02*
X201730828Y-82075488D01*
X201730828Y-82075488D02*
X201730828Y-82289774D01*
X200730828Y-81146917D02*
X201730828Y-81146917D01*
X200873685Y-81146917D02*
X200802257Y-81075488D01*
X200802257Y-81075488D02*
X200730828Y-80932631D01*
X200730828Y-80932631D02*
X200730828Y-80718345D01*
X200730828Y-80718345D02*
X200802257Y-80575488D01*
X200802257Y-80575488D02*
X200945114Y-80504060D01*
X200945114Y-80504060D02*
X201730828Y-80504060D01*
D11*
D12*
X181305828Y-87218346D02*
X181305828Y-86218346D01*
X181305828Y-86218346D02*
X182805828Y-87218346D01*
X182805828Y-87218346D02*
X182805828Y-86218346D01*
X182734400Y-85075489D02*
X182805828Y-85218346D01*
X182805828Y-85218346D02*
X182805828Y-85504061D01*
X182805828Y-85504061D02*
X182734400Y-85646918D01*
X182734400Y-85646918D02*
X182591542Y-85718346D01*
X182591542Y-85718346D02*
X182020114Y-85718346D01*
X182020114Y-85718346D02*
X181877257Y-85646918D01*
X181877257Y-85646918D02*
X181805828Y-85504061D01*
X181805828Y-85504061D02*
X181805828Y-85218346D01*
X181805828Y-85218346D02*
X181877257Y-85075489D01*
X181877257Y-85075489D02*
X182020114Y-85004061D01*
X182020114Y-85004061D02*
X182162971Y-85004061D01*
X182162971Y-85004061D02*
X182305828Y-85718346D01*
X182805828Y-84361204D02*
X181805828Y-84361204D01*
X182091542Y-84361204D02*
X181948685Y-84289775D01*
X181948685Y-84289775D02*
X181877257Y-84218347D01*
X181877257Y-84218347D02*
X181805828Y-84075489D01*
X181805828Y-84075489D02*
X181805828Y-83932632D01*
X182805828Y-83218347D02*
X182734400Y-83361204D01*
X182734400Y-83361204D02*
X182662971Y-83432633D01*
X182662971Y-83432633D02*
X182520114Y-83504061D01*
X182520114Y-83504061D02*
X182091542Y-83504061D01*
X182091542Y-83504061D02*
X181948685Y-83432633D01*
X181948685Y-83432633D02*
X181877257Y-83361204D01*
X181877257Y-83361204D02*
X181805828Y-83218347D01*
X181805828Y-83218347D02*
X181805828Y-83004061D01*
X181805828Y-83004061D02*
X181877257Y-82861204D01*
X181877257Y-82861204D02*
X181948685Y-82789776D01*
X181948685Y-82789776D02*
X182091542Y-82718347D01*
X182091542Y-82718347D02*
X182520114Y-82718347D01*
X182520114Y-82718347D02*
X182662971Y-82789776D01*
X182662971Y-82789776D02*
X182734400Y-82861204D01*
X182734400Y-82861204D02*
X182805828Y-83004061D01*
X182805828Y-83004061D02*
X182805828Y-83218347D01*
X182805828Y-82075490D02*
X181805828Y-82075490D01*
X181305828Y-82075490D02*
X181377257Y-82146918D01*
X181377257Y-82146918D02*
X181448685Y-82075490D01*
X181448685Y-82075490D02*
X181377257Y-82004061D01*
X181377257Y-82004061D02*
X181305828Y-82075490D01*
X181305828Y-82075490D02*
X181448685Y-82075490D01*
X181805828Y-81504061D02*
X181805828Y-80718347D01*
X181805828Y-80718347D02*
X182805828Y-81504061D01*
X182805828Y-81504061D02*
X182805828Y-80718347D01*
X182734400Y-79575489D02*
X182805828Y-79718346D01*
X182805828Y-79718346D02*
X182805828Y-80004061D01*
X182805828Y-80004061D02*
X182734400Y-80146918D01*
X182734400Y-80146918D02*
X182591542Y-80218346D01*
X182591542Y-80218346D02*
X182020114Y-80218346D01*
X182020114Y-80218346D02*
X181877257Y-80146918D01*
X181877257Y-80146918D02*
X181805828Y-80004061D01*
X181805828Y-80004061D02*
X181805828Y-79718346D01*
X181805828Y-79718346D02*
X181877257Y-79575489D01*
X181877257Y-79575489D02*
X182020114Y-79504061D01*
X182020114Y-79504061D02*
X182162971Y-79504061D01*
X182162971Y-79504061D02*
X182305828Y-80218346D01*
X185149400Y-87146917D02*
X185220828Y-86932632D01*
X185220828Y-86932632D02*
X185220828Y-86575489D01*
X185220828Y-86575489D02*
X185149400Y-86432632D01*
X185149400Y-86432632D02*
X185077971Y-86361203D01*
X185077971Y-86361203D02*
X184935114Y-86289774D01*
X184935114Y-86289774D02*
X184792257Y-86289774D01*
X184792257Y-86289774D02*
X184649400Y-86361203D01*
X184649400Y-86361203D02*
X184577971Y-86432632D01*
X184577971Y-86432632D02*
X184506542Y-86575489D01*
X184506542Y-86575489D02*
X184435114Y-86861203D01*
X184435114Y-86861203D02*
X184363685Y-87004060D01*
X184363685Y-87004060D02*
X184292257Y-87075489D01*
X184292257Y-87075489D02*
X184149400Y-87146917D01*
X184149400Y-87146917D02*
X184006542Y-87146917D01*
X184006542Y-87146917D02*
X183863685Y-87075489D01*
X183863685Y-87075489D02*
X183792257Y-87004060D01*
X183792257Y-87004060D02*
X183720828Y-86861203D01*
X183720828Y-86861203D02*
X183720828Y-86504060D01*
X183720828Y-86504060D02*
X183792257Y-86289774D01*
X185149400Y-85075489D02*
X185220828Y-85218346D01*
X185220828Y-85218346D02*
X185220828Y-85504061D01*
X185220828Y-85504061D02*
X185149400Y-85646918D01*
X185149400Y-85646918D02*
X185006542Y-85718346D01*
X185006542Y-85718346D02*
X184435114Y-85718346D01*
X184435114Y-85718346D02*
X184292257Y-85646918D01*
X184292257Y-85646918D02*
X184220828Y-85504061D01*
X184220828Y-85504061D02*
X184220828Y-85218346D01*
X184220828Y-85218346D02*
X184292257Y-85075489D01*
X184292257Y-85075489D02*
X184435114Y-85004061D01*
X184435114Y-85004061D02*
X184577971Y-85004061D01*
X184577971Y-85004061D02*
X184720828Y-85718346D01*
X184220828Y-84361204D02*
X185220828Y-84361204D01*
X184363685Y-84361204D02*
X184292257Y-84289775D01*
X184292257Y-84289775D02*
X184220828Y-84146918D01*
X184220828Y-84146918D02*
X184220828Y-83932632D01*
X184220828Y-83932632D02*
X184292257Y-83789775D01*
X184292257Y-83789775D02*
X184435114Y-83718347D01*
X184435114Y-83718347D02*
X185220828Y-83718347D01*
X185149400Y-83075489D02*
X185220828Y-82932632D01*
X185220828Y-82932632D02*
X185220828Y-82646918D01*
X185220828Y-82646918D02*
X185149400Y-82504061D01*
X185149400Y-82504061D02*
X185006542Y-82432632D01*
X185006542Y-82432632D02*
X184935114Y-82432632D01*
X184935114Y-82432632D02*
X184792257Y-82504061D01*
X184792257Y-82504061D02*
X184720828Y-82646918D01*
X184720828Y-82646918D02*
X184720828Y-82861204D01*
X184720828Y-82861204D02*
X184649400Y-83004061D01*
X184649400Y-83004061D02*
X184506542Y-83075489D01*
X184506542Y-83075489D02*
X184435114Y-83075489D01*
X184435114Y-83075489D02*
X184292257Y-83004061D01*
X184292257Y-83004061D02*
X184220828Y-82861204D01*
X184220828Y-82861204D02*
X184220828Y-82646918D01*
X184220828Y-82646918D02*
X184292257Y-82504061D01*
X185220828Y-81575489D02*
X185149400Y-81718346D01*
X185149400Y-81718346D02*
X185077971Y-81789775D01*
X185077971Y-81789775D02*
X184935114Y-81861203D01*
X184935114Y-81861203D02*
X184506542Y-81861203D01*
X184506542Y-81861203D02*
X184363685Y-81789775D01*
X184363685Y-81789775D02*
X184292257Y-81718346D01*
X184292257Y-81718346D02*
X184220828Y-81575489D01*
X184220828Y-81575489D02*
X184220828Y-81361203D01*
X184220828Y-81361203D02*
X184292257Y-81218346D01*
X184292257Y-81218346D02*
X184363685Y-81146918D01*
X184363685Y-81146918D02*
X184506542Y-81075489D01*
X184506542Y-81075489D02*
X184935114Y-81075489D01*
X184935114Y-81075489D02*
X185077971Y-81146918D01*
X185077971Y-81146918D02*
X185149400Y-81218346D01*
X185149400Y-81218346D02*
X185220828Y-81361203D01*
X185220828Y-81361203D02*
X185220828Y-81575489D01*
X185220828Y-80432632D02*
X184220828Y-80432632D01*
X184506542Y-80432632D02*
X184363685Y-80361203D01*
X184363685Y-80361203D02*
X184292257Y-80289775D01*
X184292257Y-80289775D02*
X184220828Y-80146917D01*
X184220828Y-80146917D02*
X184220828Y-80004060D01*
D11*
D12*
X150001653Y-72190828D02*
X149501653Y-71476542D01*
X149144510Y-72190828D02*
X149144510Y-70690828D01*
X149144510Y-70690828D02*
X149715939Y-70690828D01*
X149715939Y-70690828D02*
X149858796Y-70762257D01*
X149858796Y-70762257D02*
X149930225Y-70833685D01*
X149930225Y-70833685D02*
X150001653Y-70976542D01*
X150001653Y-70976542D02*
X150001653Y-71190828D01*
X150001653Y-71190828D02*
X149930225Y-71333685D01*
X149930225Y-71333685D02*
X149858796Y-71405114D01*
X149858796Y-71405114D02*
X149715939Y-71476542D01*
X149715939Y-71476542D02*
X149144510Y-71476542D01*
X151215939Y-72119400D02*
X151073082Y-72190828D01*
X151073082Y-72190828D02*
X150787368Y-72190828D01*
X150787368Y-72190828D02*
X150644510Y-72119400D01*
X150644510Y-72119400D02*
X150573082Y-71976542D01*
X150573082Y-71976542D02*
X150573082Y-71405114D01*
X150573082Y-71405114D02*
X150644510Y-71262257D01*
X150644510Y-71262257D02*
X150787368Y-71190828D01*
X150787368Y-71190828D02*
X151073082Y-71190828D01*
X151073082Y-71190828D02*
X151215939Y-71262257D01*
X151215939Y-71262257D02*
X151287368Y-71405114D01*
X151287368Y-71405114D02*
X151287368Y-71547971D01*
X151287368Y-71547971D02*
X150573082Y-71690828D01*
X151858796Y-72119400D02*
X152001653Y-72190828D01*
X152001653Y-72190828D02*
X152287367Y-72190828D01*
X152287367Y-72190828D02*
X152430224Y-72119400D01*
X152430224Y-72119400D02*
X152501653Y-71976542D01*
X152501653Y-71976542D02*
X152501653Y-71905114D01*
X152501653Y-71905114D02*
X152430224Y-71762257D01*
X152430224Y-71762257D02*
X152287367Y-71690828D01*
X152287367Y-71690828D02*
X152073082Y-71690828D01*
X152073082Y-71690828D02*
X151930224Y-71619400D01*
X151930224Y-71619400D02*
X151858796Y-71476542D01*
X151858796Y-71476542D02*
X151858796Y-71405114D01*
X151858796Y-71405114D02*
X151930224Y-71262257D01*
X151930224Y-71262257D02*
X152073082Y-71190828D01*
X152073082Y-71190828D02*
X152287367Y-71190828D01*
X152287367Y-71190828D02*
X152430224Y-71262257D01*
X153715939Y-72119400D02*
X153573082Y-72190828D01*
X153573082Y-72190828D02*
X153287368Y-72190828D01*
X153287368Y-72190828D02*
X153144510Y-72119400D01*
X153144510Y-72119400D02*
X153073082Y-71976542D01*
X153073082Y-71976542D02*
X153073082Y-71405114D01*
X153073082Y-71405114D02*
X153144510Y-71262257D01*
X153144510Y-71262257D02*
X153287368Y-71190828D01*
X153287368Y-71190828D02*
X153573082Y-71190828D01*
X153573082Y-71190828D02*
X153715939Y-71262257D01*
X153715939Y-71262257D02*
X153787368Y-71405114D01*
X153787368Y-71405114D02*
X153787368Y-71547971D01*
X153787368Y-71547971D02*
X153073082Y-71690828D01*
X154215939Y-71190828D02*
X154787367Y-71190828D01*
X154430224Y-70690828D02*
X154430224Y-71976542D01*
X154430224Y-71976542D02*
X154501653Y-72119400D01*
X154501653Y-72119400D02*
X154644510Y-72190828D01*
X154644510Y-72190828D02*
X154787367Y-72190828D01*
D11*
D12*
X165742257Y-99846917D02*
X165742257Y-99132632D01*
X166170828Y-99989774D02*
X164670828Y-99489774D01*
X164670828Y-99489774D02*
X166170828Y-98989774D01*
X166170828Y-98489775D02*
X165170828Y-98489775D01*
X165456542Y-98489775D02*
X165313685Y-98418346D01*
X165313685Y-98418346D02*
X165242257Y-98346918D01*
X165242257Y-98346918D02*
X165170828Y-98204060D01*
X165170828Y-98204060D02*
X165170828Y-98061203D01*
X166170828Y-96918347D02*
X164670828Y-96918347D01*
X166099400Y-96918347D02*
X166170828Y-97061204D01*
X166170828Y-97061204D02*
X166170828Y-97346918D01*
X166170828Y-97346918D02*
X166099400Y-97489775D01*
X166099400Y-97489775D02*
X166027971Y-97561204D01*
X166027971Y-97561204D02*
X165885114Y-97632632D01*
X165885114Y-97632632D02*
X165456542Y-97632632D01*
X165456542Y-97632632D02*
X165313685Y-97561204D01*
X165313685Y-97561204D02*
X165242257Y-97489775D01*
X165242257Y-97489775D02*
X165170828Y-97346918D01*
X165170828Y-97346918D02*
X165170828Y-97061204D01*
X165170828Y-97061204D02*
X165242257Y-96918347D01*
X165170828Y-95561204D02*
X166170828Y-95561204D01*
X165170828Y-96204061D02*
X165956542Y-96204061D01*
X165956542Y-96204061D02*
X166099400Y-96132632D01*
X166099400Y-96132632D02*
X166170828Y-95989775D01*
X166170828Y-95989775D02*
X166170828Y-95775489D01*
X166170828Y-95775489D02*
X166099400Y-95632632D01*
X166099400Y-95632632D02*
X166027971Y-95561204D01*
X166170828Y-94846918D02*
X165170828Y-94846918D01*
X164670828Y-94846918D02*
X164742257Y-94918346D01*
X164742257Y-94918346D02*
X164813685Y-94846918D01*
X164813685Y-94846918D02*
X164742257Y-94775489D01*
X164742257Y-94775489D02*
X164670828Y-94846918D01*
X164670828Y-94846918D02*
X164813685Y-94846918D01*
X165170828Y-94132632D02*
X166170828Y-94132632D01*
X165313685Y-94132632D02*
X165242257Y-94061203D01*
X165242257Y-94061203D02*
X165170828Y-93918346D01*
X165170828Y-93918346D02*
X165170828Y-93704060D01*
X165170828Y-93704060D02*
X165242257Y-93561203D01*
X165242257Y-93561203D02*
X165385114Y-93489775D01*
X165385114Y-93489775D02*
X166170828Y-93489775D01*
X166170828Y-92561203D02*
X166099400Y-92704060D01*
X166099400Y-92704060D02*
X166027971Y-92775489D01*
X166027971Y-92775489D02*
X165885114Y-92846917D01*
X165885114Y-92846917D02*
X165456542Y-92846917D01*
X165456542Y-92846917D02*
X165313685Y-92775489D01*
X165313685Y-92775489D02*
X165242257Y-92704060D01*
X165242257Y-92704060D02*
X165170828Y-92561203D01*
X165170828Y-92561203D02*
X165170828Y-92346917D01*
X165170828Y-92346917D02*
X165242257Y-92204060D01*
X165242257Y-92204060D02*
X165313685Y-92132632D01*
X165313685Y-92132632D02*
X165456542Y-92061203D01*
X165456542Y-92061203D02*
X165885114Y-92061203D01*
X165885114Y-92061203D02*
X166027971Y-92132632D01*
X166027971Y-92132632D02*
X166099400Y-92204060D01*
X166099400Y-92204060D02*
X166170828Y-92346917D01*
X166170828Y-92346917D02*
X166170828Y-92561203D01*
X166170828Y-90275489D02*
X164670828Y-90275489D01*
X164670828Y-90275489D02*
X166170828Y-89418346D01*
X166170828Y-89418346D02*
X164670828Y-89418346D01*
X166170828Y-88061203D02*
X165385114Y-88061203D01*
X165385114Y-88061203D02*
X165242257Y-88132631D01*
X165242257Y-88132631D02*
X165170828Y-88275488D01*
X165170828Y-88275488D02*
X165170828Y-88561203D01*
X165170828Y-88561203D02*
X165242257Y-88704060D01*
X166099400Y-88061203D02*
X166170828Y-88204060D01*
X166170828Y-88204060D02*
X166170828Y-88561203D01*
X166170828Y-88561203D02*
X166099400Y-88704060D01*
X166099400Y-88704060D02*
X165956542Y-88775488D01*
X165956542Y-88775488D02*
X165813685Y-88775488D01*
X165813685Y-88775488D02*
X165670828Y-88704060D01*
X165670828Y-88704060D02*
X165599400Y-88561203D01*
X165599400Y-88561203D02*
X165599400Y-88204060D01*
X165599400Y-88204060D02*
X165527971Y-88061203D01*
X165170828Y-87346917D02*
X166170828Y-87346917D01*
X165313685Y-87346917D02*
X165242257Y-87275488D01*
X165242257Y-87275488D02*
X165170828Y-87132631D01*
X165170828Y-87132631D02*
X165170828Y-86918345D01*
X165170828Y-86918345D02*
X165242257Y-86775488D01*
X165242257Y-86775488D02*
X165385114Y-86704060D01*
X165385114Y-86704060D02*
X166170828Y-86704060D01*
X166170828Y-85775488D02*
X166099400Y-85918345D01*
X166099400Y-85918345D02*
X166027971Y-85989774D01*
X166027971Y-85989774D02*
X165885114Y-86061202D01*
X165885114Y-86061202D02*
X165456542Y-86061202D01*
X165456542Y-86061202D02*
X165313685Y-85989774D01*
X165313685Y-85989774D02*
X165242257Y-85918345D01*
X165242257Y-85918345D02*
X165170828Y-85775488D01*
X165170828Y-85775488D02*
X165170828Y-85561202D01*
X165170828Y-85561202D02*
X165242257Y-85418345D01*
X165242257Y-85418345D02*
X165313685Y-85346917D01*
X165313685Y-85346917D02*
X165456542Y-85275488D01*
X165456542Y-85275488D02*
X165885114Y-85275488D01*
X165885114Y-85275488D02*
X166027971Y-85346917D01*
X166027971Y-85346917D02*
X166099400Y-85418345D01*
X166099400Y-85418345D02*
X166170828Y-85561202D01*
X166170828Y-85561202D02*
X166170828Y-85775488D01*
D11*
D12*
X148588796Y-126570828D02*
X147874510Y-126570828D01*
X147874510Y-126570828D02*
X147803082Y-127285114D01*
X147803082Y-127285114D02*
X147874510Y-127213685D01*
X147874510Y-127213685D02*
X148017368Y-127142257D01*
X148017368Y-127142257D02*
X148374510Y-127142257D01*
X148374510Y-127142257D02*
X148517368Y-127213685D01*
X148517368Y-127213685D02*
X148588796Y-127285114D01*
X148588796Y-127285114D02*
X148660225Y-127427971D01*
X148660225Y-127427971D02*
X148660225Y-127785114D01*
X148660225Y-127785114D02*
X148588796Y-127927971D01*
X148588796Y-127927971D02*
X148517368Y-127999400D01*
X148517368Y-127999400D02*
X148374510Y-128070828D01*
X148374510Y-128070828D02*
X148017368Y-128070828D01*
X148017368Y-128070828D02*
X147874510Y-127999400D01*
X147874510Y-127999400D02*
X147803082Y-127927971D01*
X149088796Y-126570828D02*
X149588796Y-128070828D01*
X149588796Y-128070828D02*
X150088796Y-126570828D01*
X151731652Y-128070828D02*
X151731652Y-126570828D01*
X152445938Y-127070828D02*
X152445938Y-128070828D01*
X152445938Y-127213685D02*
X152517367Y-127142257D01*
X152517367Y-127142257D02*
X152660224Y-127070828D01*
X152660224Y-127070828D02*
X152874510Y-127070828D01*
X152874510Y-127070828D02*
X153017367Y-127142257D01*
X153017367Y-127142257D02*
X153088796Y-127285114D01*
X153088796Y-127285114D02*
X153088796Y-128070828D01*
X153803081Y-127070828D02*
X153803081Y-128570828D01*
X153803081Y-127142257D02*
X153945939Y-127070828D01*
X153945939Y-127070828D02*
X154231653Y-127070828D01*
X154231653Y-127070828D02*
X154374510Y-127142257D01*
X154374510Y-127142257D02*
X154445939Y-127213685D01*
X154445939Y-127213685D02*
X154517367Y-127356542D01*
X154517367Y-127356542D02*
X154517367Y-127785114D01*
X154517367Y-127785114D02*
X154445939Y-127927971D01*
X154445939Y-127927971D02*
X154374510Y-127999400D01*
X154374510Y-127999400D02*
X154231653Y-128070828D01*
X154231653Y-128070828D02*
X153945939Y-128070828D01*
X153945939Y-128070828D02*
X153803081Y-127999400D01*
X155803082Y-127070828D02*
X155803082Y-128070828D01*
X155160224Y-127070828D02*
X155160224Y-127856542D01*
X155160224Y-127856542D02*
X155231653Y-127999400D01*
X155231653Y-127999400D02*
X155374510Y-128070828D01*
X155374510Y-128070828D02*
X155588796Y-128070828D01*
X155588796Y-128070828D02*
X155731653Y-127999400D01*
X155731653Y-127999400D02*
X155803082Y-127927971D01*
X156303082Y-127070828D02*
X156874510Y-127070828D01*
X156517367Y-126570828D02*
X156517367Y-127856542D01*
X156517367Y-127856542D02*
X156588796Y-127999400D01*
X156588796Y-127999400D02*
X156731653Y-128070828D01*
X156731653Y-128070828D02*
X156874510Y-128070828D01*
D11*
D12*
X138984510Y-114225828D02*
X138984510Y-112725828D01*
X138984510Y-112725828D02*
X139484510Y-113797257D01*
X139484510Y-113797257D02*
X139984510Y-112725828D01*
X139984510Y-112725828D02*
X139984510Y-114225828D01*
X140627368Y-113797257D02*
X141341654Y-113797257D01*
X140484511Y-114225828D02*
X140984511Y-112725828D01*
X140984511Y-112725828D02*
X141484511Y-114225828D01*
X141841653Y-112725828D02*
X142841653Y-114225828D01*
X142841653Y-112725828D02*
X141841653Y-114225828D01*
X138841653Y-115140828D02*
X139841653Y-115140828D01*
X139841653Y-115140828D02*
X139198796Y-116640828D01*
X140341653Y-115283685D02*
X140413081Y-115212257D01*
X140413081Y-115212257D02*
X140555939Y-115140828D01*
X140555939Y-115140828D02*
X140913081Y-115140828D01*
X140913081Y-115140828D02*
X141055939Y-115212257D01*
X141055939Y-115212257D02*
X141127367Y-115283685D01*
X141127367Y-115283685D02*
X141198796Y-115426542D01*
X141198796Y-115426542D02*
X141198796Y-115569400D01*
X141198796Y-115569400D02*
X141127367Y-115783685D01*
X141127367Y-115783685D02*
X140270224Y-116640828D01*
X140270224Y-116640828D02*
X141198796Y-116640828D01*
X142627367Y-116640828D02*
X141770224Y-116640828D01*
X142198795Y-116640828D02*
X142198795Y-115140828D01*
X142198795Y-115140828D02*
X142055938Y-115355114D01*
X142055938Y-115355114D02*
X141913081Y-115497971D01*
X141913081Y-115497971D02*
X141770224Y-115569400D01*
X143341652Y-116640828D02*
X143627366Y-116640828D01*
X143627366Y-116640828D02*
X143770223Y-116569400D01*
X143770223Y-116569400D02*
X143841652Y-116497971D01*
X143841652Y-116497971D02*
X143984509Y-116283685D01*
X143984509Y-116283685D02*
X144055938Y-115997971D01*
X144055938Y-115997971D02*
X144055938Y-115426542D01*
X144055938Y-115426542D02*
X143984509Y-115283685D01*
X143984509Y-115283685D02*
X143913081Y-115212257D01*
X143913081Y-115212257D02*
X143770223Y-115140828D01*
X143770223Y-115140828D02*
X143484509Y-115140828D01*
X143484509Y-115140828D02*
X143341652Y-115212257D01*
X143341652Y-115212257D02*
X143270223Y-115283685D01*
X143270223Y-115283685D02*
X143198795Y-115426542D01*
X143198795Y-115426542D02*
X143198795Y-115783685D01*
X143198795Y-115783685D02*
X143270223Y-115926542D01*
X143270223Y-115926542D02*
X143341652Y-115997971D01*
X143341652Y-115997971D02*
X143484509Y-116069400D01*
X143484509Y-116069400D02*
X143770223Y-116069400D01*
X143770223Y-116069400D02*
X143913081Y-115997971D01*
X143913081Y-115997971D02*
X143984509Y-115926542D01*
X143984509Y-115926542D02*
X144055938Y-115783685D01*
D13*
D14*
X136560112Y-104416009D02*
X136226779Y-104416009D01*
X136226779Y-104939819D02*
X136226779Y-103939819D01*
X136226779Y-103939819D02*
X136702969Y-103939819D01*
X137083922Y-103939819D02*
X137083922Y-104749342D01*
X137083922Y-104749342D02*
X137131541Y-104844580D01*
X137131541Y-104844580D02*
X137179160Y-104892200D01*
X137179160Y-104892200D02*
X137274398Y-104939819D01*
X137274398Y-104939819D02*
X137464874Y-104939819D01*
X137464874Y-104939819D02*
X137560112Y-104892200D01*
X137560112Y-104892200D02*
X137607731Y-104844580D01*
X137607731Y-104844580D02*
X137655350Y-104749342D01*
X137655350Y-104749342D02*
X137655350Y-103939819D01*
X138131541Y-104416009D02*
X138464874Y-104416009D01*
X138607731Y-104939819D02*
X138131541Y-104939819D01*
X138131541Y-104939819D02*
X138131541Y-103939819D01*
X138131541Y-103939819D02*
X138607731Y-103939819D01*
X139512493Y-104939819D02*
X139036303Y-104939819D01*
X139036303Y-104939819D02*
X139036303Y-103939819D01*
X136179160Y-106264104D02*
X136655350Y-106264104D01*
X136083922Y-106549819D02*
X136417255Y-105549819D01*
X136417255Y-105549819D02*
X136750588Y-106549819D01*
X137083922Y-106168866D02*
X137845827Y-106168866D01*
X138798207Y-106549819D02*
X138322017Y-106549819D01*
X138322017Y-106549819D02*
X138322017Y-105549819D01*
D13*
D14*
X136560112Y-100606009D02*
X136226779Y-100606009D01*
X136226779Y-101129819D02*
X136226779Y-100129819D01*
X136226779Y-100129819D02*
X136702969Y-100129819D01*
X137083922Y-100129819D02*
X137083922Y-100939342D01*
X137083922Y-100939342D02*
X137131541Y-101034580D01*
X137131541Y-101034580D02*
X137179160Y-101082200D01*
X137179160Y-101082200D02*
X137274398Y-101129819D01*
X137274398Y-101129819D02*
X137464874Y-101129819D01*
X137464874Y-101129819D02*
X137560112Y-101082200D01*
X137560112Y-101082200D02*
X137607731Y-101034580D01*
X137607731Y-101034580D02*
X137655350Y-100939342D01*
X137655350Y-100939342D02*
X137655350Y-100129819D01*
X138131541Y-100606009D02*
X138464874Y-100606009D01*
X138607731Y-101129819D02*
X138131541Y-101129819D01*
X138131541Y-101129819D02*
X138131541Y-100129819D01*
X138131541Y-100129819D02*
X138607731Y-100129819D01*
X139512493Y-101129819D02*
X139036303Y-101129819D01*
X139036303Y-101129819D02*
X139036303Y-100129819D01*
X136560112Y-102216009D02*
X136226779Y-102216009D01*
X136226779Y-102739819D02*
X136226779Y-101739819D01*
X136226779Y-101739819D02*
X136702969Y-101739819D01*
X137083922Y-102358866D02*
X137845827Y-102358866D01*
X138893445Y-102739819D02*
X138560112Y-102263628D01*
X138322017Y-102739819D02*
X138322017Y-101739819D01*
X138322017Y-101739819D02*
X138702969Y-101739819D01*
X138702969Y-101739819D02*
X138798207Y-101787438D01*
X138798207Y-101787438D02*
X138845826Y-101835057D01*
X138845826Y-101835057D02*
X138893445Y-101930295D01*
X138893445Y-101930295D02*
X138893445Y-102073152D01*
X138893445Y-102073152D02*
X138845826Y-102168390D01*
X138845826Y-102168390D02*
X138798207Y-102216009D01*
X138798207Y-102216009D02*
X138702969Y-102263628D01*
X138702969Y-102263628D02*
X138322017Y-102263628D01*
D13*
D14*
X136226779Y-97659819D02*
X136226779Y-96659819D01*
X136226779Y-97136009D02*
X136798207Y-97136009D01*
X136798207Y-97659819D02*
X136798207Y-96659819D01*
X137464874Y-97183628D02*
X137464874Y-97659819D01*
X137131541Y-96659819D02*
X137464874Y-97183628D01*
X137464874Y-97183628D02*
X137798207Y-96659819D01*
X138131541Y-97659819D02*
X138131541Y-96659819D01*
X138131541Y-96659819D02*
X138369636Y-96659819D01*
X138369636Y-96659819D02*
X138512493Y-96707438D01*
X138512493Y-96707438D02*
X138607731Y-96802676D01*
X138607731Y-96802676D02*
X138655350Y-96897914D01*
X138655350Y-96897914D02*
X138702969Y-97088390D01*
X138702969Y-97088390D02*
X138702969Y-97231247D01*
X138702969Y-97231247D02*
X138655350Y-97421723D01*
X138655350Y-97421723D02*
X138607731Y-97516961D01*
X138607731Y-97516961D02*
X138512493Y-97612200D01*
X138512493Y-97612200D02*
X138369636Y-97659819D01*
X138369636Y-97659819D02*
X138131541Y-97659819D01*
X139131541Y-97659819D02*
X139131541Y-96659819D01*
X139131541Y-96659819D02*
X139512493Y-96659819D01*
X139512493Y-96659819D02*
X139607731Y-96707438D01*
X139607731Y-96707438D02*
X139655350Y-96755057D01*
X139655350Y-96755057D02*
X139702969Y-96850295D01*
X139702969Y-96850295D02*
X139702969Y-96993152D01*
X139702969Y-96993152D02*
X139655350Y-97088390D01*
X139655350Y-97088390D02*
X139607731Y-97136009D01*
X139607731Y-97136009D02*
X139512493Y-97183628D01*
X139512493Y-97183628D02*
X139131541Y-97183628D01*
D13*
D14*
X136226779Y-93849819D02*
X136226779Y-92849819D01*
X136226779Y-93326009D02*
X136798207Y-93326009D01*
X136798207Y-93849819D02*
X136798207Y-92849819D01*
X137464874Y-93373628D02*
X137464874Y-93849819D01*
X137131541Y-92849819D02*
X137464874Y-93373628D01*
X137464874Y-93373628D02*
X137798207Y-92849819D01*
X138131541Y-93849819D02*
X138131541Y-92849819D01*
X138131541Y-92849819D02*
X138369636Y-92849819D01*
X138369636Y-92849819D02*
X138512493Y-92897438D01*
X138512493Y-92897438D02*
X138607731Y-92992676D01*
X138607731Y-92992676D02*
X138655350Y-93087914D01*
X138655350Y-93087914D02*
X138702969Y-93278390D01*
X138702969Y-93278390D02*
X138702969Y-93421247D01*
X138702969Y-93421247D02*
X138655350Y-93611723D01*
X138655350Y-93611723D02*
X138607731Y-93706961D01*
X138607731Y-93706961D02*
X138512493Y-93802200D01*
X138512493Y-93802200D02*
X138369636Y-93849819D01*
X138369636Y-93849819D02*
X138131541Y-93849819D01*
X139083922Y-93564104D02*
X139560112Y-93564104D01*
X138988684Y-93849819D02*
X139322017Y-92849819D01*
X139322017Y-92849819D02*
X139655350Y-93849819D01*
D13*
D14*
X136702969Y-88429819D02*
X136226779Y-88429819D01*
X136226779Y-88429819D02*
X136226779Y-87429819D01*
X137036303Y-87906009D02*
X137369636Y-87906009D01*
X137512493Y-88429819D02*
X137036303Y-88429819D01*
X137036303Y-88429819D02*
X137036303Y-87429819D01*
X137036303Y-87429819D02*
X137512493Y-87429819D01*
X137941065Y-88429819D02*
X137941065Y-87429819D01*
X137941065Y-87429819D02*
X138179160Y-87429819D01*
X138179160Y-87429819D02*
X138322017Y-87477438D01*
X138322017Y-87477438D02*
X138417255Y-87572676D01*
X138417255Y-87572676D02*
X138464874Y-87667914D01*
X138464874Y-87667914D02*
X138512493Y-87858390D01*
X138512493Y-87858390D02*
X138512493Y-88001247D01*
X138512493Y-88001247D02*
X138464874Y-88191723D01*
X138464874Y-88191723D02*
X138417255Y-88286961D01*
X138417255Y-88286961D02*
X138322017Y-88382200D01*
X138322017Y-88382200D02*
X138179160Y-88429819D01*
X138179160Y-88429819D02*
X137941065Y-88429819D01*
X136702969Y-89039819D02*
X136226779Y-89039819D01*
X136226779Y-89039819D02*
X136179160Y-89516009D01*
X136179160Y-89516009D02*
X136226779Y-89468390D01*
X136226779Y-89468390D02*
X136322017Y-89420771D01*
X136322017Y-89420771D02*
X136560112Y-89420771D01*
X136560112Y-89420771D02*
X136655350Y-89468390D01*
X136655350Y-89468390D02*
X136702969Y-89516009D01*
X136702969Y-89516009D02*
X136750588Y-89611247D01*
X136750588Y-89611247D02*
X136750588Y-89849342D01*
X136750588Y-89849342D02*
X136702969Y-89944580D01*
X136702969Y-89944580D02*
X136655350Y-89992200D01*
X136655350Y-89992200D02*
X136560112Y-90039819D01*
X136560112Y-90039819D02*
X136322017Y-90039819D01*
X136322017Y-90039819D02*
X136226779Y-89992200D01*
X136226779Y-89992200D02*
X136179160Y-89944580D01*
X137607731Y-89373152D02*
X137607731Y-90039819D01*
X137369636Y-88992200D02*
X137131541Y-89706485D01*
X137131541Y-89706485D02*
X137750588Y-89706485D01*
X138607731Y-89039819D02*
X138131541Y-89039819D01*
X138131541Y-89039819D02*
X138083922Y-89516009D01*
X138083922Y-89516009D02*
X138131541Y-89468390D01*
X138131541Y-89468390D02*
X138226779Y-89420771D01*
X138226779Y-89420771D02*
X138464874Y-89420771D01*
X138464874Y-89420771D02*
X138560112Y-89468390D01*
X138560112Y-89468390D02*
X138607731Y-89516009D01*
X138607731Y-89516009D02*
X138655350Y-89611247D01*
X138655350Y-89611247D02*
X138655350Y-89849342D01*
X138655350Y-89849342D02*
X138607731Y-89944580D01*
X138607731Y-89944580D02*
X138560112Y-89992200D01*
X138560112Y-89992200D02*
X138464874Y-90039819D01*
X138464874Y-90039819D02*
X138226779Y-90039819D01*
X138226779Y-90039819D02*
X138131541Y-89992200D01*
X138131541Y-89992200D02*
X138083922Y-89944580D01*
X139607731Y-90039819D02*
X139036303Y-90039819D01*
X139322017Y-90039819D02*
X139322017Y-89039819D01*
X139322017Y-89039819D02*
X139226779Y-89182676D01*
X139226779Y-89182676D02*
X139131541Y-89277914D01*
X139131541Y-89277914D02*
X139036303Y-89325533D01*
D15*
D16*
X136292568Y-81550809D02*
X136625901Y-81550809D01*
X136768758Y-82074619D02*
X136292568Y-82074619D01*
X136292568Y-82074619D02*
X136292568Y-81074619D01*
X136292568Y-81074619D02*
X136768758Y-81074619D01*
X137149711Y-81788904D02*
X137625901Y-81788904D01*
X137054473Y-82074619D02*
X137387806Y-81074619D01*
X137387806Y-81074619D02*
X137721139Y-82074619D01*
X136816377Y-82732238D02*
X136721139Y-82684619D01*
X136721139Y-82684619D02*
X136578282Y-82684619D01*
X136578282Y-82684619D02*
X136435425Y-82732238D01*
X136435425Y-82732238D02*
X136340187Y-82827476D01*
X136340187Y-82827476D02*
X136292568Y-82922714D01*
X136292568Y-82922714D02*
X136244949Y-83113190D01*
X136244949Y-83113190D02*
X136244949Y-83256047D01*
X136244949Y-83256047D02*
X136292568Y-83446523D01*
X136292568Y-83446523D02*
X136340187Y-83541761D01*
X136340187Y-83541761D02*
X136435425Y-83637000D01*
X136435425Y-83637000D02*
X136578282Y-83684619D01*
X136578282Y-83684619D02*
X136673520Y-83684619D01*
X136673520Y-83684619D02*
X136816377Y-83637000D01*
X136816377Y-83637000D02*
X136863996Y-83589380D01*
X136863996Y-83589380D02*
X136863996Y-83256047D01*
X136863996Y-83256047D02*
X136673520Y-83256047D01*
X137768758Y-83684619D02*
X137292568Y-83684619D01*
X137292568Y-83684619D02*
X137292568Y-82684619D01*
X138673520Y-83589380D02*
X138625901Y-83637000D01*
X138625901Y-83637000D02*
X138483044Y-83684619D01*
X138483044Y-83684619D02*
X138387806Y-83684619D01*
X138387806Y-83684619D02*
X138244949Y-83637000D01*
X138244949Y-83637000D02*
X138149711Y-83541761D01*
X138149711Y-83541761D02*
X138102092Y-83446523D01*
X138102092Y-83446523D02*
X138054473Y-83256047D01*
X138054473Y-83256047D02*
X138054473Y-83113190D01*
X138054473Y-83113190D02*
X138102092Y-82922714D01*
X138102092Y-82922714D02*
X138149711Y-82827476D01*
X138149711Y-82827476D02*
X138244949Y-82732238D01*
X138244949Y-82732238D02*
X138387806Y-82684619D01*
X138387806Y-82684619D02*
X138483044Y-82684619D01*
X138483044Y-82684619D02*
X138625901Y-82732238D01*
X138625901Y-82732238D02*
X138673520Y-82779857D01*
X139102092Y-83684619D02*
X139102092Y-82684619D01*
X139102092Y-82684619D02*
X139340187Y-82684619D01*
X139340187Y-82684619D02*
X139483044Y-82732238D01*
X139483044Y-82732238D02*
X139578282Y-82827476D01*
X139578282Y-82827476D02*
X139625901Y-82922714D01*
X139625901Y-82922714D02*
X139673520Y-83113190D01*
X139673520Y-83113190D02*
X139673520Y-83256047D01*
X139673520Y-83256047D02*
X139625901Y-83446523D01*
X139625901Y-83446523D02*
X139578282Y-83541761D01*
X139578282Y-83541761D02*
X139483044Y-83637000D01*
X139483044Y-83637000D02*
X139340187Y-83684619D01*
X139340187Y-83684619D02*
X139102092Y-83684619D01*
D11*
D12*
X168186415Y-128009638D02*
X167519748Y-127057257D01*
X167043558Y-128009638D02*
X167043558Y-126009638D01*
X167043558Y-126009638D02*
X167805463Y-126009638D01*
X167805463Y-126009638D02*
X167995939Y-126104876D01*
X167995939Y-126104876D02*
X168091177Y-126200114D01*
X168091177Y-126200114D02*
X168186415Y-126390590D01*
X168186415Y-126390590D02*
X168186415Y-126676304D01*
X168186415Y-126676304D02*
X168091177Y-126866780D01*
X168091177Y-126866780D02*
X167995939Y-126962019D01*
X167995939Y-126962019D02*
X167805463Y-127057257D01*
X167805463Y-127057257D02*
X167043558Y-127057257D01*
X169043558Y-128009638D02*
X169043558Y-126676304D01*
X169043558Y-126009638D02*
X168948320Y-126104876D01*
X168948320Y-126104876D02*
X169043558Y-126200114D01*
X169043558Y-126200114D02*
X169138796Y-126104876D01*
X169138796Y-126104876D02*
X169043558Y-126009638D01*
X169043558Y-126009638D02*
X169043558Y-126200114D01*
X170853082Y-126676304D02*
X170853082Y-128295352D01*
X170853082Y-128295352D02*
X170757844Y-128485828D01*
X170757844Y-128485828D02*
X170662606Y-128581066D01*
X170662606Y-128581066D02*
X170472129Y-128676304D01*
X170472129Y-128676304D02*
X170186415Y-128676304D01*
X170186415Y-128676304D02*
X169995939Y-128581066D01*
X170853082Y-127914400D02*
X170662606Y-128009638D01*
X170662606Y-128009638D02*
X170281653Y-128009638D01*
X170281653Y-128009638D02*
X170091177Y-127914400D01*
X170091177Y-127914400D02*
X169995939Y-127819161D01*
X169995939Y-127819161D02*
X169900701Y-127628685D01*
X169900701Y-127628685D02*
X169900701Y-127057257D01*
X169900701Y-127057257D02*
X169995939Y-126866780D01*
X169995939Y-126866780D02*
X170091177Y-126771542D01*
X170091177Y-126771542D02*
X170281653Y-126676304D01*
X170281653Y-126676304D02*
X170662606Y-126676304D01*
X170662606Y-126676304D02*
X170853082Y-126771542D01*
X171805463Y-128009638D02*
X171805463Y-126009638D01*
X172662606Y-128009638D02*
X172662606Y-126962019D01*
X172662606Y-126962019D02*
X172567368Y-126771542D01*
X172567368Y-126771542D02*
X172376892Y-126676304D01*
X172376892Y-126676304D02*
X172091177Y-126676304D01*
X172091177Y-126676304D02*
X171900701Y-126771542D01*
X171900701Y-126771542D02*
X171805463Y-126866780D01*
X173329273Y-126676304D02*
X174091177Y-126676304D01*
X173614987Y-126009638D02*
X173614987Y-127723923D01*
X173614987Y-127723923D02*
X173710225Y-127914400D01*
X173710225Y-127914400D02*
X173900701Y-128009638D01*
X173900701Y-128009638D02*
X174091177Y-128009638D01*
X174662606Y-127438209D02*
X175614987Y-127438209D01*
X174472130Y-128009638D02*
X175138796Y-126009638D01*
X175138796Y-126009638D02*
X175805463Y-128009638D01*
X176472130Y-126009638D02*
X176472130Y-127628685D01*
X176472130Y-127628685D02*
X176567368Y-127819161D01*
X176567368Y-127819161D02*
X176662606Y-127914400D01*
X176662606Y-127914400D02*
X176853082Y-128009638D01*
X176853082Y-128009638D02*
X177234035Y-128009638D01*
X177234035Y-128009638D02*
X177424511Y-127914400D01*
X177424511Y-127914400D02*
X177519749Y-127819161D01*
X177519749Y-127819161D02*
X177614987Y-127628685D01*
X177614987Y-127628685D02*
X177614987Y-126009638D01*
X179710225Y-127819161D02*
X179614987Y-127914400D01*
X179614987Y-127914400D02*
X179329273Y-128009638D01*
X179329273Y-128009638D02*
X179138797Y-128009638D01*
X179138797Y-128009638D02*
X178853082Y-127914400D01*
X178853082Y-127914400D02*
X178662606Y-127723923D01*
X178662606Y-127723923D02*
X178567368Y-127533447D01*
X178567368Y-127533447D02*
X178472130Y-127152495D01*
X178472130Y-127152495D02*
X178472130Y-126866780D01*
X178472130Y-126866780D02*
X178567368Y-126485828D01*
X178567368Y-126485828D02*
X178662606Y-126295352D01*
X178662606Y-126295352D02*
X178853082Y-126104876D01*
X178853082Y-126104876D02*
X179138797Y-126009638D01*
X179138797Y-126009638D02*
X179329273Y-126009638D01*
X179329273Y-126009638D02*
X179614987Y-126104876D01*
X179614987Y-126104876D02*
X179710225Y-126200114D01*
X183234035Y-127819161D02*
X183138797Y-127914400D01*
X183138797Y-127914400D02*
X182853083Y-128009638D01*
X182853083Y-128009638D02*
X182662607Y-128009638D01*
X182662607Y-128009638D02*
X182376892Y-127914400D01*
X182376892Y-127914400D02*
X182186416Y-127723923D01*
X182186416Y-127723923D02*
X182091178Y-127533447D01*
X182091178Y-127533447D02*
X181995940Y-127152495D01*
X181995940Y-127152495D02*
X181995940Y-126866780D01*
X181995940Y-126866780D02*
X182091178Y-126485828D01*
X182091178Y-126485828D02*
X182186416Y-126295352D01*
X182186416Y-126295352D02*
X182376892Y-126104876D01*
X182376892Y-126104876D02*
X182662607Y-126009638D01*
X182662607Y-126009638D02*
X182853083Y-126009638D01*
X182853083Y-126009638D02*
X183138797Y-126104876D01*
X183138797Y-126104876D02*
X183234035Y-126200114D01*
X184376892Y-128009638D02*
X184186416Y-127914400D01*
X184186416Y-127914400D02*
X184091178Y-127819161D01*
X184091178Y-127819161D02*
X183995940Y-127628685D01*
X183995940Y-127628685D02*
X183995940Y-127057257D01*
X183995940Y-127057257D02*
X184091178Y-126866780D01*
X184091178Y-126866780D02*
X184186416Y-126771542D01*
X184186416Y-126771542D02*
X184376892Y-126676304D01*
X184376892Y-126676304D02*
X184662607Y-126676304D01*
X184662607Y-126676304D02*
X184853083Y-126771542D01*
X184853083Y-126771542D02*
X184948321Y-126866780D01*
X184948321Y-126866780D02*
X185043559Y-127057257D01*
X185043559Y-127057257D02*
X185043559Y-127628685D01*
X185043559Y-127628685D02*
X184948321Y-127819161D01*
X184948321Y-127819161D02*
X184853083Y-127914400D01*
X184853083Y-127914400D02*
X184662607Y-128009638D01*
X184662607Y-128009638D02*
X184376892Y-128009638D01*
X185900702Y-126676304D02*
X185900702Y-128009638D01*
X185900702Y-126866780D02*
X185995940Y-126771542D01*
X185995940Y-126771542D02*
X186186416Y-126676304D01*
X186186416Y-126676304D02*
X186472131Y-126676304D01*
X186472131Y-126676304D02*
X186662607Y-126771542D01*
X186662607Y-126771542D02*
X186757845Y-126962019D01*
X186757845Y-126962019D02*
X186757845Y-128009638D01*
X187424512Y-126676304D02*
X188186416Y-126676304D01*
X187710226Y-126009638D02*
X187710226Y-127723923D01*
X187710226Y-127723923D02*
X187805464Y-127914400D01*
X187805464Y-127914400D02*
X187995940Y-128009638D01*
X187995940Y-128009638D02*
X188186416Y-128009638D01*
X188853083Y-128009638D02*
X188853083Y-126676304D01*
X188853083Y-127057257D02*
X188948321Y-126866780D01*
X188948321Y-126866780D02*
X189043559Y-126771542D01*
X189043559Y-126771542D02*
X189234035Y-126676304D01*
X189234035Y-126676304D02*
X189424512Y-126676304D01*
X190376892Y-128009638D02*
X190186416Y-127914400D01*
X190186416Y-127914400D02*
X190091178Y-127819161D01*
X190091178Y-127819161D02*
X189995940Y-127628685D01*
X189995940Y-127628685D02*
X189995940Y-127057257D01*
X189995940Y-127057257D02*
X190091178Y-126866780D01*
X190091178Y-126866780D02*
X190186416Y-126771542D01*
X190186416Y-126771542D02*
X190376892Y-126676304D01*
X190376892Y-126676304D02*
X190662607Y-126676304D01*
X190662607Y-126676304D02*
X190853083Y-126771542D01*
X190853083Y-126771542D02*
X190948321Y-126866780D01*
X190948321Y-126866780D02*
X191043559Y-127057257D01*
X191043559Y-127057257D02*
X191043559Y-127628685D01*
X191043559Y-127628685D02*
X190948321Y-127819161D01*
X190948321Y-127819161D02*
X190853083Y-127914400D01*
X190853083Y-127914400D02*
X190662607Y-128009638D01*
X190662607Y-128009638D02*
X190376892Y-128009638D01*
X192186416Y-128009638D02*
X191995940Y-127914400D01*
X191995940Y-127914400D02*
X191900702Y-127723923D01*
X191900702Y-127723923D02*
X191900702Y-126009638D01*
X192948321Y-128009638D02*
X192948321Y-126009638D01*
X192948321Y-126771542D02*
X193138797Y-126676304D01*
X193138797Y-126676304D02*
X193519750Y-126676304D01*
X193519750Y-126676304D02*
X193710226Y-126771542D01*
X193710226Y-126771542D02*
X193805464Y-126866780D01*
X193805464Y-126866780D02*
X193900702Y-127057257D01*
X193900702Y-127057257D02*
X193900702Y-127628685D01*
X193900702Y-127628685D02*
X193805464Y-127819161D01*
X193805464Y-127819161D02*
X193710226Y-127914400D01*
X193710226Y-127914400D02*
X193519750Y-128009638D01*
X193519750Y-128009638D02*
X193138797Y-128009638D01*
X193138797Y-128009638D02*
X192948321Y-127914400D01*
X195043559Y-128009638D02*
X194853083Y-127914400D01*
X194853083Y-127914400D02*
X194757845Y-127819161D01*
X194757845Y-127819161D02*
X194662607Y-127628685D01*
X194662607Y-127628685D02*
X194662607Y-127057257D01*
X194662607Y-127057257D02*
X194757845Y-126866780D01*
X194757845Y-126866780D02*
X194853083Y-126771542D01*
X194853083Y-126771542D02*
X195043559Y-126676304D01*
X195043559Y-126676304D02*
X195329274Y-126676304D01*
X195329274Y-126676304D02*
X195519750Y-126771542D01*
X195519750Y-126771542D02*
X195614988Y-126866780D01*
X195614988Y-126866780D02*
X195710226Y-127057257D01*
X195710226Y-127057257D02*
X195710226Y-127628685D01*
X195710226Y-127628685D02*
X195614988Y-127819161D01*
X195614988Y-127819161D02*
X195519750Y-127914400D01*
X195519750Y-127914400D02*
X195329274Y-128009638D01*
X195329274Y-128009638D02*
X195043559Y-128009638D01*
X197424512Y-128009638D02*
X197424512Y-126962019D01*
X197424512Y-126962019D02*
X197329274Y-126771542D01*
X197329274Y-126771542D02*
X197138798Y-126676304D01*
X197138798Y-126676304D02*
X196757845Y-126676304D01*
X196757845Y-126676304D02*
X196567369Y-126771542D01*
X197424512Y-127914400D02*
X197234036Y-128009638D01*
X197234036Y-128009638D02*
X196757845Y-128009638D01*
X196757845Y-128009638D02*
X196567369Y-127914400D01*
X196567369Y-127914400D02*
X196472131Y-127723923D01*
X196472131Y-127723923D02*
X196472131Y-127533447D01*
X196472131Y-127533447D02*
X196567369Y-127342971D01*
X196567369Y-127342971D02*
X196757845Y-127247733D01*
X196757845Y-127247733D02*
X197234036Y-127247733D01*
X197234036Y-127247733D02*
X197424512Y-127152495D01*
X198376893Y-128009638D02*
X198376893Y-126676304D01*
X198376893Y-127057257D02*
X198472131Y-126866780D01*
X198472131Y-126866780D02*
X198567369Y-126771542D01*
X198567369Y-126771542D02*
X198757845Y-126676304D01*
X198757845Y-126676304D02*
X198948322Y-126676304D01*
X200472131Y-128009638D02*
X200472131Y-126009638D01*
X200472131Y-127914400D02*
X200281655Y-128009638D01*
X200281655Y-128009638D02*
X199900702Y-128009638D01*
X199900702Y-128009638D02*
X199710226Y-127914400D01*
X199710226Y-127914400D02*
X199614988Y-127819161D01*
X199614988Y-127819161D02*
X199519750Y-127628685D01*
X199519750Y-127628685D02*
X199519750Y-127057257D01*
X199519750Y-127057257D02*
X199614988Y-126866780D01*
X199614988Y-126866780D02*
X199710226Y-126771542D01*
X199710226Y-126771542D02*
X199900702Y-126676304D01*
X199900702Y-126676304D02*
X200281655Y-126676304D01*
X200281655Y-126676304D02*
X200472131Y-126771542D01*
D17*
%TO.P,J13,1,Pin_1*%
%TO.N,GND*%
X140970000Y-109220000D03*
D18*
%TO.P,J13,2,Pin_2*%
%TO.N,+5V*%
X143510000Y-109220000D03*
%TD*%
D17*
%TO.P,SW2,1,1*%
%TO.N,GND*%
X194310000Y-83820000D03*
D18*
%TO.P,SW2,2,2*%
%TO.N,Net-(A1-A6)*%
X194310000Y-86360000D03*
%TD*%
D17*
%TO.P,J9,1,Pin_1*%
%TO.N,Net-(J9-Pin_1)*%
X196850000Y-117680000D03*
D18*
%TO.P,J9,2,Pin_2*%
%TO.N,Net-(J9-Pin_2)*%
X194310000Y-117680000D03*
%TO.P,J9,3,Pin_3*%
%TO.N,Net-(J9-Pin_3)*%
X191770000Y-117680000D03*
%TO.P,J9,4,Pin_4*%
%TO.N,Net-(J9-Pin_4)*%
X189230000Y-117680000D03*
%TD*%
D17*
%TO.P,J11,1,Pin_1*%
%TO.N,Net-(A1-D10)*%
X147345000Y-109235000D03*
D18*
%TO.P,J11,2,Pin_2*%
%TO.N,Net-(A1-D11)*%
X147345000Y-111775000D03*
%TO.P,J11,3,Pin_3*%
%TO.N,Net-(A1-D12)*%
X147345000Y-114315000D03*
%TD*%
D17*
%TO.P,SW1,1,1*%
%TO.N,Net-(A1-~{RESET}-Pad3)*%
X152400000Y-74930000D03*
D18*
%TO.P,SW1,2,2*%
%TO.N,GND*%
X149860000Y-74930000D03*
%TD*%
D17*
%TO.P,J1,1,Pin_1*%
%TO.N,Net-(A1-D4)*%
X147320000Y-87630000D03*
D18*
%TO.P,J1,2,Pin_2*%
%TO.N,Net-(A1-D5)*%
X147320000Y-90170000D03*
%TO.P,J1,3,Pin_3*%
%TO.N,+5V*%
X144780000Y-87630000D03*
%TO.P,J1,4,Pin_4*%
X144780000Y-90170000D03*
%TO.P,J1,5,Pin_5*%
%TO.N,GND*%
X142240000Y-87630000D03*
%TO.P,J1,6,Pin_6*%
X142240000Y-90170000D03*
%TD*%
D17*
%TO.P,J2,1,Pin_1*%
%TO.N,Net-(A1-D6)*%
X147305000Y-93980000D03*
D18*
%TO.P,J2,2,Pin_2*%
%TO.N,+5V*%
X144765000Y-93980000D03*
%TO.P,J2,3,Pin_3*%
%TO.N,GND*%
X142225000Y-93980000D03*
%TD*%
D17*
%TO.P,J5,1,Pin_1*%
%TO.N,Net-(A1-D9)*%
X147305000Y-105410000D03*
D18*
%TO.P,J5,2,Pin_2*%
%TO.N,+5V*%
X144765000Y-105410000D03*
%TO.P,J5,3,Pin_3*%
%TO.N,GND*%
X142225000Y-105410000D03*
%TD*%
D17*
%TO.P,J8,1,Pin_1*%
%TO.N,Net-(J8-Pin_1)*%
X196840000Y-91010000D03*
D18*
%TO.P,J8,2,Pin_2*%
%TO.N,Net-(J8-Pin_2)*%
X194300000Y-91010000D03*
%TO.P,J8,3,Pin_3*%
%TO.N,Net-(J8-Pin_3)*%
X191760000Y-91010000D03*
%TO.P,J8,4,Pin_4*%
%TO.N,Net-(J8-Pin_4)*%
X189220000Y-91010000D03*
%TD*%
D19*
%TO.P,U3,1,Vcc*%
%TO.N,GND*%
X181610000Y-111760000D03*
D20*
%TO.P,U3,2,Dir_B*%
%TO.N,Net-(A1-A0)*%
X184150000Y-111760000D03*
%TO.P,U3,3,Step_B*%
%TO.N,Net-(A1-D13)*%
X186690000Y-111760000D03*
%TO.P,U3,4,Mot_A3*%
%TO.N,Net-(J9-Pin_4)*%
X189230000Y-111760000D03*
%TO.P,U3,5,Mot_A4*%
%TO.N,Net-(J9-Pin_3)*%
X191770000Y-111760000D03*
%TO.P,U3,6,Mot_A2*%
%TO.N,Net-(J9-Pin_2)*%
X194310000Y-111760000D03*
%TO.P,U3,7,Mot_A1*%
%TO.N,Net-(J9-Pin_1)*%
X196850000Y-111760000D03*
%TO.P,U3,8,Mot_D1*%
%TO.N,Net-(J6-Pin_1)*%
X199390000Y-111760000D03*
%TO.P,U3,9,Mot_D2*%
%TO.N,Net-(J6-Pin_2)*%
X201930000Y-111760000D03*
%TO.P,U3,10,Mot_D4*%
%TO.N,Net-(J6-Pin_3)*%
X204470000Y-111760000D03*
%TO.P,U3,11,Mot_D3*%
%TO.N,Net-(J6-Pin_4)*%
X207010000Y-111760000D03*
%TO.P,U3,12,Vss*%
%TO.N,+5V*%
X209550000Y-111760000D03*
%TO.P,U3,13,Dir_C*%
%TO.N,Net-(A1-A1)*%
X212090000Y-111760000D03*
%TO.P,U3,14,Step_C*%
%TO.N,Net-(A1-A2)*%
X214630000Y-111760000D03*
%TO.P,U3,15,Vcc*%
%TO.N,GND*%
X214630000Y-96520000D03*
%TO.P,U3,16,Dir_D*%
%TO.N,unconnected-(U3-Dir_D-Pad16)*%
X212090000Y-96520000D03*
%TO.P,U3,17,Step_D*%
%TO.N,unconnected-(U3-Step_D-Pad17)*%
X209550000Y-96520000D03*
%TO.P,U3,18,Mot_C3*%
%TO.N,Net-(J7-Pin_4)*%
X207010000Y-96520000D03*
%TO.P,U3,19,Mot_C4*%
%TO.N,Net-(J7-Pin_3)*%
X204470000Y-96520000D03*
%TO.P,U3,20,Mot_C2*%
%TO.N,Net-(J7-Pin_2)*%
X201930000Y-96520000D03*
%TO.P,U3,21,Mot_C1*%
%TO.N,Net-(J7-Pin_1)*%
X199390000Y-96520000D03*
%TO.P,U3,22,Mot_B1*%
%TO.N,Net-(J8-Pin_1)*%
X196850000Y-96520000D03*
%TO.P,U3,23,Mot_B2*%
%TO.N,Net-(J8-Pin_2)*%
X194310000Y-96520000D03*
%TO.P,U3,24,Mot_B4*%
%TO.N,Net-(J8-Pin_3)*%
X191770000Y-96520000D03*
%TO.P,U3,25,Mot_B3*%
%TO.N,Net-(J8-Pin_4)*%
X189230000Y-96520000D03*
%TO.P,U3,26,Reset*%
%TO.N,Net-(A1-A3)*%
X186690000Y-96520000D03*
%TO.P,U3,27,Dir_A*%
%TO.N,Net-(A1-A4)*%
X184150000Y-96520000D03*
%TO.P,U3,28,Step_A*%
%TO.N,Net-(A1-A5)*%
X181610000Y-96520000D03*
%TD*%
D17*
%TO.P,J7,1,Pin_1*%
%TO.N,Net-(J7-Pin_1)*%
X200660000Y-91010000D03*
D18*
%TO.P,J7,2,Pin_2*%
%TO.N,Net-(J7-Pin_2)*%
X203200000Y-91010000D03*
%TO.P,J7,3,Pin_3*%
%TO.N,Net-(J7-Pin_3)*%
X205740000Y-91010000D03*
%TO.P,J7,4,Pin_4*%
%TO.N,Net-(J7-Pin_4)*%
X208280000Y-91010000D03*
%TD*%
D17*
%TO.P,J4,1,Pin_1*%
%TO.N,Net-(A1-D8)*%
X147320000Y-101600000D03*
D18*
%TO.P,J4,2,Pin_2*%
%TO.N,+5V*%
X144780000Y-101600000D03*
%TO.P,J4,3,Pin_3*%
%TO.N,GND*%
X142240000Y-101600000D03*
%TD*%
D17*
%TO.P,J3,1,Pin_1*%
%TO.N,Net-(A1-D7)*%
X147305000Y-97790000D03*
D18*
%TO.P,J3,2,Pin_2*%
%TO.N,+5V*%
X144765000Y-97790000D03*
%TO.P,J3,3,Pin_3*%
%TO.N,GND*%
X142225000Y-97790000D03*
%TD*%
D19*
%TO.P,A1,1,D1/TX*%
%TO.N,unconnected-(A1-D1{slash}TX-Pad1)*%
X158750000Y-77470000D03*
D20*
%TO.P,A1,2,D0/RX*%
%TO.N,unconnected-(A1-D0{slash}RX-Pad2)*%
X158750000Y-80010000D03*
%TO.P,A1,3,~{RESET}*%
%TO.N,Net-(A1-~{RESET}-Pad3)*%
X158750000Y-82550000D03*
%TO.P,A1,4,GND*%
%TO.N,GND*%
X158750000Y-85090000D03*
%TO.P,A1,5,D2*%
%TO.N,Net-(A1-D2)*%
X158750000Y-87630000D03*
%TO.P,A1,6,D3*%
%TO.N,Net-(A1-D3)*%
X158750000Y-90170000D03*
%TO.P,A1,7,D4*%
%TO.N,Net-(A1-D4)*%
X158750000Y-92710000D03*
%TO.P,A1,8,D5*%
%TO.N,Net-(A1-D5)*%
X158750000Y-95250000D03*
%TO.P,A1,9,D6*%
%TO.N,Net-(A1-D6)*%
X158750000Y-97790000D03*
%TO.P,A1,10,D7*%
%TO.N,Net-(A1-D7)*%
X158750000Y-100330000D03*
%TO.P,A1,11,D8*%
%TO.N,Net-(A1-D8)*%
X158750000Y-102870000D03*
%TO.P,A1,12,D9*%
%TO.N,Net-(A1-D9)*%
X158750000Y-105410000D03*
%TO.P,A1,13,D10*%
%TO.N,Net-(A1-D10)*%
X158750000Y-107950000D03*
%TO.P,A1,14,D11*%
%TO.N,Net-(A1-D11)*%
X158750000Y-110490000D03*
%TO.P,A1,15,D12*%
%TO.N,Net-(A1-D12)*%
X158750000Y-113030000D03*
%TO.P,A1,16,D13*%
%TO.N,Net-(A1-D13)*%
X173990000Y-113030000D03*
%TO.P,A1,17,3V3*%
%TO.N,unconnected-(A1-3V3-Pad17)*%
X173990000Y-110490000D03*
%TO.P,A1,18,AREF*%
%TO.N,unconnected-(A1-AREF-Pad18)*%
X173990000Y-107950000D03*
%TO.P,A1,19,A0*%
%TO.N,Net-(A1-A0)*%
X173990000Y-105410000D03*
%TO.P,A1,20,A1*%
%TO.N,Net-(A1-A1)*%
X173990000Y-102870000D03*
%TO.P,A1,21,A2*%
%TO.N,Net-(A1-A2)*%
X173990000Y-100330000D03*
%TO.P,A1,22,A3*%
%TO.N,Net-(A1-A3)*%
X173990000Y-97790000D03*
%TO.P,A1,23,A4*%
%TO.N,Net-(A1-A4)*%
X173990000Y-95250000D03*
%TO.P,A1,24,A5*%
%TO.N,Net-(A1-A5)*%
X173990000Y-92710000D03*
%TO.P,A1,25,A6*%
%TO.N,Net-(A1-A6)*%
X173990000Y-90170000D03*
%TO.P,A1,26,A7*%
%TO.N,Net-(A1-A7)*%
X173990000Y-87630000D03*
%TO.P,A1,27,+5V*%
%TO.N,unconnected-(A1-+5V-Pad27)*%
X173990000Y-85090000D03*
%TO.P,A1,28,~{RESET}*%
%TO.N,unconnected-(A1-~{RESET}-Pad28)*%
X173990000Y-82550000D03*
%TO.P,A1,29,GND*%
%TO.N,GND*%
X173990000Y-80010000D03*
%TO.P,A1,30,VIN*%
%TO.N,unconnected-(A1-VIN-Pad30)*%
X173990000Y-77470000D03*
%TD*%
D17*
%TO.P,J10,1,Pin_1*%
%TO.N,Net-(A1-D2)*%
X147305000Y-81275000D03*
D18*
%TO.P,J10,2,Pin_2*%
%TO.N,Net-(A1-D3)*%
X147305000Y-83815000D03*
%TO.P,J10,3,Pin_3*%
%TO.N,+5V*%
X144765000Y-81275000D03*
%TO.P,J10,4,Pin_4*%
X144765000Y-83815000D03*
%TO.P,J10,5,Pin_5*%
%TO.N,GND*%
X142225000Y-81275000D03*
%TO.P,J10,6,Pin_6*%
X142225000Y-83815000D03*
%TD*%
D17*
%TO.P,SW3,1,1*%
%TO.N,GND*%
X189230000Y-83820000D03*
D18*
%TO.P,SW3,2,2*%
%TO.N,Net-(A1-A7)*%
X189230000Y-86360000D03*
%TD*%
D17*
%TO.P,J12,1,Pin_1*%
%TO.N,GND*%
X151130000Y-123190000D03*
D18*
%TO.P,J12,2,Pin_2*%
%TO.N,+5V*%
X153670000Y-123190000D03*
%TD*%
D17*
%TO.P,J6,1,Pin_1*%
%TO.N,Net-(J6-Pin_1)*%
X200660000Y-117680000D03*
D18*
%TO.P,J6,2,Pin_2*%
%TO.N,Net-(J6-Pin_2)*%
X203200000Y-117680000D03*
%TO.P,J6,3,Pin_3*%
%TO.N,Net-(J6-Pin_3)*%
X205740000Y-117680000D03*
%TO.P,J6,4,Pin_4*%
%TO.N,Net-(J6-Pin_4)*%
X208280000Y-117680000D03*
%TD*%
M02*
