%TF.GenerationSoftware,KiCad,Pcbnew,7.0.5-7.0.5~ubuntu20.04.1*%
%TF.CreationDate,2023-06-15T15:54:19+02:00*%
%TF.ProjectId,nanoRIghtAux,6e616e6f-5249-4676-9874-4175782e6b69,rev?*%
%TF.SameCoordinates,Original*%
%TF.FileFunction,Copper,L2,Bot*%
%TF.FilePolarity,Positive*%
%FSLAX46Y46*%
G04 Gerber Fmt 4.6, Leading zero omitted, Abs format (unit mm)*
G04 Created by KiCad (PCBNEW 7.0.5-7.0.5~ubuntu20.04.1) date 2023-06-15 15:54:19*
%MOMM*%
%LPD*%
G01*
G04 APERTURE LIST*
%TA.AperFunction,ComponentPad*%
%ADD10R,1.700000X1.700000*%
%TD*%
%TA.AperFunction,ComponentPad*%
%ADD11O,1.700000X1.700000*%
%TD*%
%TA.AperFunction,ComponentPad*%
%ADD12R,1.600000X1.600000*%
%TD*%
%TA.AperFunction,ComponentPad*%
%ADD13O,1.600000X1.600000*%
%TD*%
%TA.AperFunction,Conductor*%
%ADD14C,0.250000*%
%TD*%
G04 APERTURE END LIST*
D10*
%TO.P,J13,1,Pin_1*%
%TO.N,GND*%
X140970000Y-109220000D03*
D11*
%TO.P,J13,2,Pin_2*%
%TO.N,+5V*%
X143510000Y-109220000D03*
%TD*%
D10*
%TO.P,SW2,1,1*%
%TO.N,GND*%
X194310000Y-83820000D03*
D11*
%TO.P,SW2,2,2*%
%TO.N,Net-(A1-A6)*%
X194310000Y-86360000D03*
%TD*%
D10*
%TO.P,J9,1,Pin_1*%
%TO.N,Net-(J9-Pin_1)*%
X196850000Y-117680000D03*
D11*
%TO.P,J9,2,Pin_2*%
%TO.N,Net-(J9-Pin_2)*%
X194310000Y-117680000D03*
%TO.P,J9,3,Pin_3*%
%TO.N,Net-(J9-Pin_3)*%
X191770000Y-117680000D03*
%TO.P,J9,4,Pin_4*%
%TO.N,Net-(J9-Pin_4)*%
X189230000Y-117680000D03*
%TD*%
D10*
%TO.P,J11,1,Pin_1*%
%TO.N,Net-(A1-D10)*%
X147345000Y-109235000D03*
D11*
%TO.P,J11,2,Pin_2*%
%TO.N,Net-(A1-D11)*%
X147345000Y-111775000D03*
%TO.P,J11,3,Pin_3*%
%TO.N,Net-(A1-D12)*%
X147345000Y-114315000D03*
%TD*%
D10*
%TO.P,SW1,1,1*%
%TO.N,Net-(A1-~{RESET}-Pad3)*%
X152400000Y-74930000D03*
D11*
%TO.P,SW1,2,2*%
%TO.N,GND*%
X149860000Y-74930000D03*
%TD*%
D10*
%TO.P,J1,1,Pin_1*%
%TO.N,Net-(A1-D4)*%
X147320000Y-87630000D03*
D11*
%TO.P,J1,2,Pin_2*%
%TO.N,Net-(A1-D5)*%
X147320000Y-90170000D03*
%TO.P,J1,3,Pin_3*%
%TO.N,+5V*%
X144780000Y-87630000D03*
%TO.P,J1,4,Pin_4*%
X144780000Y-90170000D03*
%TO.P,J1,5,Pin_5*%
%TO.N,GND*%
X142240000Y-87630000D03*
%TO.P,J1,6,Pin_6*%
X142240000Y-90170000D03*
%TD*%
D10*
%TO.P,J2,1,Pin_1*%
%TO.N,Net-(A1-D6)*%
X147305000Y-93980000D03*
D11*
%TO.P,J2,2,Pin_2*%
%TO.N,+5V*%
X144765000Y-93980000D03*
%TO.P,J2,3,Pin_3*%
%TO.N,GND*%
X142225000Y-93980000D03*
%TD*%
D10*
%TO.P,J5,1,Pin_1*%
%TO.N,Net-(A1-D9)*%
X147305000Y-105410000D03*
D11*
%TO.P,J5,2,Pin_2*%
%TO.N,+5V*%
X144765000Y-105410000D03*
%TO.P,J5,3,Pin_3*%
%TO.N,GND*%
X142225000Y-105410000D03*
%TD*%
D10*
%TO.P,J8,1,Pin_1*%
%TO.N,Net-(J8-Pin_1)*%
X196840000Y-91010000D03*
D11*
%TO.P,J8,2,Pin_2*%
%TO.N,Net-(J8-Pin_2)*%
X194300000Y-91010000D03*
%TO.P,J8,3,Pin_3*%
%TO.N,Net-(J8-Pin_3)*%
X191760000Y-91010000D03*
%TO.P,J8,4,Pin_4*%
%TO.N,Net-(J8-Pin_4)*%
X189220000Y-91010000D03*
%TD*%
D12*
%TO.P,U3,1,Vcc*%
%TO.N,GND*%
X181610000Y-111760000D03*
D13*
%TO.P,U3,2,Dir_B*%
%TO.N,Net-(A1-A0)*%
X184150000Y-111760000D03*
%TO.P,U3,3,Step_B*%
%TO.N,Net-(A1-D13)*%
X186690000Y-111760000D03*
%TO.P,U3,4,Mot_A3*%
%TO.N,Net-(J9-Pin_4)*%
X189230000Y-111760000D03*
%TO.P,U3,5,Mot_A4*%
%TO.N,Net-(J9-Pin_3)*%
X191770000Y-111760000D03*
%TO.P,U3,6,Mot_A2*%
%TO.N,Net-(J9-Pin_2)*%
X194310000Y-111760000D03*
%TO.P,U3,7,Mot_A1*%
%TO.N,Net-(J9-Pin_1)*%
X196850000Y-111760000D03*
%TO.P,U3,8,Mot_D1*%
%TO.N,Net-(J6-Pin_1)*%
X199390000Y-111760000D03*
%TO.P,U3,9,Mot_D2*%
%TO.N,Net-(J6-Pin_2)*%
X201930000Y-111760000D03*
%TO.P,U3,10,Mot_D4*%
%TO.N,Net-(J6-Pin_3)*%
X204470000Y-111760000D03*
%TO.P,U3,11,Mot_D3*%
%TO.N,Net-(J6-Pin_4)*%
X207010000Y-111760000D03*
%TO.P,U3,12,Vss*%
%TO.N,+5V*%
X209550000Y-111760000D03*
%TO.P,U3,13,Dir_C*%
%TO.N,Net-(A1-A1)*%
X212090000Y-111760000D03*
%TO.P,U3,14,Step_C*%
%TO.N,Net-(A1-A2)*%
X214630000Y-111760000D03*
%TO.P,U3,15,Vcc*%
%TO.N,GND*%
X214630000Y-96520000D03*
%TO.P,U3,16,Dir_D*%
%TO.N,unconnected-(U3-Dir_D-Pad16)*%
X212090000Y-96520000D03*
%TO.P,U3,17,Step_D*%
%TO.N,unconnected-(U3-Step_D-Pad17)*%
X209550000Y-96520000D03*
%TO.P,U3,18,Mot_C3*%
%TO.N,Net-(J7-Pin_4)*%
X207010000Y-96520000D03*
%TO.P,U3,19,Mot_C4*%
%TO.N,Net-(J7-Pin_3)*%
X204470000Y-96520000D03*
%TO.P,U3,20,Mot_C2*%
%TO.N,Net-(J7-Pin_2)*%
X201930000Y-96520000D03*
%TO.P,U3,21,Mot_C1*%
%TO.N,Net-(J7-Pin_1)*%
X199390000Y-96520000D03*
%TO.P,U3,22,Mot_B1*%
%TO.N,Net-(J8-Pin_1)*%
X196850000Y-96520000D03*
%TO.P,U3,23,Mot_B2*%
%TO.N,Net-(J8-Pin_2)*%
X194310000Y-96520000D03*
%TO.P,U3,24,Mot_B4*%
%TO.N,Net-(J8-Pin_3)*%
X191770000Y-96520000D03*
%TO.P,U3,25,Mot_B3*%
%TO.N,Net-(J8-Pin_4)*%
X189230000Y-96520000D03*
%TO.P,U3,26,Reset*%
%TO.N,Net-(A1-A3)*%
X186690000Y-96520000D03*
%TO.P,U3,27,Dir_A*%
%TO.N,Net-(A1-A4)*%
X184150000Y-96520000D03*
%TO.P,U3,28,Step_A*%
%TO.N,Net-(A1-A5)*%
X181610000Y-96520000D03*
%TD*%
D10*
%TO.P,J7,1,Pin_1*%
%TO.N,Net-(J7-Pin_1)*%
X200660000Y-91010000D03*
D11*
%TO.P,J7,2,Pin_2*%
%TO.N,Net-(J7-Pin_2)*%
X203200000Y-91010000D03*
%TO.P,J7,3,Pin_3*%
%TO.N,Net-(J7-Pin_3)*%
X205740000Y-91010000D03*
%TO.P,J7,4,Pin_4*%
%TO.N,Net-(J7-Pin_4)*%
X208280000Y-91010000D03*
%TD*%
D10*
%TO.P,J4,1,Pin_1*%
%TO.N,Net-(A1-D8)*%
X147320000Y-101600000D03*
D11*
%TO.P,J4,2,Pin_2*%
%TO.N,+5V*%
X144780000Y-101600000D03*
%TO.P,J4,3,Pin_3*%
%TO.N,GND*%
X142240000Y-101600000D03*
%TD*%
D10*
%TO.P,J3,1,Pin_1*%
%TO.N,Net-(A1-D7)*%
X147305000Y-97790000D03*
D11*
%TO.P,J3,2,Pin_2*%
%TO.N,+5V*%
X144765000Y-97790000D03*
%TO.P,J3,3,Pin_3*%
%TO.N,GND*%
X142225000Y-97790000D03*
%TD*%
D12*
%TO.P,A1,1,D1/TX*%
%TO.N,unconnected-(A1-D1{slash}TX-Pad1)*%
X158750000Y-77470000D03*
D13*
%TO.P,A1,2,D0/RX*%
%TO.N,unconnected-(A1-D0{slash}RX-Pad2)*%
X158750000Y-80010000D03*
%TO.P,A1,3,~{RESET}*%
%TO.N,Net-(A1-~{RESET}-Pad3)*%
X158750000Y-82550000D03*
%TO.P,A1,4,GND*%
%TO.N,GND*%
X158750000Y-85090000D03*
%TO.P,A1,5,D2*%
%TO.N,Net-(A1-D2)*%
X158750000Y-87630000D03*
%TO.P,A1,6,D3*%
%TO.N,Net-(A1-D3)*%
X158750000Y-90170000D03*
%TO.P,A1,7,D4*%
%TO.N,Net-(A1-D4)*%
X158750000Y-92710000D03*
%TO.P,A1,8,D5*%
%TO.N,Net-(A1-D5)*%
X158750000Y-95250000D03*
%TO.P,A1,9,D6*%
%TO.N,Net-(A1-D6)*%
X158750000Y-97790000D03*
%TO.P,A1,10,D7*%
%TO.N,Net-(A1-D7)*%
X158750000Y-100330000D03*
%TO.P,A1,11,D8*%
%TO.N,Net-(A1-D8)*%
X158750000Y-102870000D03*
%TO.P,A1,12,D9*%
%TO.N,Net-(A1-D9)*%
X158750000Y-105410000D03*
%TO.P,A1,13,D10*%
%TO.N,Net-(A1-D10)*%
X158750000Y-107950000D03*
%TO.P,A1,14,D11*%
%TO.N,Net-(A1-D11)*%
X158750000Y-110490000D03*
%TO.P,A1,15,D12*%
%TO.N,Net-(A1-D12)*%
X158750000Y-113030000D03*
%TO.P,A1,16,D13*%
%TO.N,Net-(A1-D13)*%
X173990000Y-113030000D03*
%TO.P,A1,17,3V3*%
%TO.N,unconnected-(A1-3V3-Pad17)*%
X173990000Y-110490000D03*
%TO.P,A1,18,AREF*%
%TO.N,unconnected-(A1-AREF-Pad18)*%
X173990000Y-107950000D03*
%TO.P,A1,19,A0*%
%TO.N,Net-(A1-A0)*%
X173990000Y-105410000D03*
%TO.P,A1,20,A1*%
%TO.N,Net-(A1-A1)*%
X173990000Y-102870000D03*
%TO.P,A1,21,A2*%
%TO.N,Net-(A1-A2)*%
X173990000Y-100330000D03*
%TO.P,A1,22,A3*%
%TO.N,Net-(A1-A3)*%
X173990000Y-97790000D03*
%TO.P,A1,23,A4*%
%TO.N,Net-(A1-A4)*%
X173990000Y-95250000D03*
%TO.P,A1,24,A5*%
%TO.N,Net-(A1-A5)*%
X173990000Y-92710000D03*
%TO.P,A1,25,A6*%
%TO.N,Net-(A1-A6)*%
X173990000Y-90170000D03*
%TO.P,A1,26,A7*%
%TO.N,Net-(A1-A7)*%
X173990000Y-87630000D03*
%TO.P,A1,27,+5V*%
%TO.N,unconnected-(A1-+5V-Pad27)*%
X173990000Y-85090000D03*
%TO.P,A1,28,~{RESET}*%
%TO.N,unconnected-(A1-~{RESET}-Pad28)*%
X173990000Y-82550000D03*
%TO.P,A1,29,GND*%
%TO.N,GND*%
X173990000Y-80010000D03*
%TO.P,A1,30,VIN*%
%TO.N,unconnected-(A1-VIN-Pad30)*%
X173990000Y-77470000D03*
%TD*%
D10*
%TO.P,J10,1,Pin_1*%
%TO.N,Net-(A1-D2)*%
X147305000Y-81275000D03*
D11*
%TO.P,J10,2,Pin_2*%
%TO.N,Net-(A1-D3)*%
X147305000Y-83815000D03*
%TO.P,J10,3,Pin_3*%
%TO.N,+5V*%
X144765000Y-81275000D03*
%TO.P,J10,4,Pin_4*%
X144765000Y-83815000D03*
%TO.P,J10,5,Pin_5*%
%TO.N,GND*%
X142225000Y-81275000D03*
%TO.P,J10,6,Pin_6*%
X142225000Y-83815000D03*
%TD*%
D10*
%TO.P,SW3,1,1*%
%TO.N,GND*%
X189230000Y-83820000D03*
D11*
%TO.P,SW3,2,2*%
%TO.N,Net-(A1-A7)*%
X189230000Y-86360000D03*
%TD*%
D10*
%TO.P,J12,1,Pin_1*%
%TO.N,GND*%
X151130000Y-123190000D03*
D11*
%TO.P,J12,2,Pin_2*%
%TO.N,+5V*%
X153670000Y-123190000D03*
%TD*%
D10*
%TO.P,J6,1,Pin_1*%
%TO.N,Net-(J6-Pin_1)*%
X200660000Y-117680000D03*
D11*
%TO.P,J6,2,Pin_2*%
%TO.N,Net-(J6-Pin_2)*%
X203200000Y-117680000D03*
%TO.P,J6,3,Pin_3*%
%TO.N,Net-(J6-Pin_3)*%
X205740000Y-117680000D03*
%TO.P,J6,4,Pin_4*%
%TO.N,Net-(J6-Pin_4)*%
X208280000Y-117680000D03*
%TD*%
D14*
%TO.N,Net-(A1-~{RESET}-Pad3)*%
X162560000Y-74930000D02*
X165100000Y-77470000D01*
X152400000Y-74930000D02*
X162560000Y-74930000D01*
X165100000Y-77470000D02*
X165100000Y-80010000D01*
X165100000Y-80010000D02*
X162560000Y-82550000D01*
X162560000Y-82550000D02*
X158750000Y-82550000D01*
%TO.N,Net-(A1-D2)*%
X157480000Y-87630000D02*
X158750000Y-87630000D01*
X147305000Y-81275000D02*
X151125000Y-81275000D01*
X151125000Y-81275000D02*
X157480000Y-87630000D01*
%TO.N,Net-(A1-D3)*%
X156210000Y-90170000D02*
X158750000Y-90170000D01*
X147305000Y-83815000D02*
X149855000Y-83815000D01*
X149855000Y-83815000D02*
X156210000Y-90170000D01*
%TO.N,Net-(A1-D4)*%
X149860000Y-87630000D02*
X154940000Y-92710000D01*
X147320000Y-87630000D02*
X149860000Y-87630000D01*
X154940000Y-92710000D02*
X158750000Y-92710000D01*
%TO.N,Net-(A1-D5)*%
X148590000Y-90170000D02*
X153670000Y-95250000D01*
X153670000Y-95250000D02*
X158750000Y-95250000D01*
X147320000Y-90170000D02*
X148590000Y-90170000D01*
%TO.N,Net-(A1-D6)*%
X148590000Y-93980000D02*
X152400000Y-97790000D01*
X147305000Y-93980000D02*
X148590000Y-93980000D01*
X152400000Y-97790000D02*
X158750000Y-97790000D01*
%TO.N,Net-(A1-D7)*%
X147305000Y-97790000D02*
X148590000Y-97790000D01*
X148590000Y-97790000D02*
X151130000Y-100330000D01*
X151130000Y-100330000D02*
X158750000Y-100330000D01*
%TO.N,Net-(A1-D8)*%
X149860000Y-102870000D02*
X158750000Y-102870000D01*
X147320000Y-101600000D02*
X148590000Y-101600000D01*
X148590000Y-101600000D02*
X149860000Y-102870000D01*
%TO.N,Net-(A1-D9)*%
X147305000Y-105410000D02*
X158750000Y-105410000D01*
%TO.N,Net-(A1-D10)*%
X149860000Y-107950000D02*
X158750000Y-107950000D01*
X148575000Y-109235000D02*
X149860000Y-107950000D01*
X147345000Y-109235000D02*
X148575000Y-109235000D01*
%TO.N,Net-(A1-D11)*%
X147345000Y-111775000D02*
X149845000Y-111775000D01*
X149845000Y-111775000D02*
X151130000Y-110490000D01*
X151130000Y-110490000D02*
X158750000Y-110490000D01*
%TO.N,Net-(A1-D12)*%
X147345000Y-114315000D02*
X151115000Y-114315000D01*
X152400000Y-113030000D02*
X158750000Y-113030000D01*
X151115000Y-114315000D02*
X152400000Y-113030000D01*
%TO.N,+5V*%
X144765000Y-105410000D02*
X144765000Y-81275000D01*
X143510000Y-118110000D02*
X143510000Y-109220000D01*
X209550000Y-114300000D02*
X209550000Y-111760000D01*
X153670000Y-121920000D02*
X151130000Y-119380000D01*
X153670000Y-123190000D02*
X153670000Y-121920000D01*
X144765000Y-106695000D02*
X144765000Y-105410000D01*
X153670000Y-123190000D02*
X209550000Y-123190000D01*
X212090000Y-120650000D02*
X212090000Y-116840000D01*
X151130000Y-119380000D02*
X144780000Y-119380000D01*
X212090000Y-116840000D02*
X209550000Y-114300000D01*
X143510000Y-109220000D02*
X143510000Y-107950000D01*
X209550000Y-123190000D02*
X212090000Y-120650000D01*
X144780000Y-119380000D02*
X143510000Y-118110000D01*
X143510000Y-107950000D02*
X144765000Y-106695000D01*
%TD*%
%TA.AperFunction,Conductor*%
%TO.N,GND*%
G36*
X142490000Y-89734498D02*
G01*
X142382315Y-89685320D01*
X142275763Y-89670000D01*
X142204237Y-89670000D01*
X142097685Y-89685320D01*
X141990000Y-89734498D01*
X141990000Y-88065501D01*
X142097685Y-88114680D01*
X142204237Y-88130000D01*
X142275763Y-88130000D01*
X142382315Y-88114680D01*
X142490000Y-88065501D01*
X142490000Y-89734498D01*
G37*
%TD.AperFunction*%
%TA.AperFunction,Conductor*%
G36*
X142475000Y-83379498D02*
G01*
X142367315Y-83330320D01*
X142260763Y-83315000D01*
X142189237Y-83315000D01*
X142082685Y-83330320D01*
X141975000Y-83379498D01*
X141975000Y-81710501D01*
X142082685Y-81759680D01*
X142189237Y-81775000D01*
X142260763Y-81775000D01*
X142367315Y-81759680D01*
X142475000Y-81710501D01*
X142475000Y-83379498D01*
G37*
%TD.AperFunction*%
%TA.AperFunction,Conductor*%
G36*
X222192539Y-59710185D02*
G01*
X222238294Y-59762989D01*
X222249500Y-59814500D01*
X222249500Y-130685500D01*
X222229815Y-130752539D01*
X222177011Y-130798294D01*
X222125500Y-130809500D01*
X134744500Y-130809500D01*
X134677461Y-130789815D01*
X134631706Y-130737011D01*
X134620500Y-130685500D01*
X134620500Y-127000001D01*
X136424390Y-127000001D01*
X136444804Y-127285433D01*
X136505628Y-127565037D01*
X136605635Y-127833166D01*
X136742770Y-128084309D01*
X136742775Y-128084317D01*
X136914254Y-128313387D01*
X136914270Y-128313405D01*
X137116594Y-128515729D01*
X137116612Y-128515745D01*
X137345682Y-128687224D01*
X137345690Y-128687229D01*
X137596833Y-128824364D01*
X137596832Y-128824364D01*
X137596836Y-128824365D01*
X137596839Y-128824367D01*
X137864954Y-128924369D01*
X137864960Y-128924370D01*
X137864962Y-128924371D01*
X138144566Y-128985195D01*
X138144568Y-128985195D01*
X138144572Y-128985196D01*
X138358552Y-129000500D01*
X138501448Y-129000500D01*
X138715428Y-128985196D01*
X138995046Y-128924369D01*
X139263161Y-128824367D01*
X139514315Y-128687226D01*
X139743395Y-128515739D01*
X139945739Y-128313395D01*
X140117226Y-128084315D01*
X140254367Y-127833161D01*
X140354369Y-127565046D01*
X140415196Y-127285428D01*
X140435610Y-127000001D01*
X216434390Y-127000001D01*
X216454804Y-127285433D01*
X216515628Y-127565037D01*
X216615635Y-127833166D01*
X216752770Y-128084309D01*
X216752775Y-128084317D01*
X216924254Y-128313387D01*
X216924270Y-128313405D01*
X217126594Y-128515729D01*
X217126612Y-128515745D01*
X217355682Y-128687224D01*
X217355690Y-128687229D01*
X217606833Y-128824364D01*
X217606832Y-128824364D01*
X217606836Y-128824365D01*
X217606839Y-128824367D01*
X217874954Y-128924369D01*
X217874960Y-128924370D01*
X217874962Y-128924371D01*
X218154566Y-128985195D01*
X218154568Y-128985195D01*
X218154572Y-128985196D01*
X218368552Y-129000500D01*
X218511448Y-129000500D01*
X218725428Y-128985196D01*
X219005046Y-128924369D01*
X219273161Y-128824367D01*
X219524315Y-128687226D01*
X219753395Y-128515739D01*
X219955739Y-128313395D01*
X220127226Y-128084315D01*
X220264367Y-127833161D01*
X220364369Y-127565046D01*
X220425196Y-127285428D01*
X220445610Y-127000000D01*
X220425196Y-126714572D01*
X220364369Y-126434954D01*
X220264367Y-126166839D01*
X220127226Y-125915685D01*
X220127224Y-125915682D01*
X219955745Y-125686612D01*
X219955729Y-125686594D01*
X219753405Y-125484270D01*
X219753387Y-125484254D01*
X219524317Y-125312775D01*
X219524309Y-125312770D01*
X219273166Y-125175635D01*
X219273167Y-125175635D01*
X219165914Y-125135632D01*
X219005046Y-125075631D01*
X219005043Y-125075630D01*
X219005037Y-125075628D01*
X218725433Y-125014804D01*
X218511450Y-124999500D01*
X218511448Y-124999500D01*
X218368552Y-124999500D01*
X218368549Y-124999500D01*
X218154566Y-125014804D01*
X217874962Y-125075628D01*
X217606833Y-125175635D01*
X217355690Y-125312770D01*
X217355682Y-125312775D01*
X217126612Y-125484254D01*
X217126594Y-125484270D01*
X216924270Y-125686594D01*
X216924254Y-125686612D01*
X216752775Y-125915682D01*
X216752770Y-125915690D01*
X216615635Y-126166833D01*
X216515628Y-126434962D01*
X216454804Y-126714566D01*
X216434390Y-126999998D01*
X216434390Y-127000001D01*
X140435610Y-127000001D01*
X140435610Y-127000000D01*
X140415196Y-126714572D01*
X140354369Y-126434954D01*
X140254367Y-126166839D01*
X140117226Y-125915685D01*
X140117224Y-125915682D01*
X139945745Y-125686612D01*
X139945729Y-125686594D01*
X139743405Y-125484270D01*
X139743387Y-125484254D01*
X139514317Y-125312775D01*
X139514309Y-125312770D01*
X139263166Y-125175635D01*
X139263167Y-125175635D01*
X139155914Y-125135632D01*
X138995046Y-125075631D01*
X138995043Y-125075630D01*
X138995037Y-125075628D01*
X138715433Y-125014804D01*
X138501450Y-124999500D01*
X138501448Y-124999500D01*
X138358552Y-124999500D01*
X138358549Y-124999500D01*
X138144566Y-125014804D01*
X137864962Y-125075628D01*
X137596833Y-125175635D01*
X137345690Y-125312770D01*
X137345682Y-125312775D01*
X137116612Y-125484254D01*
X137116594Y-125484270D01*
X136914270Y-125686594D01*
X136914254Y-125686612D01*
X136742775Y-125915682D01*
X136742770Y-125915690D01*
X136605635Y-126166833D01*
X136505628Y-126434962D01*
X136444804Y-126714566D01*
X136424390Y-126999998D01*
X136424390Y-127000001D01*
X134620500Y-127000001D01*
X134620500Y-110117844D01*
X139620000Y-110117844D01*
X139626401Y-110177372D01*
X139626403Y-110177379D01*
X139676645Y-110312086D01*
X139676649Y-110312093D01*
X139762809Y-110427187D01*
X139762812Y-110427190D01*
X139877906Y-110513350D01*
X139877913Y-110513354D01*
X140012620Y-110563596D01*
X140012627Y-110563598D01*
X140072155Y-110569999D01*
X140072172Y-110570000D01*
X140720000Y-110570000D01*
X140720000Y-109655501D01*
X140827685Y-109704680D01*
X140934237Y-109720000D01*
X141005763Y-109720000D01*
X141112315Y-109704680D01*
X141220000Y-109655501D01*
X141220000Y-110570000D01*
X141867828Y-110570000D01*
X141867844Y-110569999D01*
X141927372Y-110563598D01*
X141927379Y-110563596D01*
X142062086Y-110513354D01*
X142062093Y-110513350D01*
X142177187Y-110427190D01*
X142177190Y-110427187D01*
X142263350Y-110312093D01*
X142263354Y-110312086D01*
X142312422Y-110180529D01*
X142354293Y-110124595D01*
X142419757Y-110100178D01*
X142488030Y-110115030D01*
X142516285Y-110136181D01*
X142638597Y-110258493D01*
X142638603Y-110258498D01*
X142645480Y-110263313D01*
X142831624Y-110393653D01*
X142875248Y-110448228D01*
X142884500Y-110495226D01*
X142884500Y-118027255D01*
X142882775Y-118042872D01*
X142883061Y-118042899D01*
X142882326Y-118050666D01*
X142884469Y-118118846D01*
X142884500Y-118120793D01*
X142884500Y-118149343D01*
X142884501Y-118149360D01*
X142885368Y-118156231D01*
X142885826Y-118162050D01*
X142887290Y-118208624D01*
X142887291Y-118208627D01*
X142892880Y-118227867D01*
X142896824Y-118246911D01*
X142899336Y-118266791D01*
X142916490Y-118310119D01*
X142918382Y-118315647D01*
X142931381Y-118360388D01*
X142941580Y-118377634D01*
X142950138Y-118395103D01*
X142957514Y-118413732D01*
X142984898Y-118451423D01*
X142988106Y-118456307D01*
X143011827Y-118496416D01*
X143011833Y-118496424D01*
X143025990Y-118510580D01*
X143038627Y-118525375D01*
X143050406Y-118541587D01*
X143082416Y-118568068D01*
X143086309Y-118571288D01*
X143090620Y-118575210D01*
X143402954Y-118887544D01*
X144279197Y-119763788D01*
X144289022Y-119776051D01*
X144289243Y-119775869D01*
X144294211Y-119781874D01*
X144343932Y-119828566D01*
X144345332Y-119829923D01*
X144365523Y-119850115D01*
X144365527Y-119850118D01*
X144365529Y-119850120D01*
X144371011Y-119854373D01*
X144375443Y-119858157D01*
X144409418Y-119890062D01*
X144426976Y-119899714D01*
X144443235Y-119910395D01*
X144459064Y-119922673D01*
X144501838Y-119941182D01*
X144507056Y-119943738D01*
X144547908Y-119966197D01*
X144567316Y-119971180D01*
X144585717Y-119977480D01*
X144604104Y-119985437D01*
X144647488Y-119992308D01*
X144650119Y-119992725D01*
X144655839Y-119993909D01*
X144700981Y-120005500D01*
X144721016Y-120005500D01*
X144740414Y-120007026D01*
X144760194Y-120010159D01*
X144760195Y-120010160D01*
X144760195Y-120010159D01*
X144760196Y-120010160D01*
X144806583Y-120005775D01*
X144812422Y-120005500D01*
X150819548Y-120005500D01*
X150886587Y-120025185D01*
X150907229Y-120041819D01*
X152822509Y-121957100D01*
X152855994Y-122018423D01*
X152851010Y-122088115D01*
X152809138Y-122144048D01*
X152805955Y-122146353D01*
X152798601Y-122151502D01*
X152676284Y-122273819D01*
X152614961Y-122307303D01*
X152545269Y-122302319D01*
X152489336Y-122260447D01*
X152472421Y-122229470D01*
X152423354Y-122097913D01*
X152423350Y-122097906D01*
X152337190Y-121982812D01*
X152337187Y-121982809D01*
X152222093Y-121896649D01*
X152222086Y-121896645D01*
X152087379Y-121846403D01*
X152087372Y-121846401D01*
X152027844Y-121840000D01*
X151380000Y-121840000D01*
X151380000Y-122754498D01*
X151272315Y-122705320D01*
X151165763Y-122690000D01*
X151094237Y-122690000D01*
X150987685Y-122705320D01*
X150880000Y-122754498D01*
X150880000Y-121840000D01*
X150232155Y-121840000D01*
X150172627Y-121846401D01*
X150172620Y-121846403D01*
X150037913Y-121896645D01*
X150037906Y-121896649D01*
X149922812Y-121982809D01*
X149922809Y-121982812D01*
X149836649Y-122097906D01*
X149836645Y-122097913D01*
X149786403Y-122232620D01*
X149786401Y-122232627D01*
X149780000Y-122292155D01*
X149780000Y-122940000D01*
X150696314Y-122940000D01*
X150670507Y-122980156D01*
X150630000Y-123118111D01*
X150630000Y-123261889D01*
X150670507Y-123399844D01*
X150696314Y-123440000D01*
X149780000Y-123440000D01*
X149780000Y-124087844D01*
X149786401Y-124147372D01*
X149786403Y-124147379D01*
X149836645Y-124282086D01*
X149836649Y-124282093D01*
X149922809Y-124397187D01*
X149922812Y-124397190D01*
X150037906Y-124483350D01*
X150037913Y-124483354D01*
X150172620Y-124533596D01*
X150172627Y-124533598D01*
X150232155Y-124539999D01*
X150232172Y-124540000D01*
X150880000Y-124540000D01*
X150880000Y-123625501D01*
X150987685Y-123674680D01*
X151094237Y-123690000D01*
X151165763Y-123690000D01*
X151272315Y-123674680D01*
X151380000Y-123625501D01*
X151380000Y-124540000D01*
X152027828Y-124540000D01*
X152027844Y-124539999D01*
X152087372Y-124533598D01*
X152087379Y-124533596D01*
X152222086Y-124483354D01*
X152222093Y-124483350D01*
X152337187Y-124397190D01*
X152337190Y-124397187D01*
X152423350Y-124282093D01*
X152423354Y-124282086D01*
X152472422Y-124150529D01*
X152514293Y-124094595D01*
X152579757Y-124070178D01*
X152648030Y-124085030D01*
X152676285Y-124106181D01*
X152798599Y-124228495D01*
X152875135Y-124282086D01*
X152992165Y-124364032D01*
X152992167Y-124364033D01*
X152992170Y-124364035D01*
X153206337Y-124463903D01*
X153434592Y-124525063D01*
X153605319Y-124540000D01*
X153669999Y-124545659D01*
X153670000Y-124545659D01*
X153670001Y-124545659D01*
X153734681Y-124540000D01*
X153905408Y-124525063D01*
X154133663Y-124463903D01*
X154347830Y-124364035D01*
X154541401Y-124228495D01*
X154708495Y-124061401D01*
X154843651Y-123868377D01*
X154898229Y-123824752D01*
X154945227Y-123815500D01*
X209467257Y-123815500D01*
X209482877Y-123817224D01*
X209482904Y-123816939D01*
X209490666Y-123817673D01*
X209490666Y-123817672D01*
X209490667Y-123817673D01*
X209493999Y-123817568D01*
X209558847Y-123815531D01*
X209560794Y-123815500D01*
X209589347Y-123815500D01*
X209589350Y-123815500D01*
X209596228Y-123814630D01*
X209602041Y-123814172D01*
X209648627Y-123812709D01*
X209667869Y-123807117D01*
X209686912Y-123803174D01*
X209706792Y-123800664D01*
X209750122Y-123783507D01*
X209755646Y-123781617D01*
X209759396Y-123780527D01*
X209800390Y-123768618D01*
X209817629Y-123758422D01*
X209835103Y-123749862D01*
X209853727Y-123742488D01*
X209853727Y-123742487D01*
X209853732Y-123742486D01*
X209891449Y-123715082D01*
X209896305Y-123711892D01*
X209936420Y-123688170D01*
X209950589Y-123673999D01*
X209965379Y-123661368D01*
X209981587Y-123649594D01*
X210011299Y-123613676D01*
X210015212Y-123609376D01*
X212473788Y-121150801D01*
X212486042Y-121140986D01*
X212485859Y-121140764D01*
X212491868Y-121135791D01*
X212491877Y-121135786D01*
X212538607Y-121086022D01*
X212539846Y-121084743D01*
X212560120Y-121064471D01*
X212564379Y-121058978D01*
X212568152Y-121054561D01*
X212600062Y-121020582D01*
X212609713Y-121003024D01*
X212620396Y-120986761D01*
X212632673Y-120970936D01*
X212651185Y-120928153D01*
X212653738Y-120922941D01*
X212676197Y-120882092D01*
X212681180Y-120862680D01*
X212687481Y-120844280D01*
X212695437Y-120825896D01*
X212702729Y-120779852D01*
X212703906Y-120774171D01*
X212715500Y-120729019D01*
X212715500Y-120708982D01*
X212717027Y-120689582D01*
X212720160Y-120669804D01*
X212715775Y-120623415D01*
X212715500Y-120617577D01*
X212715500Y-116922737D01*
X212717224Y-116907123D01*
X212716938Y-116907096D01*
X212717672Y-116899333D01*
X212715531Y-116831170D01*
X212715500Y-116829223D01*
X212715500Y-116800651D01*
X212715500Y-116800650D01*
X212714629Y-116793759D01*
X212714172Y-116787945D01*
X212714066Y-116784581D01*
X212712709Y-116741372D01*
X212707120Y-116722137D01*
X212703174Y-116703084D01*
X212700664Y-116683208D01*
X212683501Y-116639859D01*
X212681614Y-116634346D01*
X212668617Y-116589610D01*
X212668616Y-116589608D01*
X212658421Y-116572369D01*
X212649860Y-116554893D01*
X212642486Y-116536269D01*
X212642486Y-116536267D01*
X212632474Y-116522488D01*
X212615083Y-116498550D01*
X212611900Y-116493705D01*
X212588170Y-116453579D01*
X212588165Y-116453573D01*
X212574005Y-116439413D01*
X212561370Y-116424620D01*
X212549593Y-116408412D01*
X212513693Y-116378713D01*
X212509381Y-116374790D01*
X210211819Y-114077227D01*
X210178334Y-114015904D01*
X210175500Y-113989546D01*
X210175500Y-112974188D01*
X210195185Y-112907149D01*
X210228377Y-112872613D01*
X210312802Y-112813498D01*
X210389139Y-112760047D01*
X210550047Y-112599139D01*
X210680568Y-112412734D01*
X210707618Y-112354724D01*
X210753790Y-112302285D01*
X210820983Y-112283133D01*
X210887865Y-112303348D01*
X210932382Y-112354725D01*
X210959429Y-112412728D01*
X210959432Y-112412734D01*
X211089954Y-112599141D01*
X211250858Y-112760045D01*
X211250861Y-112760047D01*
X211437266Y-112890568D01*
X211643504Y-112986739D01*
X211863308Y-113045635D01*
X212025230Y-113059801D01*
X212089998Y-113065468D01*
X212090000Y-113065468D01*
X212090002Y-113065468D01*
X212152511Y-113059999D01*
X212316692Y-113045635D01*
X212536496Y-112986739D01*
X212742734Y-112890568D01*
X212929139Y-112760047D01*
X213090047Y-112599139D01*
X213220568Y-112412734D01*
X213247618Y-112354724D01*
X213293790Y-112302285D01*
X213360983Y-112283133D01*
X213427865Y-112303348D01*
X213472382Y-112354725D01*
X213499429Y-112412728D01*
X213499432Y-112412734D01*
X213629954Y-112599141D01*
X213790858Y-112760045D01*
X213790861Y-112760047D01*
X213977266Y-112890568D01*
X214183504Y-112986739D01*
X214403308Y-113045635D01*
X214565230Y-113059801D01*
X214629998Y-113065468D01*
X214630000Y-113065468D01*
X214630002Y-113065468D01*
X214692511Y-113059999D01*
X214856692Y-113045635D01*
X215076496Y-112986739D01*
X215282734Y-112890568D01*
X215469139Y-112760047D01*
X215630047Y-112599139D01*
X215760568Y-112412734D01*
X215856739Y-112206496D01*
X215915635Y-111986692D01*
X215935468Y-111760000D01*
X215915635Y-111533308D01*
X215856739Y-111313504D01*
X215760568Y-111107266D01*
X215630047Y-110920861D01*
X215630045Y-110920858D01*
X215469141Y-110759954D01*
X215282734Y-110629432D01*
X215282732Y-110629431D01*
X215076497Y-110533261D01*
X215076488Y-110533258D01*
X214856697Y-110474366D01*
X214856693Y-110474365D01*
X214856692Y-110474365D01*
X214856691Y-110474364D01*
X214856686Y-110474364D01*
X214630002Y-110454532D01*
X214629998Y-110454532D01*
X214403313Y-110474364D01*
X214403302Y-110474366D01*
X214183511Y-110533258D01*
X214183502Y-110533261D01*
X213977267Y-110629431D01*
X213977265Y-110629432D01*
X213790858Y-110759954D01*
X213629954Y-110920858D01*
X213499432Y-111107265D01*
X213499430Y-111107268D01*
X213472380Y-111165277D01*
X213426207Y-111217715D01*
X213359013Y-111236866D01*
X213292132Y-111216649D01*
X213247619Y-111165277D01*
X213220568Y-111107266D01*
X213213500Y-111097171D01*
X213090045Y-110920858D01*
X212929141Y-110759954D01*
X212742734Y-110629432D01*
X212742732Y-110629431D01*
X212536497Y-110533261D01*
X212536488Y-110533258D01*
X212316697Y-110474366D01*
X212316693Y-110474365D01*
X212316692Y-110474365D01*
X212316691Y-110474364D01*
X212316686Y-110474364D01*
X212090002Y-110454532D01*
X212089998Y-110454532D01*
X211863313Y-110474364D01*
X211863302Y-110474366D01*
X211643511Y-110533258D01*
X211643502Y-110533261D01*
X211437267Y-110629431D01*
X211437265Y-110629432D01*
X211250858Y-110759954D01*
X211089954Y-110920858D01*
X210959432Y-111107265D01*
X210959430Y-111107268D01*
X210932380Y-111165277D01*
X210886207Y-111217715D01*
X210819013Y-111236866D01*
X210752132Y-111216649D01*
X210707619Y-111165277D01*
X210680568Y-111107266D01*
X210673500Y-111097171D01*
X210550045Y-110920858D01*
X210389141Y-110759954D01*
X210202734Y-110629432D01*
X210202732Y-110629431D01*
X209996497Y-110533261D01*
X209996488Y-110533258D01*
X209776697Y-110474366D01*
X209776693Y-110474365D01*
X209776692Y-110474365D01*
X209776691Y-110474364D01*
X209776686Y-110474364D01*
X209550002Y-110454532D01*
X209549998Y-110454532D01*
X209323313Y-110474364D01*
X209323302Y-110474366D01*
X209103511Y-110533258D01*
X209103502Y-110533261D01*
X208897267Y-110629431D01*
X208897265Y-110629432D01*
X208710858Y-110759954D01*
X208549954Y-110920858D01*
X208419432Y-111107265D01*
X208419430Y-111107268D01*
X208392380Y-111165277D01*
X208346207Y-111217715D01*
X208279013Y-111236866D01*
X208212132Y-111216649D01*
X208167619Y-111165277D01*
X208140568Y-111107266D01*
X208133500Y-111097171D01*
X208010045Y-110920858D01*
X207849141Y-110759954D01*
X207662734Y-110629432D01*
X207662732Y-110629431D01*
X207456497Y-110533261D01*
X207456488Y-110533258D01*
X207236697Y-110474366D01*
X207236693Y-110474365D01*
X207236692Y-110474365D01*
X207236691Y-110474364D01*
X207236686Y-110474364D01*
X207010002Y-110454532D01*
X207009998Y-110454532D01*
X206783313Y-110474364D01*
X206783302Y-110474366D01*
X206563511Y-110533258D01*
X206563502Y-110533261D01*
X206357267Y-110629431D01*
X206357265Y-110629432D01*
X206170858Y-110759954D01*
X206009954Y-110920858D01*
X205879432Y-111107265D01*
X205879430Y-111107268D01*
X205852380Y-111165277D01*
X205806207Y-111217715D01*
X205739013Y-111236866D01*
X205672132Y-111216649D01*
X205627619Y-111165277D01*
X205600568Y-111107266D01*
X205593500Y-111097171D01*
X205470045Y-110920858D01*
X205309141Y-110759954D01*
X205122734Y-110629432D01*
X205122732Y-110629431D01*
X204916497Y-110533261D01*
X204916488Y-110533258D01*
X204696697Y-110474366D01*
X204696693Y-110474365D01*
X204696692Y-110474365D01*
X204696691Y-110474364D01*
X204696686Y-110474364D01*
X204470002Y-110454532D01*
X204469998Y-110454532D01*
X204243313Y-110474364D01*
X204243302Y-110474366D01*
X204023511Y-110533258D01*
X204023502Y-110533261D01*
X203817267Y-110629431D01*
X203817265Y-110629432D01*
X203630858Y-110759954D01*
X203469954Y-110920858D01*
X203339432Y-111107265D01*
X203339430Y-111107268D01*
X203312380Y-111165277D01*
X203266207Y-111217715D01*
X203199013Y-111236866D01*
X203132132Y-111216649D01*
X203087619Y-111165277D01*
X203060568Y-111107266D01*
X203053500Y-111097171D01*
X202930045Y-110920858D01*
X202769141Y-110759954D01*
X202582734Y-110629432D01*
X202582732Y-110629431D01*
X202376497Y-110533261D01*
X202376488Y-110533258D01*
X202156697Y-110474366D01*
X202156693Y-110474365D01*
X202156692Y-110474365D01*
X202156691Y-110474364D01*
X202156686Y-110474364D01*
X201930002Y-110454532D01*
X201929998Y-110454532D01*
X201703313Y-110474364D01*
X201703302Y-110474366D01*
X201483511Y-110533258D01*
X201483502Y-110533261D01*
X201277267Y-110629431D01*
X201277265Y-110629432D01*
X201090858Y-110759954D01*
X200929954Y-110920858D01*
X200799432Y-111107265D01*
X200799430Y-111107268D01*
X200772380Y-111165277D01*
X200726207Y-111217715D01*
X200659013Y-111236866D01*
X200592132Y-111216649D01*
X200547619Y-111165277D01*
X200520568Y-111107266D01*
X200513500Y-111097171D01*
X200390045Y-110920858D01*
X200229141Y-110759954D01*
X200042734Y-110629432D01*
X200042732Y-110629431D01*
X199836497Y-110533261D01*
X199836488Y-110533258D01*
X199616697Y-110474366D01*
X199616693Y-110474365D01*
X199616692Y-110474365D01*
X199616691Y-110474364D01*
X199616686Y-110474364D01*
X199390002Y-110454532D01*
X199389998Y-110454532D01*
X199163313Y-110474364D01*
X199163302Y-110474366D01*
X198943511Y-110533258D01*
X198943502Y-110533261D01*
X198737267Y-110629431D01*
X198737265Y-110629432D01*
X198550858Y-110759954D01*
X198389954Y-110920858D01*
X198259432Y-111107265D01*
X198259430Y-111107268D01*
X198232380Y-111165277D01*
X198186207Y-111217715D01*
X198119013Y-111236866D01*
X198052132Y-111216649D01*
X198007619Y-111165277D01*
X197980568Y-111107266D01*
X197973500Y-111097171D01*
X197850045Y-110920858D01*
X197689141Y-110759954D01*
X197502734Y-110629432D01*
X197502732Y-110629431D01*
X197296497Y-110533261D01*
X197296488Y-110533258D01*
X197076697Y-110474366D01*
X197076693Y-110474365D01*
X197076692Y-110474365D01*
X197076691Y-110474364D01*
X197076686Y-110474364D01*
X196850002Y-110454532D01*
X196849998Y-110454532D01*
X196623313Y-110474364D01*
X196623302Y-110474366D01*
X196403511Y-110533258D01*
X196403502Y-110533261D01*
X196197267Y-110629431D01*
X196197265Y-110629432D01*
X196010858Y-110759954D01*
X195849954Y-110920858D01*
X195719432Y-111107265D01*
X195719431Y-111107267D01*
X195708917Y-111129815D01*
X195698657Y-111151819D01*
X195692382Y-111165275D01*
X195646209Y-111217714D01*
X195579016Y-111236866D01*
X195512135Y-111216650D01*
X195467618Y-111165275D01*
X195467618Y-111165274D01*
X195440568Y-111107266D01*
X195310047Y-110920861D01*
X195310045Y-110920858D01*
X195149141Y-110759954D01*
X194962734Y-110629432D01*
X194962732Y-110629431D01*
X194756497Y-110533261D01*
X194756488Y-110533258D01*
X194536697Y-110474366D01*
X194536693Y-110474365D01*
X194536692Y-110474365D01*
X194536691Y-110474364D01*
X194536686Y-110474364D01*
X194310002Y-110454532D01*
X194309998Y-110454532D01*
X194083313Y-110474364D01*
X194083302Y-110474366D01*
X193863511Y-110533258D01*
X193863502Y-110533261D01*
X193657267Y-110629431D01*
X193657265Y-110629432D01*
X193470858Y-110759954D01*
X193309954Y-110920858D01*
X193179432Y-111107265D01*
X193179431Y-111107267D01*
X193168917Y-111129815D01*
X193158657Y-111151819D01*
X193152382Y-111165275D01*
X193106209Y-111217714D01*
X193039016Y-111236866D01*
X192972135Y-111216650D01*
X192927618Y-111165275D01*
X192927618Y-111165274D01*
X192900568Y-111107266D01*
X192770047Y-110920861D01*
X192770045Y-110920858D01*
X192609141Y-110759954D01*
X192422734Y-110629432D01*
X192422732Y-110629431D01*
X192216497Y-110533261D01*
X192216488Y-110533258D01*
X191996697Y-110474366D01*
X191996693Y-110474365D01*
X191996692Y-110474365D01*
X191996691Y-110474364D01*
X191996686Y-110474364D01*
X191770002Y-110454532D01*
X191769998Y-110454532D01*
X191543313Y-110474364D01*
X191543302Y-110474366D01*
X191323511Y-110533258D01*
X191323502Y-110533261D01*
X191117267Y-110629431D01*
X191117265Y-110629432D01*
X190930858Y-110759954D01*
X190769954Y-110920858D01*
X190639432Y-111107265D01*
X190639431Y-111107267D01*
X190628917Y-111129815D01*
X190618657Y-111151819D01*
X190612382Y-111165275D01*
X190566209Y-111217714D01*
X190499016Y-111236866D01*
X190432135Y-111216650D01*
X190387618Y-111165275D01*
X190387618Y-111165274D01*
X190360568Y-111107266D01*
X190230047Y-110920861D01*
X190230045Y-110920858D01*
X190069141Y-110759954D01*
X189882734Y-110629432D01*
X189882732Y-110629431D01*
X189676497Y-110533261D01*
X189676488Y-110533258D01*
X189456697Y-110474366D01*
X189456693Y-110474365D01*
X189456692Y-110474365D01*
X189456691Y-110474364D01*
X189456686Y-110474364D01*
X189230002Y-110454532D01*
X189229998Y-110454532D01*
X189003313Y-110474364D01*
X189003302Y-110474366D01*
X188783511Y-110533258D01*
X188783502Y-110533261D01*
X188577267Y-110629431D01*
X188577265Y-110629432D01*
X188390858Y-110759954D01*
X188229954Y-110920858D01*
X188099432Y-111107265D01*
X188099431Y-111107267D01*
X188088917Y-111129815D01*
X188078657Y-111151819D01*
X188072382Y-111165275D01*
X188026209Y-111217714D01*
X187959016Y-111236866D01*
X187892135Y-111216650D01*
X187847618Y-111165275D01*
X187847618Y-111165274D01*
X187820568Y-111107266D01*
X187690047Y-110920861D01*
X187690045Y-110920858D01*
X187529141Y-110759954D01*
X187342734Y-110629432D01*
X187342732Y-110629431D01*
X187136497Y-110533261D01*
X187136488Y-110533258D01*
X186916697Y-110474366D01*
X186916693Y-110474365D01*
X186916692Y-110474365D01*
X186916691Y-110474364D01*
X186916686Y-110474364D01*
X186690002Y-110454532D01*
X186689998Y-110454532D01*
X186463313Y-110474364D01*
X186463302Y-110474366D01*
X186243511Y-110533258D01*
X186243502Y-110533261D01*
X186037267Y-110629431D01*
X186037265Y-110629432D01*
X185850858Y-110759954D01*
X185689954Y-110920858D01*
X185559432Y-111107265D01*
X185559431Y-111107267D01*
X185548917Y-111129815D01*
X185538657Y-111151819D01*
X185532382Y-111165275D01*
X185486209Y-111217714D01*
X185419016Y-111236866D01*
X185352135Y-111216650D01*
X185307618Y-111165275D01*
X185307618Y-111165274D01*
X185280568Y-111107266D01*
X185150047Y-110920861D01*
X185150045Y-110920858D01*
X184989141Y-110759954D01*
X184802734Y-110629432D01*
X184802732Y-110629431D01*
X184596497Y-110533261D01*
X184596488Y-110533258D01*
X184376697Y-110474366D01*
X184376693Y-110474365D01*
X184376692Y-110474365D01*
X184376691Y-110474364D01*
X184376686Y-110474364D01*
X184150002Y-110454532D01*
X184149998Y-110454532D01*
X183923313Y-110474364D01*
X183923302Y-110474366D01*
X183703511Y-110533258D01*
X183703502Y-110533261D01*
X183497267Y-110629431D01*
X183497265Y-110629432D01*
X183310858Y-110759954D01*
X183149951Y-110920861D01*
X183132287Y-110946088D01*
X183077710Y-110989712D01*
X183008211Y-110996904D01*
X182945857Y-110965380D01*
X182910445Y-110905150D01*
X182907425Y-110888218D01*
X182903598Y-110852627D01*
X182903596Y-110852620D01*
X182853354Y-110717913D01*
X182853350Y-110717906D01*
X182767190Y-110602812D01*
X182767187Y-110602809D01*
X182652093Y-110516649D01*
X182652086Y-110516645D01*
X182517379Y-110466403D01*
X182517372Y-110466401D01*
X182457844Y-110460000D01*
X181860000Y-110460000D01*
X181860000Y-111444314D01*
X181848045Y-111432359D01*
X181735148Y-111374835D01*
X181641481Y-111360000D01*
X181578519Y-111360000D01*
X181484852Y-111374835D01*
X181371955Y-111432359D01*
X181360000Y-111444314D01*
X181360000Y-110460000D01*
X180762155Y-110460000D01*
X180702627Y-110466401D01*
X180702620Y-110466403D01*
X180567913Y-110516645D01*
X180567906Y-110516649D01*
X180452812Y-110602809D01*
X180452809Y-110602812D01*
X180366649Y-110717906D01*
X180366645Y-110717913D01*
X180316403Y-110852620D01*
X180316401Y-110852627D01*
X180310000Y-110912155D01*
X180310000Y-111510000D01*
X181294314Y-111510000D01*
X181282359Y-111521955D01*
X181224835Y-111634852D01*
X181205014Y-111760000D01*
X181224835Y-111885148D01*
X181282359Y-111998045D01*
X181294314Y-112010000D01*
X180310000Y-112010000D01*
X180310000Y-112607844D01*
X180316401Y-112667372D01*
X180316403Y-112667379D01*
X180366645Y-112802086D01*
X180366649Y-112802093D01*
X180452809Y-112917187D01*
X180452812Y-112917190D01*
X180567906Y-113003350D01*
X180567913Y-113003354D01*
X180702620Y-113053596D01*
X180702627Y-113053598D01*
X180762155Y-113059999D01*
X180762172Y-113060000D01*
X181360000Y-113060000D01*
X181360000Y-112075686D01*
X181371955Y-112087641D01*
X181484852Y-112145165D01*
X181578519Y-112160000D01*
X181641481Y-112160000D01*
X181735148Y-112145165D01*
X181848045Y-112087641D01*
X181860000Y-112075686D01*
X181860000Y-113060000D01*
X182457828Y-113060000D01*
X182457844Y-113059999D01*
X182517372Y-113053598D01*
X182517379Y-113053596D01*
X182652086Y-113003354D01*
X182652093Y-113003350D01*
X182767187Y-112917190D01*
X182767190Y-112917187D01*
X182853350Y-112802093D01*
X182853354Y-112802086D01*
X182903596Y-112667380D01*
X182907424Y-112631781D01*
X182934162Y-112567230D01*
X182991555Y-112527382D01*
X183061380Y-112524888D01*
X183121469Y-112560540D01*
X183132289Y-112573912D01*
X183149956Y-112599143D01*
X183310858Y-112760045D01*
X183310861Y-112760047D01*
X183497266Y-112890568D01*
X183703504Y-112986739D01*
X183923308Y-113045635D01*
X184085230Y-113059801D01*
X184149998Y-113065468D01*
X184150000Y-113065468D01*
X184150002Y-113065468D01*
X184212511Y-113059999D01*
X184376692Y-113045635D01*
X184596496Y-112986739D01*
X184802734Y-112890568D01*
X184989139Y-112760047D01*
X185150047Y-112599139D01*
X185280568Y-112412734D01*
X185307618Y-112354724D01*
X185353790Y-112302285D01*
X185420983Y-112283133D01*
X185487865Y-112303348D01*
X185532382Y-112354725D01*
X185559429Y-112412728D01*
X185559432Y-112412734D01*
X185689954Y-112599141D01*
X185850858Y-112760045D01*
X185850861Y-112760047D01*
X186037266Y-112890568D01*
X186243504Y-112986739D01*
X186463308Y-113045635D01*
X186625230Y-113059801D01*
X186689998Y-113065468D01*
X186690000Y-113065468D01*
X186690002Y-113065468D01*
X186752511Y-113059999D01*
X186916692Y-113045635D01*
X187136496Y-112986739D01*
X187342734Y-112890568D01*
X187529139Y-112760047D01*
X187690047Y-112599139D01*
X187820568Y-112412734D01*
X187847618Y-112354724D01*
X187893790Y-112302285D01*
X187960983Y-112283133D01*
X188027865Y-112303348D01*
X188072382Y-112354725D01*
X188099429Y-112412728D01*
X188099432Y-112412734D01*
X188229954Y-112599141D01*
X188390858Y-112760045D01*
X188390861Y-112760047D01*
X188577266Y-112890568D01*
X188783504Y-112986739D01*
X189003308Y-113045635D01*
X189165230Y-113059801D01*
X189229998Y-113065468D01*
X189230000Y-113065468D01*
X189230002Y-113065468D01*
X189292511Y-113059999D01*
X189456692Y-113045635D01*
X189676496Y-112986739D01*
X189882734Y-112890568D01*
X190069139Y-112760047D01*
X190230047Y-112599139D01*
X190360568Y-112412734D01*
X190387618Y-112354724D01*
X190433790Y-112302285D01*
X190500983Y-112283133D01*
X190567865Y-112303348D01*
X190612382Y-112354725D01*
X190639429Y-112412728D01*
X190639432Y-112412734D01*
X190769954Y-112599141D01*
X190930858Y-112760045D01*
X190930861Y-112760047D01*
X191117266Y-112890568D01*
X191323504Y-112986739D01*
X191543308Y-113045635D01*
X191705230Y-113059801D01*
X191769998Y-113065468D01*
X191770000Y-113065468D01*
X191770002Y-113065468D01*
X191832511Y-113059999D01*
X191996692Y-113045635D01*
X192216496Y-112986739D01*
X192422734Y-112890568D01*
X192609139Y-112760047D01*
X192770047Y-112599139D01*
X192900568Y-112412734D01*
X192927618Y-112354724D01*
X192973790Y-112302285D01*
X193040983Y-112283133D01*
X193107865Y-112303348D01*
X193152382Y-112354725D01*
X193179429Y-112412728D01*
X193179432Y-112412734D01*
X193309954Y-112599141D01*
X193470858Y-112760045D01*
X193470861Y-112760047D01*
X193657266Y-112890568D01*
X193863504Y-112986739D01*
X194083308Y-113045635D01*
X194245230Y-113059801D01*
X194309998Y-113065468D01*
X194310000Y-113065468D01*
X194310002Y-113065468D01*
X194372511Y-113059999D01*
X194536692Y-113045635D01*
X194756496Y-112986739D01*
X194962734Y-112890568D01*
X195149139Y-112760047D01*
X195310047Y-112599139D01*
X195440568Y-112412734D01*
X195467618Y-112354724D01*
X195513790Y-112302285D01*
X195580983Y-112283133D01*
X195647865Y-112303348D01*
X195692382Y-112354725D01*
X195719429Y-112412728D01*
X195719432Y-112412734D01*
X195849954Y-112599141D01*
X196010858Y-112760045D01*
X196010861Y-112760047D01*
X196197266Y-112890568D01*
X196403504Y-112986739D01*
X196623308Y-113045635D01*
X196785230Y-113059801D01*
X196849998Y-113065468D01*
X196850000Y-113065468D01*
X196850002Y-113065468D01*
X196912511Y-113059999D01*
X197076692Y-113045635D01*
X197296496Y-112986739D01*
X197502734Y-112890568D01*
X197689139Y-112760047D01*
X197850047Y-112599139D01*
X197980568Y-112412734D01*
X198007618Y-112354724D01*
X198053790Y-112302285D01*
X198120983Y-112283133D01*
X198187865Y-112303348D01*
X198232382Y-112354725D01*
X198259429Y-112412728D01*
X198259432Y-112412734D01*
X198389954Y-112599141D01*
X198550858Y-112760045D01*
X198550861Y-112760047D01*
X198737266Y-112890568D01*
X198943504Y-112986739D01*
X199163308Y-113045635D01*
X199325230Y-113059801D01*
X199389998Y-113065468D01*
X199390000Y-113065468D01*
X199390002Y-113065468D01*
X199452511Y-113059999D01*
X199616692Y-113045635D01*
X199836496Y-112986739D01*
X200042734Y-112890568D01*
X200229139Y-112760047D01*
X200390047Y-112599139D01*
X200520568Y-112412734D01*
X200547618Y-112354724D01*
X200593790Y-112302285D01*
X200660983Y-112283133D01*
X200727865Y-112303348D01*
X200772382Y-112354725D01*
X200799429Y-112412728D01*
X200799432Y-112412734D01*
X200929954Y-112599141D01*
X201090858Y-112760045D01*
X201090861Y-112760047D01*
X201277266Y-112890568D01*
X201483504Y-112986739D01*
X201703308Y-113045635D01*
X201865230Y-113059801D01*
X201929998Y-113065468D01*
X201930000Y-113065468D01*
X201930002Y-113065468D01*
X201992511Y-113059999D01*
X202156692Y-113045635D01*
X202376496Y-112986739D01*
X202582734Y-112890568D01*
X202769139Y-112760047D01*
X202930047Y-112599139D01*
X203060568Y-112412734D01*
X203087618Y-112354724D01*
X203133790Y-112302285D01*
X203200983Y-112283133D01*
X203267865Y-112303348D01*
X203312382Y-112354725D01*
X203339429Y-112412728D01*
X203339432Y-112412734D01*
X203469954Y-112599141D01*
X203630858Y-112760045D01*
X203630861Y-112760047D01*
X203817266Y-112890568D01*
X204023504Y-112986739D01*
X204243308Y-113045635D01*
X204405230Y-113059801D01*
X204469998Y-113065468D01*
X204470000Y-113065468D01*
X204470002Y-113065468D01*
X204532511Y-113059999D01*
X204696692Y-113045635D01*
X204916496Y-112986739D01*
X205122734Y-112890568D01*
X205309139Y-112760047D01*
X205470047Y-112599139D01*
X205600568Y-112412734D01*
X205627618Y-112354724D01*
X205673790Y-112302285D01*
X205740983Y-112283133D01*
X205807865Y-112303348D01*
X205852382Y-112354725D01*
X205879429Y-112412728D01*
X205879432Y-112412734D01*
X206009954Y-112599141D01*
X206170858Y-112760045D01*
X206170861Y-112760047D01*
X206357266Y-112890568D01*
X206563504Y-112986739D01*
X206783308Y-113045635D01*
X206945230Y-113059801D01*
X207009998Y-113065468D01*
X207010000Y-113065468D01*
X207010002Y-113065468D01*
X207072511Y-113059999D01*
X207236692Y-113045635D01*
X207456496Y-112986739D01*
X207662734Y-112890568D01*
X207849139Y-112760047D01*
X208010047Y-112599139D01*
X208140568Y-112412734D01*
X208167618Y-112354724D01*
X208213790Y-112302285D01*
X208280983Y-112283133D01*
X208347865Y-112303348D01*
X208392382Y-112354725D01*
X208419429Y-112412728D01*
X208419432Y-112412734D01*
X208549954Y-112599141D01*
X208710858Y-112760045D01*
X208871623Y-112872613D01*
X208915248Y-112927189D01*
X208924500Y-112974188D01*
X208924500Y-114217254D01*
X208922775Y-114232872D01*
X208923061Y-114232899D01*
X208922326Y-114240666D01*
X208924468Y-114308845D01*
X208924499Y-114310790D01*
X208924499Y-114339351D01*
X208925368Y-114346232D01*
X208925826Y-114352051D01*
X208927290Y-114398624D01*
X208927291Y-114398627D01*
X208932880Y-114417867D01*
X208936824Y-114436911D01*
X208939336Y-114456791D01*
X208956490Y-114500119D01*
X208958382Y-114505647D01*
X208971381Y-114550388D01*
X208981580Y-114567634D01*
X208990138Y-114585103D01*
X208997514Y-114603732D01*
X209024898Y-114641423D01*
X209028106Y-114646307D01*
X209051827Y-114686416D01*
X209051833Y-114686424D01*
X209065990Y-114700580D01*
X209078628Y-114715376D01*
X209090405Y-114731586D01*
X209090406Y-114731587D01*
X209126309Y-114761288D01*
X209130620Y-114765210D01*
X211428182Y-117062772D01*
X211461666Y-117124093D01*
X211464500Y-117150451D01*
X211464500Y-120339547D01*
X211444815Y-120406586D01*
X211428181Y-120427228D01*
X209327228Y-122528181D01*
X209265905Y-122561666D01*
X209239547Y-122564500D01*
X154945227Y-122564500D01*
X154878188Y-122544815D01*
X154843652Y-122511623D01*
X154708494Y-122318597D01*
X154541402Y-122151506D01*
X154541396Y-122151502D01*
X154450871Y-122088115D01*
X154348586Y-122016494D01*
X154304961Y-121961917D01*
X154295770Y-121918803D01*
X154295530Y-121911162D01*
X154295500Y-121909220D01*
X154295500Y-121880651D01*
X154295500Y-121880650D01*
X154294629Y-121873759D01*
X154294172Y-121867945D01*
X154292709Y-121821374D01*
X154292709Y-121821372D01*
X154287120Y-121802137D01*
X154283174Y-121783084D01*
X154280664Y-121763208D01*
X154263501Y-121719859D01*
X154261614Y-121714346D01*
X154248617Y-121669610D01*
X154248616Y-121669608D01*
X154238421Y-121652369D01*
X154229860Y-121634893D01*
X154222486Y-121616269D01*
X154222486Y-121616267D01*
X154212474Y-121602488D01*
X154195083Y-121578550D01*
X154191900Y-121573705D01*
X154168170Y-121533579D01*
X154168165Y-121533573D01*
X154154005Y-121519413D01*
X154141370Y-121504620D01*
X154129593Y-121488412D01*
X154093693Y-121458713D01*
X154089381Y-121454790D01*
X151630803Y-118996212D01*
X151620980Y-118983950D01*
X151620759Y-118984134D01*
X151615786Y-118978122D01*
X151566066Y-118931432D01*
X151564666Y-118930075D01*
X151544476Y-118909884D01*
X151538986Y-118905625D01*
X151534561Y-118901847D01*
X151500582Y-118869938D01*
X151500580Y-118869936D01*
X151500577Y-118869935D01*
X151483029Y-118860288D01*
X151466763Y-118849604D01*
X151450933Y-118837325D01*
X151408168Y-118818818D01*
X151402922Y-118816248D01*
X151362093Y-118793803D01*
X151362092Y-118793802D01*
X151342693Y-118788822D01*
X151324281Y-118782518D01*
X151305898Y-118774562D01*
X151305892Y-118774560D01*
X151259874Y-118767272D01*
X151254152Y-118766087D01*
X151209021Y-118754500D01*
X151209019Y-118754500D01*
X151188984Y-118754500D01*
X151169586Y-118752973D01*
X151162162Y-118751797D01*
X151149805Y-118749840D01*
X151149804Y-118749840D01*
X151103416Y-118754225D01*
X151097578Y-118754500D01*
X145090453Y-118754500D01*
X145023414Y-118734815D01*
X145002772Y-118718181D01*
X144171819Y-117887227D01*
X144138334Y-117825904D01*
X144135500Y-117799546D01*
X144135500Y-117680000D01*
X187874341Y-117680000D01*
X187894936Y-117915403D01*
X187894938Y-117915413D01*
X187956094Y-118143655D01*
X187956096Y-118143659D01*
X187956097Y-118143663D01*
X187995358Y-118227858D01*
X188055965Y-118357830D01*
X188055967Y-118357834D01*
X188123161Y-118453796D01*
X188191505Y-118551401D01*
X188358599Y-118718495D01*
X188438668Y-118774560D01*
X188552165Y-118854032D01*
X188552167Y-118854033D01*
X188552170Y-118854035D01*
X188766337Y-118953903D01*
X188994592Y-119015063D01*
X189171034Y-119030500D01*
X189229999Y-119035659D01*
X189230000Y-119035659D01*
X189230001Y-119035659D01*
X189288966Y-119030500D01*
X189465408Y-119015063D01*
X189693663Y-118953903D01*
X189907830Y-118854035D01*
X190101401Y-118718495D01*
X190268495Y-118551401D01*
X190398424Y-118365842D01*
X190453002Y-118322217D01*
X190522500Y-118315023D01*
X190584855Y-118346546D01*
X190601575Y-118365842D01*
X190731500Y-118551395D01*
X190731505Y-118551401D01*
X190898599Y-118718495D01*
X190978668Y-118774560D01*
X191092165Y-118854032D01*
X191092167Y-118854033D01*
X191092170Y-118854035D01*
X191306337Y-118953903D01*
X191534592Y-119015063D01*
X191711034Y-119030500D01*
X191769999Y-119035659D01*
X191770000Y-119035659D01*
X191770001Y-119035659D01*
X191828966Y-119030500D01*
X192005408Y-119015063D01*
X192233663Y-118953903D01*
X192447830Y-118854035D01*
X192641401Y-118718495D01*
X192808495Y-118551401D01*
X192938424Y-118365842D01*
X192993002Y-118322217D01*
X193062500Y-118315023D01*
X193124855Y-118346546D01*
X193141575Y-118365842D01*
X193271500Y-118551395D01*
X193271505Y-118551401D01*
X193438599Y-118718495D01*
X193518668Y-118774560D01*
X193632165Y-118854032D01*
X193632167Y-118854033D01*
X193632170Y-118854035D01*
X193846337Y-118953903D01*
X194074592Y-119015063D01*
X194251034Y-119030500D01*
X194309999Y-119035659D01*
X194310000Y-119035659D01*
X194310001Y-119035659D01*
X194368966Y-119030500D01*
X194545408Y-119015063D01*
X194773663Y-118953903D01*
X194987830Y-118854035D01*
X195181401Y-118718495D01*
X195303329Y-118596566D01*
X195364648Y-118563084D01*
X195434340Y-118568068D01*
X195490274Y-118609939D01*
X195507189Y-118640917D01*
X195556202Y-118772328D01*
X195556206Y-118772335D01*
X195642452Y-118887544D01*
X195642455Y-118887547D01*
X195757664Y-118973793D01*
X195757671Y-118973797D01*
X195892517Y-119024091D01*
X195892516Y-119024091D01*
X195899444Y-119024835D01*
X195952127Y-119030500D01*
X197747872Y-119030499D01*
X197807483Y-119024091D01*
X197942331Y-118973796D01*
X198057546Y-118887546D01*
X198143796Y-118772331D01*
X198194091Y-118637483D01*
X198200500Y-118577873D01*
X198200500Y-118577870D01*
X199309500Y-118577870D01*
X199309501Y-118577876D01*
X199315908Y-118637483D01*
X199366202Y-118772328D01*
X199366206Y-118772335D01*
X199452452Y-118887544D01*
X199452455Y-118887547D01*
X199567664Y-118973793D01*
X199567671Y-118973797D01*
X199702517Y-119024091D01*
X199702516Y-119024091D01*
X199709444Y-119024835D01*
X199762127Y-119030500D01*
X201557872Y-119030499D01*
X201617483Y-119024091D01*
X201752331Y-118973796D01*
X201867546Y-118887546D01*
X201953796Y-118772331D01*
X202002810Y-118640916D01*
X202044681Y-118584984D01*
X202110145Y-118560566D01*
X202178418Y-118575417D01*
X202206673Y-118596569D01*
X202328599Y-118718495D01*
X202408668Y-118774560D01*
X202522165Y-118854032D01*
X202522167Y-118854033D01*
X202522170Y-118854035D01*
X202736337Y-118953903D01*
X202964592Y-119015063D01*
X203141034Y-119030500D01*
X203199999Y-119035659D01*
X203200000Y-119035659D01*
X203200001Y-119035659D01*
X203258966Y-119030500D01*
X203435408Y-119015063D01*
X203663663Y-118953903D01*
X203877830Y-118854035D01*
X204071401Y-118718495D01*
X204238495Y-118551401D01*
X204368424Y-118365842D01*
X204423002Y-118322217D01*
X204492500Y-118315023D01*
X204554855Y-118346546D01*
X204571575Y-118365842D01*
X204701500Y-118551395D01*
X204701505Y-118551401D01*
X204868599Y-118718495D01*
X204948668Y-118774560D01*
X205062165Y-118854032D01*
X205062167Y-118854033D01*
X205062170Y-118854035D01*
X205276337Y-118953903D01*
X205504592Y-119015063D01*
X205681034Y-119030500D01*
X205739999Y-119035659D01*
X205740000Y-119035659D01*
X205740001Y-119035659D01*
X205798966Y-119030500D01*
X205975408Y-119015063D01*
X206203663Y-118953903D01*
X206417830Y-118854035D01*
X206611401Y-118718495D01*
X206778495Y-118551401D01*
X206908424Y-118365842D01*
X206963002Y-118322217D01*
X207032500Y-118315023D01*
X207094855Y-118346546D01*
X207111575Y-118365842D01*
X207241500Y-118551395D01*
X207241505Y-118551401D01*
X207408599Y-118718495D01*
X207488668Y-118774560D01*
X207602165Y-118854032D01*
X207602167Y-118854033D01*
X207602170Y-118854035D01*
X207816337Y-118953903D01*
X208044592Y-119015063D01*
X208221034Y-119030500D01*
X208279999Y-119035659D01*
X208280000Y-119035659D01*
X208280001Y-119035659D01*
X208338966Y-119030500D01*
X208515408Y-119015063D01*
X208743663Y-118953903D01*
X208957830Y-118854035D01*
X209151401Y-118718495D01*
X209318495Y-118551401D01*
X209454035Y-118357830D01*
X209553903Y-118143663D01*
X209615063Y-117915408D01*
X209635659Y-117680000D01*
X209615063Y-117444592D01*
X209553903Y-117216337D01*
X209454035Y-117002171D01*
X209448425Y-116994158D01*
X209318494Y-116808597D01*
X209151402Y-116641506D01*
X209151395Y-116641501D01*
X208957834Y-116505967D01*
X208957830Y-116505965D01*
X208941969Y-116498569D01*
X208743663Y-116406097D01*
X208743659Y-116406096D01*
X208743655Y-116406094D01*
X208515413Y-116344938D01*
X208515403Y-116344936D01*
X208280001Y-116324341D01*
X208279999Y-116324341D01*
X208044596Y-116344936D01*
X208044586Y-116344938D01*
X207816344Y-116406094D01*
X207816335Y-116406098D01*
X207602171Y-116505964D01*
X207602169Y-116505965D01*
X207408597Y-116641505D01*
X207241505Y-116808597D01*
X207111575Y-116994158D01*
X207056998Y-117037783D01*
X206987500Y-117044977D01*
X206925145Y-117013454D01*
X206908425Y-116994158D01*
X206778494Y-116808597D01*
X206611402Y-116641506D01*
X206611395Y-116641501D01*
X206417834Y-116505967D01*
X206417830Y-116505965D01*
X206401969Y-116498569D01*
X206203663Y-116406097D01*
X206203659Y-116406096D01*
X206203655Y-116406094D01*
X205975413Y-116344938D01*
X205975403Y-116344936D01*
X205740001Y-116324341D01*
X205739999Y-116324341D01*
X205504596Y-116344936D01*
X205504586Y-116344938D01*
X205276344Y-116406094D01*
X205276335Y-116406098D01*
X205062171Y-116505964D01*
X205062169Y-116505965D01*
X204868597Y-116641505D01*
X204701505Y-116808597D01*
X204571575Y-116994158D01*
X204516998Y-117037783D01*
X204447500Y-117044977D01*
X204385145Y-117013454D01*
X204368425Y-116994158D01*
X204238494Y-116808597D01*
X204071402Y-116641506D01*
X204071395Y-116641501D01*
X203877834Y-116505967D01*
X203877830Y-116505965D01*
X203861969Y-116498569D01*
X203663663Y-116406097D01*
X203663659Y-116406096D01*
X203663655Y-116406094D01*
X203435413Y-116344938D01*
X203435403Y-116344936D01*
X203200001Y-116324341D01*
X203199999Y-116324341D01*
X202964596Y-116344936D01*
X202964586Y-116344938D01*
X202736344Y-116406094D01*
X202736335Y-116406098D01*
X202522171Y-116505964D01*
X202522169Y-116505965D01*
X202328600Y-116641503D01*
X202206673Y-116763430D01*
X202145350Y-116796914D01*
X202075658Y-116791930D01*
X202019725Y-116750058D01*
X202002810Y-116719081D01*
X201953797Y-116587671D01*
X201953793Y-116587664D01*
X201867547Y-116472455D01*
X201867544Y-116472452D01*
X201752335Y-116386206D01*
X201752328Y-116386202D01*
X201617482Y-116335908D01*
X201617483Y-116335908D01*
X201557883Y-116329501D01*
X201557881Y-116329500D01*
X201557873Y-116329500D01*
X201557864Y-116329500D01*
X199762129Y-116329500D01*
X199762123Y-116329501D01*
X199702516Y-116335908D01*
X199567671Y-116386202D01*
X199567664Y-116386206D01*
X199452455Y-116472452D01*
X199452452Y-116472455D01*
X199366206Y-116587664D01*
X199366202Y-116587671D01*
X199315908Y-116722517D01*
X199309501Y-116782116D01*
X199309501Y-116782123D01*
X199309500Y-116782135D01*
X199309500Y-118577870D01*
X198200500Y-118577870D01*
X198200499Y-116782128D01*
X198194091Y-116722517D01*
X198192810Y-116719083D01*
X198143797Y-116587671D01*
X198143793Y-116587664D01*
X198057547Y-116472455D01*
X198057544Y-116472452D01*
X197942335Y-116386206D01*
X197942328Y-116386202D01*
X197807482Y-116335908D01*
X197807483Y-116335908D01*
X197747883Y-116329501D01*
X197747881Y-116329500D01*
X197747873Y-116329500D01*
X197747864Y-116329500D01*
X195952129Y-116329500D01*
X195952123Y-116329501D01*
X195892516Y-116335908D01*
X195757671Y-116386202D01*
X195757664Y-116386206D01*
X195642455Y-116472452D01*
X195642452Y-116472455D01*
X195556206Y-116587664D01*
X195556203Y-116587669D01*
X195507189Y-116719083D01*
X195465317Y-116775016D01*
X195399853Y-116799433D01*
X195331580Y-116784581D01*
X195303326Y-116763430D01*
X195181402Y-116641506D01*
X195181395Y-116641501D01*
X194987834Y-116505967D01*
X194987830Y-116505965D01*
X194971969Y-116498569D01*
X194773663Y-116406097D01*
X194773659Y-116406096D01*
X194773655Y-116406094D01*
X194545413Y-116344938D01*
X194545403Y-116344936D01*
X194310001Y-116324341D01*
X194309999Y-116324341D01*
X194074596Y-116344936D01*
X194074586Y-116344938D01*
X193846344Y-116406094D01*
X193846335Y-116406098D01*
X193632171Y-116505964D01*
X193632169Y-116505965D01*
X193438597Y-116641505D01*
X193271505Y-116808597D01*
X193141575Y-116994158D01*
X193086998Y-117037783D01*
X193017500Y-117044977D01*
X192955145Y-117013454D01*
X192938425Y-116994158D01*
X192808494Y-116808597D01*
X192641402Y-116641506D01*
X192641395Y-116641501D01*
X192447834Y-116505967D01*
X192447830Y-116505965D01*
X192431969Y-116498569D01*
X192233663Y-116406097D01*
X192233659Y-116406096D01*
X192233655Y-116406094D01*
X192005413Y-116344938D01*
X192005403Y-116344936D01*
X191770001Y-116324341D01*
X191769999Y-116324341D01*
X191534596Y-116344936D01*
X191534586Y-116344938D01*
X191306344Y-116406094D01*
X191306335Y-116406098D01*
X191092171Y-116505964D01*
X191092169Y-116505965D01*
X190898597Y-116641505D01*
X190731505Y-116808597D01*
X190601575Y-116994158D01*
X190546998Y-117037783D01*
X190477500Y-117044977D01*
X190415145Y-117013454D01*
X190398425Y-116994158D01*
X190268494Y-116808597D01*
X190101402Y-116641506D01*
X190101395Y-116641501D01*
X189907834Y-116505967D01*
X189907830Y-116505965D01*
X189891969Y-116498569D01*
X189693663Y-116406097D01*
X189693659Y-116406096D01*
X189693655Y-116406094D01*
X189465413Y-116344938D01*
X189465403Y-116344936D01*
X189230001Y-116324341D01*
X189229999Y-116324341D01*
X188994596Y-116344936D01*
X188994586Y-116344938D01*
X188766344Y-116406094D01*
X188766335Y-116406098D01*
X188552171Y-116505964D01*
X188552169Y-116505965D01*
X188358597Y-116641505D01*
X188191505Y-116808597D01*
X188055965Y-117002169D01*
X188055964Y-117002171D01*
X187956098Y-117216335D01*
X187956094Y-117216344D01*
X187894938Y-117444586D01*
X187894936Y-117444596D01*
X187874341Y-117679999D01*
X187874341Y-117680000D01*
X144135500Y-117680000D01*
X144135500Y-110495226D01*
X144155185Y-110428187D01*
X144188374Y-110393654D01*
X144381401Y-110258495D01*
X144548495Y-110091401D01*
X144684035Y-109897830D01*
X144783903Y-109683663D01*
X144845063Y-109455408D01*
X144865659Y-109220000D01*
X144845063Y-108984592D01*
X144783903Y-108756337D01*
X144684035Y-108542171D01*
X144582034Y-108396497D01*
X144548494Y-108348597D01*
X144381405Y-108181509D01*
X144381405Y-108181508D01*
X144381401Y-108181505D01*
X144374045Y-108176354D01*
X144330422Y-108121782D01*
X144323227Y-108052284D01*
X144354748Y-107989928D01*
X144357453Y-107987135D01*
X145148787Y-107195802D01*
X145161042Y-107185986D01*
X145160859Y-107185764D01*
X145166868Y-107180791D01*
X145166877Y-107180786D01*
X145213607Y-107131022D01*
X145214846Y-107129743D01*
X145235120Y-107109471D01*
X145239379Y-107103978D01*
X145243152Y-107099561D01*
X145275062Y-107065582D01*
X145284715Y-107048020D01*
X145295389Y-107031770D01*
X145307673Y-107015936D01*
X145326180Y-106973167D01*
X145328749Y-106967924D01*
X145351196Y-106927093D01*
X145351197Y-106927092D01*
X145356177Y-106907691D01*
X145362478Y-106889288D01*
X145370438Y-106870896D01*
X145377730Y-106824849D01*
X145378911Y-106819152D01*
X145390500Y-106774019D01*
X145390500Y-106753983D01*
X145392027Y-106734582D01*
X145395160Y-106714804D01*
X145393317Y-106695307D01*
X145406606Y-106626714D01*
X145445642Y-106582065D01*
X145636401Y-106448495D01*
X145758329Y-106326566D01*
X145819648Y-106293084D01*
X145889340Y-106298068D01*
X145945274Y-106339939D01*
X145962189Y-106370917D01*
X146011202Y-106502328D01*
X146011206Y-106502335D01*
X146097452Y-106617544D01*
X146097455Y-106617547D01*
X146212664Y-106703793D01*
X146212671Y-106703797D01*
X146347517Y-106754091D01*
X146347516Y-106754091D01*
X146354444Y-106754835D01*
X146407127Y-106760500D01*
X148202872Y-106760499D01*
X148262483Y-106754091D01*
X148397331Y-106703796D01*
X148512546Y-106617546D01*
X148598796Y-106502331D01*
X148649091Y-106367483D01*
X148655500Y-106307873D01*
X148655500Y-106159499D01*
X148675185Y-106092461D01*
X148727989Y-106046706D01*
X148779500Y-106035500D01*
X157535812Y-106035500D01*
X157602851Y-106055185D01*
X157637387Y-106088377D01*
X157749954Y-106249141D01*
X157910858Y-106410045D01*
X157910861Y-106410047D01*
X158097266Y-106540568D01*
X158155275Y-106567618D01*
X158207714Y-106613791D01*
X158226866Y-106680984D01*
X158206650Y-106747865D01*
X158155275Y-106792382D01*
X158097267Y-106819431D01*
X158097265Y-106819432D01*
X157910858Y-106949954D01*
X157749954Y-107110858D01*
X157637387Y-107271623D01*
X157582811Y-107315248D01*
X157535812Y-107324500D01*
X149942737Y-107324500D01*
X149927120Y-107322776D01*
X149927093Y-107323062D01*
X149919331Y-107322327D01*
X149851171Y-107324469D01*
X149849224Y-107324500D01*
X149820650Y-107324500D01*
X149819929Y-107324590D01*
X149813757Y-107325369D01*
X149807945Y-107325826D01*
X149761372Y-107327290D01*
X149761369Y-107327291D01*
X149742126Y-107332881D01*
X149723083Y-107336825D01*
X149703204Y-107339336D01*
X149703203Y-107339337D01*
X149659878Y-107356490D01*
X149654352Y-107358382D01*
X149609608Y-107371383D01*
X149609604Y-107371385D01*
X149592365Y-107381580D01*
X149574898Y-107390137D01*
X149556269Y-107397512D01*
X149556267Y-107397513D01*
X149518564Y-107424906D01*
X149513682Y-107428112D01*
X149473580Y-107451828D01*
X149459408Y-107466000D01*
X149444623Y-107478628D01*
X149428412Y-107490407D01*
X149398709Y-107526310D01*
X149394777Y-107530631D01*
X148801608Y-108123799D01*
X148740285Y-108157284D01*
X148670593Y-108152300D01*
X148614662Y-108110430D01*
X148552546Y-108027454D01*
X148552544Y-108027452D01*
X148552543Y-108027451D01*
X148437335Y-107941206D01*
X148437328Y-107941202D01*
X148302482Y-107890908D01*
X148302483Y-107890908D01*
X148242883Y-107884501D01*
X148242881Y-107884500D01*
X148242873Y-107884500D01*
X148242864Y-107884500D01*
X146447129Y-107884500D01*
X146447123Y-107884501D01*
X146387516Y-107890908D01*
X146252671Y-107941202D01*
X146252664Y-107941206D01*
X146137455Y-108027452D01*
X146137452Y-108027455D01*
X146051206Y-108142664D01*
X146051202Y-108142671D01*
X146000908Y-108277517D01*
X145994501Y-108337116D01*
X145994500Y-108337135D01*
X145994500Y-110132870D01*
X145994501Y-110132876D01*
X146000908Y-110192483D01*
X146051202Y-110327328D01*
X146051206Y-110327335D01*
X146137452Y-110442544D01*
X146137455Y-110442547D01*
X146252664Y-110528793D01*
X146252671Y-110528797D01*
X146384081Y-110577810D01*
X146440015Y-110619681D01*
X146464432Y-110685145D01*
X146449580Y-110753418D01*
X146428430Y-110781673D01*
X146306503Y-110903600D01*
X146170965Y-111097169D01*
X146170964Y-111097171D01*
X146071098Y-111311335D01*
X146071094Y-111311344D01*
X146009938Y-111539586D01*
X146009936Y-111539596D01*
X145989341Y-111774999D01*
X145989341Y-111775000D01*
X146009936Y-112010403D01*
X146009938Y-112010413D01*
X146071094Y-112238655D01*
X146071096Y-112238659D01*
X146071097Y-112238663D01*
X146155347Y-112419337D01*
X146170965Y-112452830D01*
X146170967Y-112452834D01*
X146262464Y-112583504D01*
X146306501Y-112646396D01*
X146306506Y-112646402D01*
X146473597Y-112813493D01*
X146473603Y-112813498D01*
X146659158Y-112943425D01*
X146702783Y-112998002D01*
X146709977Y-113067500D01*
X146678454Y-113129855D01*
X146659158Y-113146575D01*
X146473597Y-113276505D01*
X146306505Y-113443597D01*
X146170965Y-113637169D01*
X146170964Y-113637171D01*
X146071098Y-113851335D01*
X146071094Y-113851344D01*
X146009938Y-114079586D01*
X146009936Y-114079596D01*
X145989341Y-114314999D01*
X145989341Y-114315000D01*
X146009936Y-114550403D01*
X146009938Y-114550413D01*
X146071094Y-114778655D01*
X146071096Y-114778659D01*
X146071097Y-114778663D01*
X146117630Y-114878453D01*
X146170965Y-114992830D01*
X146170967Y-114992834D01*
X146279281Y-115147521D01*
X146306505Y-115186401D01*
X146473599Y-115353495D01*
X146570384Y-115421264D01*
X146667165Y-115489032D01*
X146667167Y-115489033D01*
X146667170Y-115489035D01*
X146881337Y-115588903D01*
X147109592Y-115650063D01*
X147297918Y-115666539D01*
X147344999Y-115670659D01*
X147345000Y-115670659D01*
X147345001Y-115670659D01*
X147384234Y-115667226D01*
X147580408Y-115650063D01*
X147808663Y-115588903D01*
X148022830Y-115489035D01*
X148216401Y-115353495D01*
X148383495Y-115186401D01*
X148518651Y-114993377D01*
X148573229Y-114949752D01*
X148620227Y-114940500D01*
X151032257Y-114940500D01*
X151047877Y-114942224D01*
X151047904Y-114941939D01*
X151055666Y-114942673D01*
X151055666Y-114942672D01*
X151055667Y-114942673D01*
X151058999Y-114942568D01*
X151123847Y-114940531D01*
X151125794Y-114940500D01*
X151154347Y-114940500D01*
X151154350Y-114940500D01*
X151161228Y-114939630D01*
X151167041Y-114939172D01*
X151213627Y-114937709D01*
X151232869Y-114932117D01*
X151251912Y-114928174D01*
X151271792Y-114925664D01*
X151315122Y-114908507D01*
X151320646Y-114906617D01*
X151324396Y-114905527D01*
X151365390Y-114893618D01*
X151382629Y-114883422D01*
X151400103Y-114874862D01*
X151418727Y-114867488D01*
X151418727Y-114867487D01*
X151418732Y-114867486D01*
X151456449Y-114840082D01*
X151461305Y-114836892D01*
X151501420Y-114813170D01*
X151515589Y-114798999D01*
X151530379Y-114786368D01*
X151546587Y-114774594D01*
X151576299Y-114738676D01*
X151580212Y-114734376D01*
X152622771Y-113691819D01*
X152684095Y-113658334D01*
X152710453Y-113655500D01*
X157535812Y-113655500D01*
X157602851Y-113675185D01*
X157637387Y-113708377D01*
X157749954Y-113869141D01*
X157910858Y-114030045D01*
X157910861Y-114030047D01*
X158097266Y-114160568D01*
X158303504Y-114256739D01*
X158523308Y-114315635D01*
X158685230Y-114329801D01*
X158749998Y-114335468D01*
X158750000Y-114335468D01*
X158750002Y-114335468D01*
X158806672Y-114330509D01*
X158976692Y-114315635D01*
X159196496Y-114256739D01*
X159402734Y-114160568D01*
X159589139Y-114030047D01*
X159750047Y-113869139D01*
X159880568Y-113682734D01*
X159976739Y-113476496D01*
X160035635Y-113256692D01*
X160055468Y-113030001D01*
X172684532Y-113030001D01*
X172704364Y-113256686D01*
X172704366Y-113256697D01*
X172763258Y-113476488D01*
X172763261Y-113476497D01*
X172859431Y-113682732D01*
X172859432Y-113682734D01*
X172989954Y-113869141D01*
X173150858Y-114030045D01*
X173150861Y-114030047D01*
X173337266Y-114160568D01*
X173543504Y-114256739D01*
X173763308Y-114315635D01*
X173925230Y-114329801D01*
X173989998Y-114335468D01*
X173990000Y-114335468D01*
X173990002Y-114335468D01*
X174046673Y-114330509D01*
X174216692Y-114315635D01*
X174436496Y-114256739D01*
X174642734Y-114160568D01*
X174829139Y-114030047D01*
X174990047Y-113869139D01*
X175120568Y-113682734D01*
X175216739Y-113476496D01*
X175275635Y-113256692D01*
X175295468Y-113030000D01*
X175293136Y-113003350D01*
X175281698Y-112872613D01*
X175275635Y-112803308D01*
X175222850Y-112606310D01*
X175216741Y-112583511D01*
X175216738Y-112583502D01*
X175205139Y-112558628D01*
X175120568Y-112377266D01*
X174990047Y-112190861D01*
X174990045Y-112190858D01*
X174829141Y-112029954D01*
X174642734Y-111899432D01*
X174642728Y-111899429D01*
X174584725Y-111872382D01*
X174532285Y-111826210D01*
X174513133Y-111759017D01*
X174533348Y-111692135D01*
X174584725Y-111647618D01*
X174642734Y-111620568D01*
X174829139Y-111490047D01*
X174990047Y-111329139D01*
X175120568Y-111142734D01*
X175216739Y-110936496D01*
X175275635Y-110716692D01*
X175295468Y-110490000D01*
X175275635Y-110263308D01*
X175216739Y-110043504D01*
X175120568Y-109837266D01*
X174990047Y-109650861D01*
X174990045Y-109650858D01*
X174829141Y-109489954D01*
X174642734Y-109359432D01*
X174642728Y-109359429D01*
X174584725Y-109332382D01*
X174532285Y-109286210D01*
X174513133Y-109219017D01*
X174533348Y-109152135D01*
X174584725Y-109107618D01*
X174642734Y-109080568D01*
X174829139Y-108950047D01*
X174990047Y-108789139D01*
X175120568Y-108602734D01*
X175216739Y-108396496D01*
X175275635Y-108176692D01*
X175295468Y-107950000D01*
X175294698Y-107941204D01*
X175284606Y-107825846D01*
X175275635Y-107723308D01*
X175222850Y-107526310D01*
X175216741Y-107503511D01*
X175216738Y-107503502D01*
X175205139Y-107478628D01*
X175120568Y-107297266D01*
X174990047Y-107110861D01*
X174990045Y-107110858D01*
X174829141Y-106949954D01*
X174642735Y-106819433D01*
X174642736Y-106819433D01*
X174642734Y-106819432D01*
X174584722Y-106792380D01*
X174532284Y-106746208D01*
X174513133Y-106679014D01*
X174533349Y-106612133D01*
X174584721Y-106567619D01*
X174642734Y-106540568D01*
X174829139Y-106410047D01*
X174990047Y-106249139D01*
X175120568Y-106062734D01*
X175216739Y-105856496D01*
X175275635Y-105636692D01*
X175295468Y-105410000D01*
X175275635Y-105183308D01*
X175216739Y-104963504D01*
X175120568Y-104757266D01*
X174990047Y-104570861D01*
X174990045Y-104570858D01*
X174829141Y-104409954D01*
X174642734Y-104279432D01*
X174642728Y-104279429D01*
X174584725Y-104252382D01*
X174532285Y-104206210D01*
X174513133Y-104139017D01*
X174533348Y-104072135D01*
X174584725Y-104027618D01*
X174642734Y-104000568D01*
X174829139Y-103870047D01*
X174990047Y-103709139D01*
X175120568Y-103522734D01*
X175216739Y-103316496D01*
X175275635Y-103096692D01*
X175295468Y-102870000D01*
X175295006Y-102864724D01*
X175279924Y-102692331D01*
X175275635Y-102643308D01*
X175216739Y-102423504D01*
X175120568Y-102217266D01*
X174990047Y-102030861D01*
X174990045Y-102030858D01*
X174829141Y-101869954D01*
X174642734Y-101739432D01*
X174642728Y-101739429D01*
X174584725Y-101712382D01*
X174532285Y-101666210D01*
X174513133Y-101599017D01*
X174533348Y-101532135D01*
X174584725Y-101487618D01*
X174642734Y-101460568D01*
X174829139Y-101330047D01*
X174990047Y-101169139D01*
X175120568Y-100982734D01*
X175216739Y-100776496D01*
X175275635Y-100556692D01*
X175295468Y-100330000D01*
X175275635Y-100103308D01*
X175216739Y-99883504D01*
X175120568Y-99677266D01*
X174990047Y-99490861D01*
X174990045Y-99490858D01*
X174829141Y-99329954D01*
X174642734Y-99199432D01*
X174642728Y-99199429D01*
X174584725Y-99172382D01*
X174532285Y-99126210D01*
X174513133Y-99059017D01*
X174533348Y-98992135D01*
X174584725Y-98947618D01*
X174642734Y-98920568D01*
X174829139Y-98790047D01*
X174990047Y-98629139D01*
X175120568Y-98442734D01*
X175216739Y-98236496D01*
X175275635Y-98016692D01*
X175295468Y-97790000D01*
X175275635Y-97563308D01*
X175216739Y-97343504D01*
X175120568Y-97137266D01*
X174990047Y-96950861D01*
X174990045Y-96950858D01*
X174829141Y-96789954D01*
X174642734Y-96659432D01*
X174642728Y-96659429D01*
X174584725Y-96632382D01*
X174532285Y-96586210D01*
X174513413Y-96520001D01*
X180304532Y-96520001D01*
X180324364Y-96746686D01*
X180324366Y-96746697D01*
X180383258Y-96966488D01*
X180383261Y-96966497D01*
X180479431Y-97172732D01*
X180479432Y-97172734D01*
X180609954Y-97359141D01*
X180770858Y-97520045D01*
X180770861Y-97520047D01*
X180957266Y-97650568D01*
X181163504Y-97746739D01*
X181383308Y-97805635D01*
X181545230Y-97819801D01*
X181609998Y-97825468D01*
X181610000Y-97825468D01*
X181610002Y-97825468D01*
X181666672Y-97820509D01*
X181836692Y-97805635D01*
X182056496Y-97746739D01*
X182262734Y-97650568D01*
X182449139Y-97520047D01*
X182610047Y-97359139D01*
X182740568Y-97172734D01*
X182767618Y-97114724D01*
X182813790Y-97062285D01*
X182880983Y-97043133D01*
X182947865Y-97063348D01*
X182992381Y-97114724D01*
X183002892Y-97137265D01*
X183019429Y-97172728D01*
X183019432Y-97172734D01*
X183149954Y-97359141D01*
X183310858Y-97520045D01*
X183310861Y-97520047D01*
X183497266Y-97650568D01*
X183703504Y-97746739D01*
X183923308Y-97805635D01*
X184085230Y-97819801D01*
X184149998Y-97825468D01*
X184150000Y-97825468D01*
X184150002Y-97825468D01*
X184206672Y-97820509D01*
X184376692Y-97805635D01*
X184596496Y-97746739D01*
X184802734Y-97650568D01*
X184989139Y-97520047D01*
X185150047Y-97359139D01*
X185280568Y-97172734D01*
X185307618Y-97114724D01*
X185353790Y-97062285D01*
X185420983Y-97043133D01*
X185487865Y-97063348D01*
X185532381Y-97114724D01*
X185542892Y-97137265D01*
X185559429Y-97172728D01*
X185559432Y-97172734D01*
X185689954Y-97359141D01*
X185850858Y-97520045D01*
X185850861Y-97520047D01*
X186037266Y-97650568D01*
X186243504Y-97746739D01*
X186463308Y-97805635D01*
X186625230Y-97819801D01*
X186689998Y-97825468D01*
X186690000Y-97825468D01*
X186690002Y-97825468D01*
X186746672Y-97820509D01*
X186916692Y-97805635D01*
X187136496Y-97746739D01*
X187342734Y-97650568D01*
X187529139Y-97520047D01*
X187690047Y-97359139D01*
X187820568Y-97172734D01*
X187847618Y-97114724D01*
X187893790Y-97062285D01*
X187960983Y-97043133D01*
X188027865Y-97063348D01*
X188072381Y-97114724D01*
X188082892Y-97137265D01*
X188099429Y-97172728D01*
X188099432Y-97172734D01*
X188229954Y-97359141D01*
X188390858Y-97520045D01*
X188390861Y-97520047D01*
X188577266Y-97650568D01*
X188783504Y-97746739D01*
X189003308Y-97805635D01*
X189165230Y-97819801D01*
X189229998Y-97825468D01*
X189230000Y-97825468D01*
X189230002Y-97825468D01*
X189286672Y-97820509D01*
X189456692Y-97805635D01*
X189676496Y-97746739D01*
X189882734Y-97650568D01*
X190069139Y-97520047D01*
X190230047Y-97359139D01*
X190360568Y-97172734D01*
X190387618Y-97114724D01*
X190433790Y-97062285D01*
X190500983Y-97043133D01*
X190567865Y-97063348D01*
X190612381Y-97114724D01*
X190622892Y-97137265D01*
X190639429Y-97172728D01*
X190639432Y-97172734D01*
X190769954Y-97359141D01*
X190930858Y-97520045D01*
X190930861Y-97520047D01*
X191117266Y-97650568D01*
X191323504Y-97746739D01*
X191543308Y-97805635D01*
X191705230Y-97819801D01*
X191769998Y-97825468D01*
X191770000Y-97825468D01*
X191770002Y-97825468D01*
X191826673Y-97820509D01*
X191996692Y-97805635D01*
X192216496Y-97746739D01*
X192422734Y-97650568D01*
X192609139Y-97520047D01*
X192770047Y-97359139D01*
X192900568Y-97172734D01*
X192927618Y-97114724D01*
X192973790Y-97062285D01*
X193040983Y-97043133D01*
X193107865Y-97063348D01*
X193152381Y-97114724D01*
X193162892Y-97137265D01*
X193179429Y-97172728D01*
X193179432Y-97172734D01*
X193309954Y-97359141D01*
X193470858Y-97520045D01*
X193470861Y-97520047D01*
X193657266Y-97650568D01*
X193863504Y-97746739D01*
X194083308Y-97805635D01*
X194245230Y-97819801D01*
X194309998Y-97825468D01*
X194310000Y-97825468D01*
X194310002Y-97825468D01*
X194366673Y-97820509D01*
X194536692Y-97805635D01*
X194756496Y-97746739D01*
X194962734Y-97650568D01*
X195149139Y-97520047D01*
X195310047Y-97359139D01*
X195440568Y-97172734D01*
X195467618Y-97114724D01*
X195513790Y-97062285D01*
X195580983Y-97043133D01*
X195647865Y-97063348D01*
X195692381Y-97114724D01*
X195702892Y-97137265D01*
X195719429Y-97172728D01*
X195719432Y-97172734D01*
X195849954Y-97359141D01*
X196010858Y-97520045D01*
X196010861Y-97520047D01*
X196197266Y-97650568D01*
X196403504Y-97746739D01*
X196623308Y-97805635D01*
X196785230Y-97819801D01*
X196849998Y-97825468D01*
X196850000Y-97825468D01*
X196850002Y-97825468D01*
X196906673Y-97820509D01*
X197076692Y-97805635D01*
X197296496Y-97746739D01*
X197502734Y-97650568D01*
X197689139Y-97520047D01*
X197850047Y-97359139D01*
X197980568Y-97172734D01*
X198007618Y-97114724D01*
X198053790Y-97062285D01*
X198120983Y-97043133D01*
X198187865Y-97063348D01*
X198232381Y-97114724D01*
X198242892Y-97137265D01*
X198259429Y-97172728D01*
X198259432Y-97172734D01*
X198389954Y-97359141D01*
X198550858Y-97520045D01*
X198550861Y-97520047D01*
X198737266Y-97650568D01*
X198943504Y-97746739D01*
X199163308Y-97805635D01*
X199325230Y-97819801D01*
X199389998Y-97825468D01*
X199390000Y-97825468D01*
X199390002Y-97825468D01*
X199446672Y-97820509D01*
X199616692Y-97805635D01*
X199836496Y-97746739D01*
X200042734Y-97650568D01*
X200229139Y-97520047D01*
X200390047Y-97359139D01*
X200520568Y-97172734D01*
X200547618Y-97114724D01*
X200593790Y-97062285D01*
X200660983Y-97043133D01*
X200727865Y-97063348D01*
X200772381Y-97114724D01*
X200782892Y-97137265D01*
X200799429Y-97172728D01*
X200799432Y-97172734D01*
X200929954Y-97359141D01*
X201090858Y-97520045D01*
X201090861Y-97520047D01*
X201277266Y-97650568D01*
X201483504Y-97746739D01*
X201703308Y-97805635D01*
X201865230Y-97819801D01*
X201929998Y-97825468D01*
X201930000Y-97825468D01*
X201930002Y-97825468D01*
X201986673Y-97820509D01*
X202156692Y-97805635D01*
X202376496Y-97746739D01*
X202582734Y-97650568D01*
X202769139Y-97520047D01*
X202930047Y-97359139D01*
X203060568Y-97172734D01*
X203087618Y-97114724D01*
X203133790Y-97062285D01*
X203200983Y-97043133D01*
X203267865Y-97063348D01*
X203312381Y-97114724D01*
X203322892Y-97137265D01*
X203339429Y-97172728D01*
X203339432Y-97172734D01*
X203469954Y-97359141D01*
X203630858Y-97520045D01*
X203630861Y-97520047D01*
X203817266Y-97650568D01*
X204023504Y-97746739D01*
X204243308Y-97805635D01*
X204405230Y-97819801D01*
X204469998Y-97825468D01*
X204470000Y-97825468D01*
X204470002Y-97825468D01*
X204526672Y-97820509D01*
X204696692Y-97805635D01*
X204916496Y-97746739D01*
X205122734Y-97650568D01*
X205309139Y-97520047D01*
X205470047Y-97359139D01*
X205600568Y-97172734D01*
X205627618Y-97114724D01*
X205673790Y-97062285D01*
X205740983Y-97043133D01*
X205807865Y-97063348D01*
X205852381Y-97114724D01*
X205862892Y-97137265D01*
X205879429Y-97172728D01*
X205879432Y-97172734D01*
X206009954Y-97359141D01*
X206170858Y-97520045D01*
X206170861Y-97520047D01*
X206357266Y-97650568D01*
X206563504Y-97746739D01*
X206783308Y-97805635D01*
X206945230Y-97819801D01*
X207009998Y-97825468D01*
X207010000Y-97825468D01*
X207010002Y-97825468D01*
X207066672Y-97820509D01*
X207236692Y-97805635D01*
X207456496Y-97746739D01*
X207662734Y-97650568D01*
X207849139Y-97520047D01*
X208010047Y-97359139D01*
X208140568Y-97172734D01*
X208167618Y-97114724D01*
X208213790Y-97062285D01*
X208280983Y-97043133D01*
X208347865Y-97063348D01*
X208392381Y-97114724D01*
X208402892Y-97137265D01*
X208419429Y-97172728D01*
X208419432Y-97172734D01*
X208549954Y-97359141D01*
X208710858Y-97520045D01*
X208710861Y-97520047D01*
X208897266Y-97650568D01*
X209103504Y-97746739D01*
X209323308Y-97805635D01*
X209485230Y-97819801D01*
X209549998Y-97825468D01*
X209550000Y-97825468D01*
X209550002Y-97825468D01*
X209606672Y-97820509D01*
X209776692Y-97805635D01*
X209996496Y-97746739D01*
X210202734Y-97650568D01*
X210389139Y-97520047D01*
X210550047Y-97359139D01*
X210680568Y-97172734D01*
X210707618Y-97114724D01*
X210753790Y-97062285D01*
X210820983Y-97043133D01*
X210887865Y-97063348D01*
X210932381Y-97114724D01*
X210942892Y-97137265D01*
X210959429Y-97172728D01*
X210959432Y-97172734D01*
X211089954Y-97359141D01*
X211250858Y-97520045D01*
X211250861Y-97520047D01*
X211437266Y-97650568D01*
X211643504Y-97746739D01*
X211863308Y-97805635D01*
X212025230Y-97819801D01*
X212089998Y-97825468D01*
X212090000Y-97825468D01*
X212090002Y-97825468D01*
X212146673Y-97820509D01*
X212316692Y-97805635D01*
X212536496Y-97746739D01*
X212742734Y-97650568D01*
X212929139Y-97520047D01*
X213090047Y-97359139D01*
X213220568Y-97172734D01*
X213247895Y-97114129D01*
X213294064Y-97061695D01*
X213361257Y-97042542D01*
X213428139Y-97062757D01*
X213472657Y-97114133D01*
X213499865Y-97172482D01*
X213630342Y-97358820D01*
X213791179Y-97519657D01*
X213977517Y-97650134D01*
X214183673Y-97746265D01*
X214183682Y-97746269D01*
X214379999Y-97798872D01*
X214380000Y-97798871D01*
X214380000Y-96835686D01*
X214391955Y-96847641D01*
X214504852Y-96905165D01*
X214598519Y-96920000D01*
X214661481Y-96920000D01*
X214755148Y-96905165D01*
X214868045Y-96847641D01*
X214879999Y-96835686D01*
X214879999Y-97798871D01*
X214880000Y-97798872D01*
X215076317Y-97746269D01*
X215076326Y-97746265D01*
X215282482Y-97650134D01*
X215468820Y-97519657D01*
X215629657Y-97358820D01*
X215760134Y-97172482D01*
X215856265Y-96966326D01*
X215856269Y-96966317D01*
X215908872Y-96770000D01*
X214945686Y-96770000D01*
X214957641Y-96758045D01*
X215015165Y-96645148D01*
X215034986Y-96520000D01*
X215015165Y-96394852D01*
X214957641Y-96281955D01*
X214945686Y-96270000D01*
X215908872Y-96270000D01*
X215908872Y-96269999D01*
X215856269Y-96073682D01*
X215856265Y-96073673D01*
X215760134Y-95867517D01*
X215629657Y-95681179D01*
X215468820Y-95520342D01*
X215282482Y-95389865D01*
X215076328Y-95293734D01*
X214880000Y-95241127D01*
X214880000Y-96204314D01*
X214868045Y-96192359D01*
X214755148Y-96134835D01*
X214661481Y-96120000D01*
X214598519Y-96120000D01*
X214504852Y-96134835D01*
X214391955Y-96192359D01*
X214380000Y-96204313D01*
X214380000Y-95241127D01*
X214183671Y-95293734D01*
X213977517Y-95389865D01*
X213791179Y-95520342D01*
X213630342Y-95681179D01*
X213499867Y-95867515D01*
X213472657Y-95925867D01*
X213426484Y-95978306D01*
X213359290Y-95997457D01*
X213292409Y-95977241D01*
X213247893Y-95925865D01*
X213226580Y-95880160D01*
X213220568Y-95867266D01*
X213090047Y-95680861D01*
X213090045Y-95680858D01*
X212929141Y-95519954D01*
X212742734Y-95389432D01*
X212742732Y-95389431D01*
X212536497Y-95293261D01*
X212536488Y-95293258D01*
X212316697Y-95234366D01*
X212316693Y-95234365D01*
X212316692Y-95234365D01*
X212316691Y-95234364D01*
X212316686Y-95234364D01*
X212090002Y-95214532D01*
X212089998Y-95214532D01*
X211863313Y-95234364D01*
X211863302Y-95234366D01*
X211643511Y-95293258D01*
X211643502Y-95293261D01*
X211437267Y-95389431D01*
X211437265Y-95389432D01*
X211250858Y-95519954D01*
X211089954Y-95680858D01*
X210959432Y-95867265D01*
X210959431Y-95867267D01*
X210932382Y-95925275D01*
X210886209Y-95977714D01*
X210819016Y-95996866D01*
X210752135Y-95976650D01*
X210707618Y-95925275D01*
X210693587Y-95895185D01*
X210680568Y-95867266D01*
X210550047Y-95680861D01*
X210550045Y-95680858D01*
X210389141Y-95519954D01*
X210202734Y-95389432D01*
X210202732Y-95389431D01*
X209996497Y-95293261D01*
X209996488Y-95293258D01*
X209776697Y-95234366D01*
X209776693Y-95234365D01*
X209776692Y-95234365D01*
X209776691Y-95234364D01*
X209776686Y-95234364D01*
X209550002Y-95214532D01*
X209549998Y-95214532D01*
X209323313Y-95234364D01*
X209323302Y-95234366D01*
X209103511Y-95293258D01*
X209103502Y-95293261D01*
X208897267Y-95389431D01*
X208897265Y-95389432D01*
X208710858Y-95519954D01*
X208549954Y-95680858D01*
X208419432Y-95867265D01*
X208419431Y-95867267D01*
X208392382Y-95925275D01*
X208346209Y-95977714D01*
X208279016Y-95996866D01*
X208212135Y-95976650D01*
X208167618Y-95925275D01*
X208153587Y-95895185D01*
X208140568Y-95867266D01*
X208010047Y-95680861D01*
X208010045Y-95680858D01*
X207849141Y-95519954D01*
X207662734Y-95389432D01*
X207662732Y-95389431D01*
X207456497Y-95293261D01*
X207456488Y-95293258D01*
X207236697Y-95234366D01*
X207236693Y-95234365D01*
X207236692Y-95234365D01*
X207236691Y-95234364D01*
X207236686Y-95234364D01*
X207010002Y-95214532D01*
X207009998Y-95214532D01*
X206783313Y-95234364D01*
X206783302Y-95234366D01*
X206563511Y-95293258D01*
X206563502Y-95293261D01*
X206357267Y-95389431D01*
X206357265Y-95389432D01*
X206170858Y-95519954D01*
X206009954Y-95680858D01*
X205879432Y-95867265D01*
X205879431Y-95867267D01*
X205852382Y-95925275D01*
X205806209Y-95977714D01*
X205739016Y-95996866D01*
X205672135Y-95976650D01*
X205627618Y-95925275D01*
X205613587Y-95895185D01*
X205600568Y-95867266D01*
X205470047Y-95680861D01*
X205470045Y-95680858D01*
X205309141Y-95519954D01*
X205122734Y-95389432D01*
X205122732Y-95389431D01*
X204916497Y-95293261D01*
X204916488Y-95293258D01*
X204696697Y-95234366D01*
X204696693Y-95234365D01*
X204696692Y-95234365D01*
X204696691Y-95234364D01*
X204696686Y-95234364D01*
X204470002Y-95214532D01*
X204469998Y-95214532D01*
X204243313Y-95234364D01*
X204243302Y-95234366D01*
X204023511Y-95293258D01*
X204023502Y-95293261D01*
X203817267Y-95389431D01*
X203817265Y-95389432D01*
X203630858Y-95519954D01*
X203469954Y-95680858D01*
X203339432Y-95867265D01*
X203339431Y-95867267D01*
X203312382Y-95925275D01*
X203266209Y-95977714D01*
X203199016Y-95996866D01*
X203132135Y-95976650D01*
X203087618Y-95925275D01*
X203073587Y-95895185D01*
X203060568Y-95867266D01*
X202930047Y-95680861D01*
X202930045Y-95680858D01*
X202769141Y-95519954D01*
X202582734Y-95389432D01*
X202582732Y-95389431D01*
X202376497Y-95293261D01*
X202376488Y-95293258D01*
X202156697Y-95234366D01*
X202156693Y-95234365D01*
X202156692Y-95234365D01*
X202156691Y-95234364D01*
X202156686Y-95234364D01*
X201930002Y-95214532D01*
X201929998Y-95214532D01*
X201703313Y-95234364D01*
X201703302Y-95234366D01*
X201483511Y-95293258D01*
X201483502Y-95293261D01*
X201277267Y-95389431D01*
X201277265Y-95389432D01*
X201090858Y-95519954D01*
X200929954Y-95680858D01*
X200799432Y-95867265D01*
X200799431Y-95867267D01*
X200772382Y-95925275D01*
X200726209Y-95977714D01*
X200659016Y-95996866D01*
X200592135Y-95976650D01*
X200547618Y-95925275D01*
X200533587Y-95895185D01*
X200520568Y-95867266D01*
X200390047Y-95680861D01*
X200390045Y-95680858D01*
X200229141Y-95519954D01*
X200042734Y-95389432D01*
X200042732Y-95389431D01*
X199836497Y-95293261D01*
X199836488Y-95293258D01*
X199616697Y-95234366D01*
X199616693Y-95234365D01*
X199616692Y-95234365D01*
X199616691Y-95234364D01*
X199616686Y-95234364D01*
X199390002Y-95214532D01*
X199389998Y-95214532D01*
X199163313Y-95234364D01*
X199163302Y-95234366D01*
X198943511Y-95293258D01*
X198943502Y-95293261D01*
X198737267Y-95389431D01*
X198737265Y-95389432D01*
X198550858Y-95519954D01*
X198389954Y-95680858D01*
X198259432Y-95867265D01*
X198259431Y-95867267D01*
X198232382Y-95925275D01*
X198186209Y-95977714D01*
X198119016Y-95996866D01*
X198052135Y-95976650D01*
X198007618Y-95925275D01*
X197993587Y-95895185D01*
X197980568Y-95867266D01*
X197850047Y-95680861D01*
X197850045Y-95680858D01*
X197689141Y-95519954D01*
X197502734Y-95389432D01*
X197502732Y-95389431D01*
X197296497Y-95293261D01*
X197296488Y-95293258D01*
X197076697Y-95234366D01*
X197076693Y-95234365D01*
X197076692Y-95234365D01*
X197076691Y-95234364D01*
X197076686Y-95234364D01*
X196850002Y-95214532D01*
X196849998Y-95214532D01*
X196623313Y-95234364D01*
X196623302Y-95234366D01*
X196403511Y-95293258D01*
X196403502Y-95293261D01*
X196197267Y-95389431D01*
X196197265Y-95389432D01*
X196010858Y-95519954D01*
X195849954Y-95680858D01*
X195719432Y-95867265D01*
X195719431Y-95867267D01*
X195692382Y-95925275D01*
X195646209Y-95977714D01*
X195579016Y-95996866D01*
X195512135Y-95976650D01*
X195467618Y-95925275D01*
X195453587Y-95895185D01*
X195440568Y-95867266D01*
X195310047Y-95680861D01*
X195310045Y-95680858D01*
X195149141Y-95519954D01*
X194962734Y-95389432D01*
X194962732Y-95389431D01*
X194756497Y-95293261D01*
X194756488Y-95293258D01*
X194536697Y-95234366D01*
X194536693Y-95234365D01*
X194536692Y-95234365D01*
X194536691Y-95234364D01*
X194536686Y-95234364D01*
X194310002Y-95214532D01*
X194309998Y-95214532D01*
X194083313Y-95234364D01*
X194083302Y-95234366D01*
X193863511Y-95293258D01*
X193863502Y-95293261D01*
X193657267Y-95389431D01*
X193657265Y-95389432D01*
X193470858Y-95519954D01*
X193309954Y-95680858D01*
X193179432Y-95867265D01*
X193179431Y-95867267D01*
X193152382Y-95925275D01*
X193106209Y-95977714D01*
X193039016Y-95996866D01*
X192972135Y-95976650D01*
X192927618Y-95925275D01*
X192913587Y-95895185D01*
X192900568Y-95867266D01*
X192770047Y-95680861D01*
X192770045Y-95680858D01*
X192609141Y-95519954D01*
X192422734Y-95389432D01*
X192422732Y-95389431D01*
X192216497Y-95293261D01*
X192216488Y-95293258D01*
X191996697Y-95234366D01*
X191996693Y-95234365D01*
X191996692Y-95234365D01*
X191996691Y-95234364D01*
X191996686Y-95234364D01*
X191770002Y-95214532D01*
X191769998Y-95214532D01*
X191543313Y-95234364D01*
X191543302Y-95234366D01*
X191323511Y-95293258D01*
X191323502Y-95293261D01*
X191117267Y-95389431D01*
X191117265Y-95389432D01*
X190930858Y-95519954D01*
X190769954Y-95680858D01*
X190639432Y-95867265D01*
X190639431Y-95867267D01*
X190612382Y-95925275D01*
X190566209Y-95977714D01*
X190499016Y-95996866D01*
X190432135Y-95976650D01*
X190387618Y-95925275D01*
X190373587Y-95895185D01*
X190360568Y-95867266D01*
X190230047Y-95680861D01*
X190230045Y-95680858D01*
X190069141Y-95519954D01*
X189882734Y-95389432D01*
X189882732Y-95389431D01*
X189676497Y-95293261D01*
X189676488Y-95293258D01*
X189456697Y-95234366D01*
X189456693Y-95234365D01*
X189456692Y-95234365D01*
X189456691Y-95234364D01*
X189456686Y-95234364D01*
X189230002Y-95214532D01*
X189229998Y-95214532D01*
X189003313Y-95234364D01*
X189003302Y-95234366D01*
X188783511Y-95293258D01*
X188783502Y-95293261D01*
X188577267Y-95389431D01*
X188577265Y-95389432D01*
X188390858Y-95519954D01*
X188229954Y-95680858D01*
X188099432Y-95867265D01*
X188099431Y-95867267D01*
X188072382Y-95925275D01*
X188026209Y-95977714D01*
X187959016Y-95996866D01*
X187892135Y-95976650D01*
X187847618Y-95925275D01*
X187833587Y-95895185D01*
X187820568Y-95867266D01*
X187690047Y-95680861D01*
X187690045Y-95680858D01*
X187529141Y-95519954D01*
X187342734Y-95389432D01*
X187342732Y-95389431D01*
X187136497Y-95293261D01*
X187136488Y-95293258D01*
X186916697Y-95234366D01*
X186916693Y-95234365D01*
X186916692Y-95234365D01*
X186916691Y-95234364D01*
X186916686Y-95234364D01*
X186690002Y-95214532D01*
X186689998Y-95214532D01*
X186463313Y-95234364D01*
X186463302Y-95234366D01*
X186243511Y-95293258D01*
X186243502Y-95293261D01*
X186037267Y-95389431D01*
X186037265Y-95389432D01*
X185850858Y-95519954D01*
X185689954Y-95680858D01*
X185559432Y-95867265D01*
X185559431Y-95867267D01*
X185532382Y-95925275D01*
X185486209Y-95977714D01*
X185419016Y-95996866D01*
X185352135Y-95976650D01*
X185307618Y-95925275D01*
X185293587Y-95895185D01*
X185280568Y-95867266D01*
X185150047Y-95680861D01*
X185150045Y-95680858D01*
X184989141Y-95519954D01*
X184802734Y-95389432D01*
X184802732Y-95389431D01*
X184596497Y-95293261D01*
X184596488Y-95293258D01*
X184376697Y-95234366D01*
X184376693Y-95234365D01*
X184376692Y-95234365D01*
X184376691Y-95234364D01*
X184376686Y-95234364D01*
X184150002Y-95214532D01*
X184149998Y-95214532D01*
X183923313Y-95234364D01*
X183923302Y-95234366D01*
X183703511Y-95293258D01*
X183703502Y-95293261D01*
X183497267Y-95389431D01*
X183497265Y-95389432D01*
X183310858Y-95519954D01*
X183149954Y-95680858D01*
X183019432Y-95867265D01*
X183019431Y-95867267D01*
X182992382Y-95925275D01*
X182946209Y-95977714D01*
X182879016Y-95996866D01*
X182812135Y-95976650D01*
X182767618Y-95925275D01*
X182753587Y-95895185D01*
X182740568Y-95867266D01*
X182610047Y-95680861D01*
X182610045Y-95680858D01*
X182449141Y-95519954D01*
X182262734Y-95389432D01*
X182262732Y-95389431D01*
X182056497Y-95293261D01*
X182056488Y-95293258D01*
X181836697Y-95234366D01*
X181836693Y-95234365D01*
X181836692Y-95234365D01*
X181836691Y-95234364D01*
X181836686Y-95234364D01*
X181610002Y-95214532D01*
X181609998Y-95214532D01*
X181383313Y-95234364D01*
X181383302Y-95234366D01*
X181163511Y-95293258D01*
X181163502Y-95293261D01*
X180957267Y-95389431D01*
X180957265Y-95389432D01*
X180770858Y-95519954D01*
X180609954Y-95680858D01*
X180479432Y-95867265D01*
X180479431Y-95867267D01*
X180383261Y-96073502D01*
X180383258Y-96073511D01*
X180324366Y-96293302D01*
X180324364Y-96293313D01*
X180304532Y-96519998D01*
X180304532Y-96520001D01*
X174513413Y-96520001D01*
X174513133Y-96519017D01*
X174533348Y-96452135D01*
X174584725Y-96407618D01*
X174642734Y-96380568D01*
X174829139Y-96250047D01*
X174990047Y-96089139D01*
X175120568Y-95902734D01*
X175216739Y-95696496D01*
X175275635Y-95476692D01*
X175295468Y-95250000D01*
X175275635Y-95023308D01*
X175216739Y-94803504D01*
X175120568Y-94597266D01*
X174990047Y-94410861D01*
X174990045Y-94410858D01*
X174829141Y-94249954D01*
X174642734Y-94119432D01*
X174642728Y-94119429D01*
X174584725Y-94092382D01*
X174532285Y-94046210D01*
X174513133Y-93979017D01*
X174533348Y-93912135D01*
X174584725Y-93867618D01*
X174642734Y-93840568D01*
X174829139Y-93710047D01*
X174990047Y-93549139D01*
X175120568Y-93362734D01*
X175216739Y-93156496D01*
X175275635Y-92936692D01*
X175295468Y-92710000D01*
X175275635Y-92483308D01*
X175216739Y-92263504D01*
X175120568Y-92057266D01*
X175005608Y-91893084D01*
X174990045Y-91870858D01*
X174829141Y-91709954D01*
X174642734Y-91579432D01*
X174642728Y-91579429D01*
X174584725Y-91552382D01*
X174532285Y-91506210D01*
X174513133Y-91439017D01*
X174533348Y-91372135D01*
X174584725Y-91327618D01*
X174642734Y-91300568D01*
X174829139Y-91170047D01*
X174989186Y-91010000D01*
X187864341Y-91010000D01*
X187884936Y-91245403D01*
X187884938Y-91245413D01*
X187946094Y-91473655D01*
X187946096Y-91473659D01*
X187946097Y-91473663D01*
X187995417Y-91579429D01*
X188045965Y-91687830D01*
X188045967Y-91687834D01*
X188061456Y-91709954D01*
X188181505Y-91881401D01*
X188348599Y-92048495D01*
X188445384Y-92116264D01*
X188542165Y-92184032D01*
X188542167Y-92184033D01*
X188542170Y-92184035D01*
X188756337Y-92283903D01*
X188984592Y-92345063D01*
X189161034Y-92360500D01*
X189219999Y-92365659D01*
X189220000Y-92365659D01*
X189220001Y-92365659D01*
X189278966Y-92360500D01*
X189455408Y-92345063D01*
X189683663Y-92283903D01*
X189897830Y-92184035D01*
X190091401Y-92048495D01*
X190258495Y-91881401D01*
X190388424Y-91695842D01*
X190443002Y-91652217D01*
X190512500Y-91645023D01*
X190574855Y-91676546D01*
X190591575Y-91695842D01*
X190721500Y-91881395D01*
X190721505Y-91881401D01*
X190888599Y-92048495D01*
X190985384Y-92116264D01*
X191082165Y-92184032D01*
X191082167Y-92184033D01*
X191082170Y-92184035D01*
X191296337Y-92283903D01*
X191524592Y-92345063D01*
X191701034Y-92360500D01*
X191759999Y-92365659D01*
X191760000Y-92365659D01*
X191760001Y-92365659D01*
X191818966Y-92360500D01*
X191995408Y-92345063D01*
X192223663Y-92283903D01*
X192437830Y-92184035D01*
X192631401Y-92048495D01*
X192798495Y-91881401D01*
X192928424Y-91695842D01*
X192983002Y-91652217D01*
X193052500Y-91645023D01*
X193114855Y-91676546D01*
X193131575Y-91695842D01*
X193261500Y-91881395D01*
X193261505Y-91881401D01*
X193428599Y-92048495D01*
X193525384Y-92116264D01*
X193622165Y-92184032D01*
X193622167Y-92184033D01*
X193622170Y-92184035D01*
X193836337Y-92283903D01*
X194064592Y-92345063D01*
X194241034Y-92360500D01*
X194299999Y-92365659D01*
X194300000Y-92365659D01*
X194300001Y-92365659D01*
X194358966Y-92360500D01*
X194535408Y-92345063D01*
X194763663Y-92283903D01*
X194977830Y-92184035D01*
X195171401Y-92048495D01*
X195293329Y-91926566D01*
X195354648Y-91893084D01*
X195424340Y-91898068D01*
X195480274Y-91939939D01*
X195497189Y-91970917D01*
X195546202Y-92102328D01*
X195546206Y-92102335D01*
X195632452Y-92217544D01*
X195632455Y-92217547D01*
X195747664Y-92303793D01*
X195747671Y-92303797D01*
X195882517Y-92354091D01*
X195882516Y-92354091D01*
X195889444Y-92354835D01*
X195942127Y-92360500D01*
X197737872Y-92360499D01*
X197797483Y-92354091D01*
X197932331Y-92303796D01*
X198047546Y-92217546D01*
X198133796Y-92102331D01*
X198184091Y-91967483D01*
X198190500Y-91907873D01*
X198190500Y-91907870D01*
X199309500Y-91907870D01*
X199309501Y-91907876D01*
X199315908Y-91967483D01*
X199366202Y-92102328D01*
X199366206Y-92102335D01*
X199452452Y-92217544D01*
X199452455Y-92217547D01*
X199567664Y-92303793D01*
X199567671Y-92303797D01*
X199702517Y-92354091D01*
X199702516Y-92354091D01*
X199709444Y-92354835D01*
X199762127Y-92360500D01*
X201557872Y-92360499D01*
X201617483Y-92354091D01*
X201752331Y-92303796D01*
X201867546Y-92217546D01*
X201953796Y-92102331D01*
X202002810Y-91970916D01*
X202044681Y-91914984D01*
X202110145Y-91890566D01*
X202178418Y-91905417D01*
X202206673Y-91926569D01*
X202328599Y-92048495D01*
X202425384Y-92116264D01*
X202522165Y-92184032D01*
X202522167Y-92184033D01*
X202522170Y-92184035D01*
X202736337Y-92283903D01*
X202964592Y-92345063D01*
X203141034Y-92360500D01*
X203199999Y-92365659D01*
X203200000Y-92365659D01*
X203200001Y-92365659D01*
X203258966Y-92360500D01*
X203435408Y-92345063D01*
X203663663Y-92283903D01*
X203877830Y-92184035D01*
X204071401Y-92048495D01*
X204238495Y-91881401D01*
X204368424Y-91695842D01*
X204423002Y-91652217D01*
X204492500Y-91645023D01*
X204554855Y-91676546D01*
X204571575Y-91695842D01*
X204701500Y-91881395D01*
X204701505Y-91881401D01*
X204868599Y-92048495D01*
X204965384Y-92116264D01*
X205062165Y-92184032D01*
X205062167Y-92184033D01*
X205062170Y-92184035D01*
X205276337Y-92283903D01*
X205504592Y-92345063D01*
X205681034Y-92360500D01*
X205739999Y-92365659D01*
X205740000Y-92365659D01*
X205740001Y-92365659D01*
X205798966Y-92360500D01*
X205975408Y-92345063D01*
X206203663Y-92283903D01*
X206417830Y-92184035D01*
X206611401Y-92048495D01*
X206778495Y-91881401D01*
X206908424Y-91695842D01*
X206963002Y-91652217D01*
X207032500Y-91645023D01*
X207094855Y-91676546D01*
X207111575Y-91695842D01*
X207241500Y-91881395D01*
X207241505Y-91881401D01*
X207408599Y-92048495D01*
X207505384Y-92116264D01*
X207602165Y-92184032D01*
X207602167Y-92184033D01*
X207602170Y-92184035D01*
X207816337Y-92283903D01*
X208044592Y-92345063D01*
X208221034Y-92360500D01*
X208279999Y-92365659D01*
X208280000Y-92365659D01*
X208280001Y-92365659D01*
X208338966Y-92360500D01*
X208515408Y-92345063D01*
X208743663Y-92283903D01*
X208957830Y-92184035D01*
X209151401Y-92048495D01*
X209318495Y-91881401D01*
X209454035Y-91687830D01*
X209553903Y-91473663D01*
X209615063Y-91245408D01*
X209635659Y-91010000D01*
X209633946Y-90990426D01*
X209627172Y-90912995D01*
X209615063Y-90774592D01*
X209559137Y-90565869D01*
X209553905Y-90546344D01*
X209553904Y-90546343D01*
X209553903Y-90546337D01*
X209454035Y-90332171D01*
X209448425Y-90324158D01*
X209318494Y-90138597D01*
X209151402Y-89971506D01*
X209151395Y-89971501D01*
X208957834Y-89835967D01*
X208957830Y-89835965D01*
X208957829Y-89835964D01*
X208743663Y-89736097D01*
X208743659Y-89736096D01*
X208743655Y-89736094D01*
X208515413Y-89674938D01*
X208515403Y-89674936D01*
X208280001Y-89654341D01*
X208279999Y-89654341D01*
X208044596Y-89674936D01*
X208044586Y-89674938D01*
X207816344Y-89736094D01*
X207816335Y-89736098D01*
X207602171Y-89835964D01*
X207602169Y-89835965D01*
X207408597Y-89971505D01*
X207241505Y-90138597D01*
X207111575Y-90324158D01*
X207056998Y-90367783D01*
X206987500Y-90374977D01*
X206925145Y-90343454D01*
X206908425Y-90324158D01*
X206778494Y-90138597D01*
X206611402Y-89971506D01*
X206611395Y-89971501D01*
X206417834Y-89835967D01*
X206417830Y-89835965D01*
X206417828Y-89835964D01*
X206203663Y-89736097D01*
X206203659Y-89736096D01*
X206203655Y-89736094D01*
X205975413Y-89674938D01*
X205975403Y-89674936D01*
X205740001Y-89654341D01*
X205739999Y-89654341D01*
X205504596Y-89674936D01*
X205504586Y-89674938D01*
X205276344Y-89736094D01*
X205276335Y-89736098D01*
X205062171Y-89835964D01*
X205062169Y-89835965D01*
X204868597Y-89971505D01*
X204701508Y-90138594D01*
X204571574Y-90324160D01*
X204516997Y-90367784D01*
X204447498Y-90374977D01*
X204385144Y-90343455D01*
X204368429Y-90324164D01*
X204238495Y-90138599D01*
X204238493Y-90138596D01*
X204071402Y-89971506D01*
X204071395Y-89971501D01*
X203877834Y-89835967D01*
X203877830Y-89835965D01*
X203877828Y-89835964D01*
X203663663Y-89736097D01*
X203663659Y-89736096D01*
X203663655Y-89736094D01*
X203435413Y-89674938D01*
X203435403Y-89674936D01*
X203200001Y-89654341D01*
X203199999Y-89654341D01*
X202964596Y-89674936D01*
X202964586Y-89674938D01*
X202736344Y-89736094D01*
X202736335Y-89736098D01*
X202522171Y-89835964D01*
X202522169Y-89835965D01*
X202328600Y-89971503D01*
X202206673Y-90093430D01*
X202145350Y-90126914D01*
X202075658Y-90121930D01*
X202019725Y-90080058D01*
X202002810Y-90049081D01*
X201953797Y-89917671D01*
X201953793Y-89917664D01*
X201867547Y-89802455D01*
X201867544Y-89802452D01*
X201752335Y-89716206D01*
X201752328Y-89716202D01*
X201617482Y-89665908D01*
X201617483Y-89665908D01*
X201557883Y-89659501D01*
X201557881Y-89659500D01*
X201557873Y-89659500D01*
X201557864Y-89659500D01*
X199762129Y-89659500D01*
X199762123Y-89659501D01*
X199702516Y-89665908D01*
X199567671Y-89716202D01*
X199567664Y-89716206D01*
X199452455Y-89802452D01*
X199452452Y-89802455D01*
X199366206Y-89917664D01*
X199366202Y-89917671D01*
X199315908Y-90052517D01*
X199309501Y-90112116D01*
X199309501Y-90112123D01*
X199309500Y-90112135D01*
X199309500Y-91907870D01*
X198190500Y-91907870D01*
X198190499Y-90112128D01*
X198184091Y-90052517D01*
X198182810Y-90049083D01*
X198133797Y-89917671D01*
X198133793Y-89917664D01*
X198047547Y-89802455D01*
X198047544Y-89802452D01*
X197932335Y-89716206D01*
X197932328Y-89716202D01*
X197797482Y-89665908D01*
X197797483Y-89665908D01*
X197737883Y-89659501D01*
X197737881Y-89659500D01*
X197737873Y-89659500D01*
X197737864Y-89659500D01*
X195942129Y-89659500D01*
X195942123Y-89659501D01*
X195882516Y-89665908D01*
X195747671Y-89716202D01*
X195747664Y-89716206D01*
X195632455Y-89802452D01*
X195632452Y-89802455D01*
X195546206Y-89917664D01*
X195546203Y-89917669D01*
X195497189Y-90049083D01*
X195455317Y-90105016D01*
X195389853Y-90129433D01*
X195321580Y-90114581D01*
X195293326Y-90093430D01*
X195171402Y-89971506D01*
X195171395Y-89971501D01*
X194977834Y-89835967D01*
X194977830Y-89835965D01*
X194977828Y-89835964D01*
X194763663Y-89736097D01*
X194763659Y-89736096D01*
X194763655Y-89736094D01*
X194535413Y-89674938D01*
X194535403Y-89674936D01*
X194300001Y-89654341D01*
X194299999Y-89654341D01*
X194064596Y-89674936D01*
X194064586Y-89674938D01*
X193836344Y-89736094D01*
X193836335Y-89736098D01*
X193622171Y-89835964D01*
X193622169Y-89835965D01*
X193428597Y-89971505D01*
X193261508Y-90138594D01*
X193131574Y-90324160D01*
X193076997Y-90367784D01*
X193007498Y-90374977D01*
X192945144Y-90343455D01*
X192928429Y-90324164D01*
X192798495Y-90138599D01*
X192798493Y-90138596D01*
X192631402Y-89971506D01*
X192631395Y-89971501D01*
X192437834Y-89835967D01*
X192437830Y-89835965D01*
X192437828Y-89835964D01*
X192223663Y-89736097D01*
X192223659Y-89736096D01*
X192223655Y-89736094D01*
X191995413Y-89674938D01*
X191995403Y-89674936D01*
X191760001Y-89654341D01*
X191759999Y-89654341D01*
X191524596Y-89674936D01*
X191524586Y-89674938D01*
X191296344Y-89736094D01*
X191296335Y-89736098D01*
X191082171Y-89835964D01*
X191082169Y-89835965D01*
X190888597Y-89971505D01*
X190721505Y-90138597D01*
X190591575Y-90324158D01*
X190536998Y-90367783D01*
X190467500Y-90374977D01*
X190405145Y-90343454D01*
X190388425Y-90324158D01*
X190258494Y-90138597D01*
X190091402Y-89971506D01*
X190091395Y-89971501D01*
X189897834Y-89835967D01*
X189897830Y-89835965D01*
X189897828Y-89835964D01*
X189683663Y-89736097D01*
X189683659Y-89736096D01*
X189683655Y-89736094D01*
X189455413Y-89674938D01*
X189455403Y-89674936D01*
X189220001Y-89654341D01*
X189219999Y-89654341D01*
X188984596Y-89674936D01*
X188984586Y-89674938D01*
X188756344Y-89736094D01*
X188756335Y-89736098D01*
X188542171Y-89835964D01*
X188542169Y-89835965D01*
X188348597Y-89971505D01*
X188181505Y-90138597D01*
X188045965Y-90332169D01*
X188045964Y-90332171D01*
X187946098Y-90546335D01*
X187946094Y-90546344D01*
X187884938Y-90774586D01*
X187884936Y-90774596D01*
X187864341Y-91009999D01*
X187864341Y-91010000D01*
X174989186Y-91010000D01*
X174990047Y-91009139D01*
X175120568Y-90822734D01*
X175216739Y-90616496D01*
X175275635Y-90396692D01*
X175295468Y-90170000D01*
X175291698Y-90126914D01*
X175287599Y-90080058D01*
X175275635Y-89943308D01*
X175220113Y-89736097D01*
X175216741Y-89723511D01*
X175216738Y-89723502D01*
X175215773Y-89721432D01*
X175120568Y-89517266D01*
X174990047Y-89330861D01*
X174990045Y-89330858D01*
X174829141Y-89169954D01*
X174642734Y-89039432D01*
X174642728Y-89039429D01*
X174615038Y-89026517D01*
X174584724Y-89012381D01*
X174532285Y-88966210D01*
X174513133Y-88899017D01*
X174533348Y-88832135D01*
X174584725Y-88787618D01*
X174642734Y-88760568D01*
X174829139Y-88630047D01*
X174990047Y-88469139D01*
X175120568Y-88282734D01*
X175216739Y-88076496D01*
X175275635Y-87856692D01*
X175295468Y-87630000D01*
X175275635Y-87403308D01*
X175216739Y-87183504D01*
X175120568Y-86977266D01*
X174990049Y-86790864D01*
X174990045Y-86790858D01*
X174829141Y-86629954D01*
X174642734Y-86499432D01*
X174642728Y-86499429D01*
X174584725Y-86472382D01*
X174532285Y-86426210D01*
X174513413Y-86360000D01*
X187874341Y-86360000D01*
X187894936Y-86595403D01*
X187894938Y-86595413D01*
X187956094Y-86823655D01*
X187956096Y-86823659D01*
X187956097Y-86823663D01*
X188027724Y-86977267D01*
X188055965Y-87037830D01*
X188055967Y-87037834D01*
X188120503Y-87130000D01*
X188191505Y-87231401D01*
X188358599Y-87398495D01*
X188455384Y-87466265D01*
X188552165Y-87534032D01*
X188552167Y-87534033D01*
X188552170Y-87534035D01*
X188766337Y-87633903D01*
X188994592Y-87695063D01*
X189182918Y-87711539D01*
X189229999Y-87715659D01*
X189230000Y-87715659D01*
X189230001Y-87715659D01*
X189269234Y-87712226D01*
X189465408Y-87695063D01*
X189693663Y-87633903D01*
X189907830Y-87534035D01*
X190101401Y-87398495D01*
X190268495Y-87231401D01*
X190404035Y-87037830D01*
X190503903Y-86823663D01*
X190565063Y-86595408D01*
X190585659Y-86360000D01*
X192954341Y-86360000D01*
X192974936Y-86595403D01*
X192974938Y-86595413D01*
X193036094Y-86823655D01*
X193036096Y-86823659D01*
X193036097Y-86823663D01*
X193107724Y-86977267D01*
X193135965Y-87037830D01*
X193135967Y-87037834D01*
X193200503Y-87130000D01*
X193271505Y-87231401D01*
X193438599Y-87398495D01*
X193535384Y-87466265D01*
X193632165Y-87534032D01*
X193632167Y-87534033D01*
X193632170Y-87534035D01*
X193846337Y-87633903D01*
X194074592Y-87695063D01*
X194262918Y-87711539D01*
X194309999Y-87715659D01*
X194310000Y-87715659D01*
X194310001Y-87715659D01*
X194349234Y-87712226D01*
X194545408Y-87695063D01*
X194773663Y-87633903D01*
X194987830Y-87534035D01*
X195181401Y-87398495D01*
X195348495Y-87231401D01*
X195484035Y-87037830D01*
X195583903Y-86823663D01*
X195645063Y-86595408D01*
X195665659Y-86360000D01*
X195645063Y-86124592D01*
X195583903Y-85896337D01*
X195484035Y-85682171D01*
X195419496Y-85590000D01*
X195348496Y-85488600D01*
X195348495Y-85488599D01*
X195226179Y-85366283D01*
X195192696Y-85304963D01*
X195197680Y-85235271D01*
X195239551Y-85179337D01*
X195270529Y-85162422D01*
X195402086Y-85113354D01*
X195402093Y-85113350D01*
X195517187Y-85027190D01*
X195517190Y-85027187D01*
X195603350Y-84912093D01*
X195603354Y-84912086D01*
X195653596Y-84777379D01*
X195653598Y-84777372D01*
X195659999Y-84717844D01*
X195660000Y-84717827D01*
X195660000Y-84070000D01*
X194743686Y-84070000D01*
X194769493Y-84029844D01*
X194810000Y-83891889D01*
X194810000Y-83748111D01*
X194769493Y-83610156D01*
X194743686Y-83570000D01*
X195660000Y-83570000D01*
X195660000Y-82922172D01*
X195659999Y-82922155D01*
X195653598Y-82862627D01*
X195653596Y-82862620D01*
X195603354Y-82727913D01*
X195603350Y-82727906D01*
X195517190Y-82612812D01*
X195517187Y-82612809D01*
X195402093Y-82526649D01*
X195402086Y-82526645D01*
X195267379Y-82476403D01*
X195267372Y-82476401D01*
X195207844Y-82470000D01*
X194560000Y-82470000D01*
X194560000Y-83384498D01*
X194452315Y-83335320D01*
X194345763Y-83320000D01*
X194274237Y-83320000D01*
X194167685Y-83335320D01*
X194060000Y-83384498D01*
X194060000Y-82470000D01*
X193412155Y-82470000D01*
X193352627Y-82476401D01*
X193352620Y-82476403D01*
X193217913Y-82526645D01*
X193217906Y-82526649D01*
X193102812Y-82612809D01*
X193102809Y-82612812D01*
X193016649Y-82727906D01*
X193016645Y-82727913D01*
X192966403Y-82862620D01*
X192966401Y-82862627D01*
X192960000Y-82922155D01*
X192960000Y-83570000D01*
X193876314Y-83570000D01*
X193850507Y-83610156D01*
X193810000Y-83748111D01*
X193810000Y-83891889D01*
X193850507Y-84029844D01*
X193876314Y-84070000D01*
X192960000Y-84070000D01*
X192960000Y-84717844D01*
X192966401Y-84777372D01*
X192966403Y-84777379D01*
X193016645Y-84912086D01*
X193016649Y-84912093D01*
X193102809Y-85027187D01*
X193102812Y-85027190D01*
X193217906Y-85113350D01*
X193217913Y-85113354D01*
X193349470Y-85162421D01*
X193405403Y-85204292D01*
X193429821Y-85269756D01*
X193414970Y-85338029D01*
X193393819Y-85366284D01*
X193271503Y-85488600D01*
X193135965Y-85682169D01*
X193135964Y-85682171D01*
X193036098Y-85896335D01*
X193036094Y-85896344D01*
X192974938Y-86124586D01*
X192974936Y-86124596D01*
X192954341Y-86359999D01*
X192954341Y-86360000D01*
X190585659Y-86360000D01*
X190565063Y-86124592D01*
X190503903Y-85896337D01*
X190404035Y-85682171D01*
X190339496Y-85590000D01*
X190268496Y-85488600D01*
X190268495Y-85488599D01*
X190146179Y-85366283D01*
X190112696Y-85304963D01*
X190117680Y-85235271D01*
X190159551Y-85179337D01*
X190190529Y-85162422D01*
X190322086Y-85113354D01*
X190322093Y-85113350D01*
X190437187Y-85027190D01*
X190437190Y-85027187D01*
X190523350Y-84912093D01*
X190523354Y-84912086D01*
X190573596Y-84777379D01*
X190573598Y-84777372D01*
X190579999Y-84717844D01*
X190580000Y-84717827D01*
X190580000Y-84070000D01*
X189663686Y-84070000D01*
X189689493Y-84029844D01*
X189730000Y-83891889D01*
X189730000Y-83748111D01*
X189689493Y-83610156D01*
X189663686Y-83570000D01*
X190580000Y-83570000D01*
X190580000Y-82922172D01*
X190579999Y-82922155D01*
X190573598Y-82862627D01*
X190573596Y-82862620D01*
X190523354Y-82727913D01*
X190523350Y-82727906D01*
X190437190Y-82612812D01*
X190437187Y-82612809D01*
X190322093Y-82526649D01*
X190322086Y-82526645D01*
X190187379Y-82476403D01*
X190187372Y-82476401D01*
X190127844Y-82470000D01*
X189480000Y-82470000D01*
X189480000Y-83384498D01*
X189372315Y-83335320D01*
X189265763Y-83320000D01*
X189194237Y-83320000D01*
X189087685Y-83335320D01*
X188980000Y-83384498D01*
X188980000Y-82470000D01*
X188332155Y-82470000D01*
X188272627Y-82476401D01*
X188272620Y-82476403D01*
X188137913Y-82526645D01*
X188137906Y-82526649D01*
X188022812Y-82612809D01*
X188022809Y-82612812D01*
X187936649Y-82727906D01*
X187936645Y-82727913D01*
X187886403Y-82862620D01*
X187886401Y-82862627D01*
X187880000Y-82922155D01*
X187880000Y-83570000D01*
X188796314Y-83570000D01*
X188770507Y-83610156D01*
X188730000Y-83748111D01*
X188730000Y-83891889D01*
X188770507Y-84029844D01*
X188796314Y-84070000D01*
X187880000Y-84070000D01*
X187880000Y-84717844D01*
X187886401Y-84777372D01*
X187886403Y-84777379D01*
X187936645Y-84912086D01*
X187936649Y-84912093D01*
X188022809Y-85027187D01*
X188022812Y-85027190D01*
X188137906Y-85113350D01*
X188137913Y-85113354D01*
X188269470Y-85162421D01*
X188325403Y-85204292D01*
X188349821Y-85269756D01*
X188334970Y-85338029D01*
X188313819Y-85366284D01*
X188191503Y-85488600D01*
X188055965Y-85682169D01*
X188055964Y-85682171D01*
X187956098Y-85896335D01*
X187956094Y-85896344D01*
X187894938Y-86124586D01*
X187894936Y-86124596D01*
X187874341Y-86359999D01*
X187874341Y-86360000D01*
X174513413Y-86360000D01*
X174513133Y-86359017D01*
X174533348Y-86292135D01*
X174584725Y-86247618D01*
X174585319Y-86247341D01*
X174642734Y-86220568D01*
X174829139Y-86090047D01*
X174990047Y-85929139D01*
X175120568Y-85742734D01*
X175216739Y-85536496D01*
X175275635Y-85316692D01*
X175295468Y-85090000D01*
X175275635Y-84863308D01*
X175216739Y-84643504D01*
X175120568Y-84437266D01*
X174990047Y-84250861D01*
X174990045Y-84250858D01*
X174829141Y-84089954D01*
X174642734Y-83959432D01*
X174642728Y-83959429D01*
X174584725Y-83932382D01*
X174532285Y-83886210D01*
X174513133Y-83819017D01*
X174533348Y-83752135D01*
X174584725Y-83707618D01*
X174642734Y-83680568D01*
X174829139Y-83550047D01*
X174990047Y-83389139D01*
X175120568Y-83202734D01*
X175216739Y-82996496D01*
X175275635Y-82776692D01*
X175292634Y-82582384D01*
X175295468Y-82550001D01*
X175295468Y-82549998D01*
X175289029Y-82476401D01*
X175275635Y-82323308D01*
X175216739Y-82103504D01*
X175120568Y-81897266D01*
X174990047Y-81710861D01*
X174990045Y-81710858D01*
X174829141Y-81549954D01*
X174642734Y-81419432D01*
X174642732Y-81419431D01*
X174584725Y-81392382D01*
X174584132Y-81392105D01*
X174531694Y-81345934D01*
X174512542Y-81278740D01*
X174532758Y-81211859D01*
X174584134Y-81167341D01*
X174642484Y-81140132D01*
X174828820Y-81009657D01*
X174989657Y-80848820D01*
X175120134Y-80662482D01*
X175216265Y-80456326D01*
X175216269Y-80456317D01*
X175268872Y-80260000D01*
X174423686Y-80260000D01*
X174449493Y-80219844D01*
X174490000Y-80081889D01*
X174490000Y-79938111D01*
X174449493Y-79800156D01*
X174423686Y-79760000D01*
X175268872Y-79760000D01*
X175268872Y-79759999D01*
X175216269Y-79563682D01*
X175216265Y-79563673D01*
X175120134Y-79357517D01*
X174989657Y-79171179D01*
X174828820Y-79010342D01*
X174642482Y-78879865D01*
X174584133Y-78852657D01*
X174531694Y-78806484D01*
X174512542Y-78739291D01*
X174532758Y-78672410D01*
X174584129Y-78627895D01*
X174642734Y-78600568D01*
X174829139Y-78470047D01*
X174990047Y-78309139D01*
X175120568Y-78122734D01*
X175216739Y-77916496D01*
X175275635Y-77696692D01*
X175295468Y-77470000D01*
X175294695Y-77461170D01*
X175283489Y-77333084D01*
X175275635Y-77243308D01*
X175227191Y-77062511D01*
X175216741Y-77023511D01*
X175216738Y-77023502D01*
X175209842Y-77008713D01*
X175120568Y-76817266D01*
X174990047Y-76630861D01*
X174990045Y-76630858D01*
X174829141Y-76469954D01*
X174642734Y-76339432D01*
X174642732Y-76339431D01*
X174436497Y-76243261D01*
X174436488Y-76243258D01*
X174216697Y-76184366D01*
X174216693Y-76184365D01*
X174216692Y-76184365D01*
X174216691Y-76184364D01*
X174216686Y-76184364D01*
X173990002Y-76164532D01*
X173989998Y-76164532D01*
X173763313Y-76184364D01*
X173763302Y-76184366D01*
X173543511Y-76243258D01*
X173543502Y-76243261D01*
X173337267Y-76339431D01*
X173337265Y-76339432D01*
X173150858Y-76469954D01*
X172989954Y-76630858D01*
X172859432Y-76817265D01*
X172859431Y-76817267D01*
X172763261Y-77023502D01*
X172763258Y-77023511D01*
X172704366Y-77243302D01*
X172704364Y-77243313D01*
X172684532Y-77469998D01*
X172684532Y-77470001D01*
X172704364Y-77696686D01*
X172704366Y-77696697D01*
X172763258Y-77916488D01*
X172763261Y-77916497D01*
X172859431Y-78122732D01*
X172859432Y-78122734D01*
X172989954Y-78309141D01*
X173150858Y-78470045D01*
X173150861Y-78470047D01*
X173337266Y-78600568D01*
X173395865Y-78627893D01*
X173448305Y-78674065D01*
X173467457Y-78741258D01*
X173447242Y-78808139D01*
X173395867Y-78852657D01*
X173337515Y-78879867D01*
X173151179Y-79010342D01*
X172990342Y-79171179D01*
X172859865Y-79357517D01*
X172763734Y-79563673D01*
X172763730Y-79563682D01*
X172711127Y-79759999D01*
X172711128Y-79760000D01*
X173556314Y-79760000D01*
X173530507Y-79800156D01*
X173490000Y-79938111D01*
X173490000Y-80081889D01*
X173530507Y-80219844D01*
X173556314Y-80260000D01*
X172711128Y-80260000D01*
X172763730Y-80456317D01*
X172763734Y-80456326D01*
X172859865Y-80662482D01*
X172990342Y-80848820D01*
X173151179Y-81009657D01*
X173337518Y-81140134D01*
X173337520Y-81140135D01*
X173395865Y-81167342D01*
X173448305Y-81213514D01*
X173467457Y-81280707D01*
X173447242Y-81347589D01*
X173395867Y-81392105D01*
X173337268Y-81419431D01*
X173337264Y-81419433D01*
X173150858Y-81549954D01*
X172989954Y-81710858D01*
X172859432Y-81897265D01*
X172859431Y-81897267D01*
X172763261Y-82103502D01*
X172763258Y-82103511D01*
X172704366Y-82323302D01*
X172704364Y-82323313D01*
X172684532Y-82549998D01*
X172684532Y-82550001D01*
X172704364Y-82776686D01*
X172704366Y-82776697D01*
X172763258Y-82996488D01*
X172763261Y-82996497D01*
X172859431Y-83202732D01*
X172859432Y-83202734D01*
X172989954Y-83389141D01*
X173150858Y-83550045D01*
X173150861Y-83550047D01*
X173337266Y-83680568D01*
X173395275Y-83707618D01*
X173447714Y-83753791D01*
X173466866Y-83820984D01*
X173446650Y-83887865D01*
X173395275Y-83932382D01*
X173337267Y-83959431D01*
X173337265Y-83959432D01*
X173150858Y-84089954D01*
X172989954Y-84250858D01*
X172859432Y-84437265D01*
X172859431Y-84437267D01*
X172763261Y-84643502D01*
X172763258Y-84643511D01*
X172704366Y-84863302D01*
X172704364Y-84863313D01*
X172684532Y-85089998D01*
X172684532Y-85090001D01*
X172704364Y-85316686D01*
X172704366Y-85316697D01*
X172763258Y-85536488D01*
X172763261Y-85536497D01*
X172859431Y-85742732D01*
X172859432Y-85742734D01*
X172989954Y-85929141D01*
X173150858Y-86090045D01*
X173150861Y-86090047D01*
X173337266Y-86220568D01*
X173394681Y-86247341D01*
X173395275Y-86247618D01*
X173447714Y-86293791D01*
X173466866Y-86360984D01*
X173446650Y-86427865D01*
X173395275Y-86472382D01*
X173337267Y-86499431D01*
X173337265Y-86499432D01*
X173150858Y-86629954D01*
X172989954Y-86790858D01*
X172859432Y-86977265D01*
X172859431Y-86977267D01*
X172763261Y-87183502D01*
X172763258Y-87183511D01*
X172704366Y-87403302D01*
X172704364Y-87403313D01*
X172684532Y-87629998D01*
X172684532Y-87630001D01*
X172704364Y-87856686D01*
X172704366Y-87856697D01*
X172763258Y-88076488D01*
X172763261Y-88076497D01*
X172859431Y-88282732D01*
X172859432Y-88282734D01*
X172989954Y-88469141D01*
X173150858Y-88630045D01*
X173150861Y-88630047D01*
X173337266Y-88760568D01*
X173395275Y-88787618D01*
X173447714Y-88833791D01*
X173466866Y-88900984D01*
X173446650Y-88967865D01*
X173395275Y-89012381D01*
X173378272Y-89020310D01*
X173337267Y-89039431D01*
X173337265Y-89039432D01*
X173150858Y-89169954D01*
X172989954Y-89330858D01*
X172859432Y-89517265D01*
X172859431Y-89517267D01*
X172763261Y-89723502D01*
X172763258Y-89723511D01*
X172704366Y-89943302D01*
X172704364Y-89943313D01*
X172684532Y-90169998D01*
X172684532Y-90170001D01*
X172704364Y-90396686D01*
X172704366Y-90396697D01*
X172763258Y-90616488D01*
X172763261Y-90616497D01*
X172859431Y-90822732D01*
X172859432Y-90822734D01*
X172989954Y-91009141D01*
X173150858Y-91170045D01*
X173150861Y-91170047D01*
X173337266Y-91300568D01*
X173395275Y-91327618D01*
X173447714Y-91373791D01*
X173466866Y-91440984D01*
X173446650Y-91507865D01*
X173395275Y-91552382D01*
X173337267Y-91579431D01*
X173337265Y-91579432D01*
X173150858Y-91709954D01*
X172989954Y-91870858D01*
X172859432Y-92057265D01*
X172859431Y-92057267D01*
X172763261Y-92263502D01*
X172763258Y-92263511D01*
X172704366Y-92483302D01*
X172704364Y-92483313D01*
X172684532Y-92709998D01*
X172684532Y-92710001D01*
X172704364Y-92936686D01*
X172704366Y-92936697D01*
X172763258Y-93156488D01*
X172763261Y-93156497D01*
X172859431Y-93362732D01*
X172859432Y-93362734D01*
X172989954Y-93549141D01*
X173150858Y-93710045D01*
X173150861Y-93710047D01*
X173337266Y-93840568D01*
X173395275Y-93867618D01*
X173447714Y-93913791D01*
X173466866Y-93980984D01*
X173446650Y-94047865D01*
X173395275Y-94092382D01*
X173337267Y-94119431D01*
X173337265Y-94119432D01*
X173150858Y-94249954D01*
X172989954Y-94410858D01*
X172859432Y-94597265D01*
X172859431Y-94597267D01*
X172763261Y-94803502D01*
X172763258Y-94803511D01*
X172704366Y-95023302D01*
X172704364Y-95023313D01*
X172684532Y-95249998D01*
X172684532Y-95250001D01*
X172704364Y-95476686D01*
X172704366Y-95476697D01*
X172763258Y-95696488D01*
X172763261Y-95696497D01*
X172859431Y-95902732D01*
X172859432Y-95902734D01*
X172989954Y-96089141D01*
X173150858Y-96250045D01*
X173150861Y-96250047D01*
X173337266Y-96380568D01*
X173395275Y-96407618D01*
X173447714Y-96453791D01*
X173466866Y-96520984D01*
X173446650Y-96587865D01*
X173395275Y-96632382D01*
X173337267Y-96659431D01*
X173337265Y-96659432D01*
X173150858Y-96789954D01*
X172989954Y-96950858D01*
X172859432Y-97137265D01*
X172859431Y-97137267D01*
X172763261Y-97343502D01*
X172763258Y-97343511D01*
X172704366Y-97563302D01*
X172704364Y-97563313D01*
X172684532Y-97789998D01*
X172684532Y-97790001D01*
X172704364Y-98016686D01*
X172704366Y-98016697D01*
X172763258Y-98236488D01*
X172763261Y-98236497D01*
X172859431Y-98442732D01*
X172859432Y-98442734D01*
X172989954Y-98629141D01*
X173150858Y-98790045D01*
X173150861Y-98790047D01*
X173337266Y-98920568D01*
X173395275Y-98947618D01*
X173447714Y-98993791D01*
X173466866Y-99060984D01*
X173446650Y-99127865D01*
X173395275Y-99172382D01*
X173337267Y-99199431D01*
X173337265Y-99199432D01*
X173150858Y-99329954D01*
X172989954Y-99490858D01*
X172859432Y-99677265D01*
X172859431Y-99677267D01*
X172763261Y-99883502D01*
X172763258Y-99883511D01*
X172704366Y-100103302D01*
X172704364Y-100103313D01*
X172684532Y-100329998D01*
X172684532Y-100330001D01*
X172704364Y-100556686D01*
X172704366Y-100556697D01*
X172763258Y-100776488D01*
X172763261Y-100776497D01*
X172859431Y-100982732D01*
X172859432Y-100982734D01*
X172989954Y-101169141D01*
X173150858Y-101330045D01*
X173150861Y-101330047D01*
X173337266Y-101460568D01*
X173395275Y-101487618D01*
X173447714Y-101533791D01*
X173466866Y-101600984D01*
X173446650Y-101667865D01*
X173395275Y-101712382D01*
X173337267Y-101739431D01*
X173337265Y-101739432D01*
X173150858Y-101869954D01*
X172989954Y-102030858D01*
X172859432Y-102217265D01*
X172859431Y-102217267D01*
X172763261Y-102423502D01*
X172763258Y-102423511D01*
X172704366Y-102643302D01*
X172704364Y-102643313D01*
X172684532Y-102869998D01*
X172684532Y-102870001D01*
X172704364Y-103096686D01*
X172704366Y-103096697D01*
X172763258Y-103316488D01*
X172763261Y-103316497D01*
X172859431Y-103522732D01*
X172859432Y-103522734D01*
X172989954Y-103709141D01*
X173150858Y-103870045D01*
X173150861Y-103870047D01*
X173337266Y-104000568D01*
X173395275Y-104027618D01*
X173447714Y-104073791D01*
X173466866Y-104140984D01*
X173446650Y-104207865D01*
X173395275Y-104252382D01*
X173337267Y-104279431D01*
X173337265Y-104279432D01*
X173150858Y-104409954D01*
X172989954Y-104570858D01*
X172859432Y-104757265D01*
X172859431Y-104757267D01*
X172763261Y-104963502D01*
X172763258Y-104963511D01*
X172704366Y-105183302D01*
X172704364Y-105183313D01*
X172684532Y-105409998D01*
X172684532Y-105410001D01*
X172704364Y-105636686D01*
X172704366Y-105636697D01*
X172763258Y-105856488D01*
X172763261Y-105856497D01*
X172859431Y-106062732D01*
X172859432Y-106062734D01*
X172989954Y-106249141D01*
X173150858Y-106410045D01*
X173150861Y-106410047D01*
X173337266Y-106540568D01*
X173395278Y-106567619D01*
X173447713Y-106613788D01*
X173466866Y-106680982D01*
X173446651Y-106747863D01*
X173395277Y-106792380D01*
X173337268Y-106819430D01*
X173337265Y-106819432D01*
X173150858Y-106949954D01*
X172989954Y-107110858D01*
X172859432Y-107297265D01*
X172859431Y-107297267D01*
X172763261Y-107503502D01*
X172763258Y-107503511D01*
X172704366Y-107723302D01*
X172704364Y-107723313D01*
X172684532Y-107949998D01*
X172684532Y-107950001D01*
X172704364Y-108176686D01*
X172704366Y-108176697D01*
X172763258Y-108396488D01*
X172763261Y-108396497D01*
X172859431Y-108602732D01*
X172859432Y-108602734D01*
X172989954Y-108789141D01*
X173150858Y-108950045D01*
X173150861Y-108950047D01*
X173337266Y-109080568D01*
X173395275Y-109107618D01*
X173447714Y-109153791D01*
X173466866Y-109220984D01*
X173446650Y-109287865D01*
X173395275Y-109332382D01*
X173337267Y-109359431D01*
X173337265Y-109359432D01*
X173150858Y-109489954D01*
X172989954Y-109650858D01*
X172859432Y-109837265D01*
X172859431Y-109837267D01*
X172763261Y-110043502D01*
X172763258Y-110043511D01*
X172704366Y-110263302D01*
X172704364Y-110263313D01*
X172684532Y-110489998D01*
X172684532Y-110490001D01*
X172704364Y-110716686D01*
X172704366Y-110716697D01*
X172763258Y-110936488D01*
X172763261Y-110936497D01*
X172859431Y-111142732D01*
X172859432Y-111142734D01*
X172989954Y-111329141D01*
X173150858Y-111490045D01*
X173150861Y-111490047D01*
X173337266Y-111620568D01*
X173395275Y-111647618D01*
X173447714Y-111693791D01*
X173466866Y-111760984D01*
X173446650Y-111827865D01*
X173395275Y-111872382D01*
X173337267Y-111899431D01*
X173337265Y-111899432D01*
X173150858Y-112029954D01*
X172989954Y-112190858D01*
X172859432Y-112377265D01*
X172859431Y-112377267D01*
X172763261Y-112583502D01*
X172763258Y-112583511D01*
X172704366Y-112803302D01*
X172704364Y-112803313D01*
X172684532Y-113029998D01*
X172684532Y-113030001D01*
X160055468Y-113030001D01*
X160055468Y-113030000D01*
X160053136Y-113003350D01*
X160041698Y-112872613D01*
X160035635Y-112803308D01*
X159982850Y-112606310D01*
X159976741Y-112583511D01*
X159976738Y-112583502D01*
X159965139Y-112558628D01*
X159880568Y-112377266D01*
X159750047Y-112190861D01*
X159750045Y-112190858D01*
X159589141Y-112029954D01*
X159402734Y-111899432D01*
X159402728Y-111899429D01*
X159344725Y-111872382D01*
X159292285Y-111826210D01*
X159273133Y-111759017D01*
X159293348Y-111692135D01*
X159344725Y-111647618D01*
X159402734Y-111620568D01*
X159589139Y-111490047D01*
X159750047Y-111329139D01*
X159880568Y-111142734D01*
X159976739Y-110936496D01*
X160035635Y-110716692D01*
X160055468Y-110490000D01*
X160035635Y-110263308D01*
X159976739Y-110043504D01*
X159880568Y-109837266D01*
X159750047Y-109650861D01*
X159750045Y-109650858D01*
X159589141Y-109489954D01*
X159402734Y-109359432D01*
X159402728Y-109359429D01*
X159344725Y-109332382D01*
X159292285Y-109286210D01*
X159273133Y-109219017D01*
X159293348Y-109152135D01*
X159344725Y-109107618D01*
X159402734Y-109080568D01*
X159589139Y-108950047D01*
X159750047Y-108789139D01*
X159880568Y-108602734D01*
X159976739Y-108396496D01*
X160035635Y-108176692D01*
X160055468Y-107950000D01*
X160054698Y-107941204D01*
X160044606Y-107825846D01*
X160035635Y-107723308D01*
X159982850Y-107526310D01*
X159976741Y-107503511D01*
X159976738Y-107503502D01*
X159965139Y-107478628D01*
X159880568Y-107297266D01*
X159750047Y-107110861D01*
X159750045Y-107110858D01*
X159589141Y-106949954D01*
X159402734Y-106819432D01*
X159402728Y-106819429D01*
X159344725Y-106792382D01*
X159292285Y-106746210D01*
X159273133Y-106679017D01*
X159293348Y-106612135D01*
X159344725Y-106567618D01*
X159402734Y-106540568D01*
X159589139Y-106410047D01*
X159750047Y-106249139D01*
X159880568Y-106062734D01*
X159976739Y-105856496D01*
X160035635Y-105636692D01*
X160055468Y-105410000D01*
X160035635Y-105183308D01*
X159976739Y-104963504D01*
X159880568Y-104757266D01*
X159750047Y-104570861D01*
X159750045Y-104570858D01*
X159589141Y-104409954D01*
X159402734Y-104279432D01*
X159402728Y-104279429D01*
X159344725Y-104252382D01*
X159292285Y-104206210D01*
X159273133Y-104139017D01*
X159293348Y-104072135D01*
X159344725Y-104027618D01*
X159402734Y-104000568D01*
X159589139Y-103870047D01*
X159750047Y-103709139D01*
X159880568Y-103522734D01*
X159976739Y-103316496D01*
X160035635Y-103096692D01*
X160055468Y-102870000D01*
X160055006Y-102864724D01*
X160039924Y-102692331D01*
X160035635Y-102643308D01*
X159976739Y-102423504D01*
X159880568Y-102217266D01*
X159750047Y-102030861D01*
X159750045Y-102030858D01*
X159589141Y-101869954D01*
X159402734Y-101739432D01*
X159402728Y-101739429D01*
X159344725Y-101712382D01*
X159292285Y-101666210D01*
X159273133Y-101599017D01*
X159293348Y-101532135D01*
X159344725Y-101487618D01*
X159402734Y-101460568D01*
X159589139Y-101330047D01*
X159750047Y-101169139D01*
X159880568Y-100982734D01*
X159976739Y-100776496D01*
X160035635Y-100556692D01*
X160055468Y-100330000D01*
X160035635Y-100103308D01*
X159976739Y-99883504D01*
X159880568Y-99677266D01*
X159750047Y-99490861D01*
X159750045Y-99490858D01*
X159589141Y-99329954D01*
X159402734Y-99199432D01*
X159402728Y-99199429D01*
X159344725Y-99172382D01*
X159292285Y-99126210D01*
X159273133Y-99059017D01*
X159293348Y-98992135D01*
X159344725Y-98947618D01*
X159402734Y-98920568D01*
X159589139Y-98790047D01*
X159750047Y-98629139D01*
X159880568Y-98442734D01*
X159976739Y-98236496D01*
X160035635Y-98016692D01*
X160055468Y-97790000D01*
X160035635Y-97563308D01*
X159976739Y-97343504D01*
X159880568Y-97137266D01*
X159750047Y-96950861D01*
X159750045Y-96950858D01*
X159589141Y-96789954D01*
X159402734Y-96659432D01*
X159402728Y-96659429D01*
X159344725Y-96632382D01*
X159292285Y-96586210D01*
X159273133Y-96519017D01*
X159293348Y-96452135D01*
X159344725Y-96407618D01*
X159402734Y-96380568D01*
X159589139Y-96250047D01*
X159750047Y-96089139D01*
X159880568Y-95902734D01*
X159976739Y-95696496D01*
X160035635Y-95476692D01*
X160055468Y-95250000D01*
X160035635Y-95023308D01*
X159976739Y-94803504D01*
X159880568Y-94597266D01*
X159750047Y-94410861D01*
X159750045Y-94410858D01*
X159589141Y-94249954D01*
X159402734Y-94119432D01*
X159402728Y-94119429D01*
X159344725Y-94092382D01*
X159292285Y-94046210D01*
X159273133Y-93979017D01*
X159293348Y-93912135D01*
X159344725Y-93867618D01*
X159402734Y-93840568D01*
X159589139Y-93710047D01*
X159750047Y-93549139D01*
X159880568Y-93362734D01*
X159976739Y-93156496D01*
X160035635Y-92936692D01*
X160055468Y-92710000D01*
X160035635Y-92483308D01*
X159976739Y-92263504D01*
X159880568Y-92057266D01*
X159765608Y-91893084D01*
X159750045Y-91870858D01*
X159589141Y-91709954D01*
X159402734Y-91579432D01*
X159402728Y-91579429D01*
X159344725Y-91552382D01*
X159292285Y-91506210D01*
X159273133Y-91439017D01*
X159293348Y-91372135D01*
X159344725Y-91327618D01*
X159402734Y-91300568D01*
X159589139Y-91170047D01*
X159750047Y-91009139D01*
X159880568Y-90822734D01*
X159976739Y-90616496D01*
X160035635Y-90396692D01*
X160055468Y-90170000D01*
X160051698Y-90126914D01*
X160047599Y-90080058D01*
X160035635Y-89943308D01*
X159980113Y-89736097D01*
X159976741Y-89723511D01*
X159976738Y-89723502D01*
X159975773Y-89721432D01*
X159880568Y-89517266D01*
X159750047Y-89330861D01*
X159750045Y-89330858D01*
X159589141Y-89169954D01*
X159402734Y-89039432D01*
X159402728Y-89039429D01*
X159375038Y-89026517D01*
X159344724Y-89012381D01*
X159292285Y-88966210D01*
X159273133Y-88899017D01*
X159293348Y-88832135D01*
X159344725Y-88787618D01*
X159402734Y-88760568D01*
X159589139Y-88630047D01*
X159750047Y-88469139D01*
X159880568Y-88282734D01*
X159976739Y-88076496D01*
X160035635Y-87856692D01*
X160055468Y-87630000D01*
X160035635Y-87403308D01*
X159976739Y-87183504D01*
X159880568Y-86977266D01*
X159750049Y-86790864D01*
X159750045Y-86790858D01*
X159589141Y-86629954D01*
X159402734Y-86499432D01*
X159402732Y-86499431D01*
X159344725Y-86472382D01*
X159344132Y-86472105D01*
X159291694Y-86425934D01*
X159272542Y-86358740D01*
X159292758Y-86291859D01*
X159344134Y-86247341D01*
X159402484Y-86220132D01*
X159588820Y-86089657D01*
X159749657Y-85928820D01*
X159880134Y-85742482D01*
X159976265Y-85536326D01*
X159976269Y-85536317D01*
X160028872Y-85340000D01*
X159183686Y-85340000D01*
X159209493Y-85299844D01*
X159250000Y-85161889D01*
X159250000Y-85018111D01*
X159209493Y-84880156D01*
X159183686Y-84840000D01*
X160028872Y-84840000D01*
X160028872Y-84839999D01*
X159976269Y-84643682D01*
X159976265Y-84643673D01*
X159880134Y-84437517D01*
X159749657Y-84251179D01*
X159588820Y-84090342D01*
X159402482Y-83959865D01*
X159344133Y-83932657D01*
X159291694Y-83886484D01*
X159272542Y-83819291D01*
X159292758Y-83752410D01*
X159344129Y-83707895D01*
X159402734Y-83680568D01*
X159589139Y-83550047D01*
X159750047Y-83389139D01*
X159845611Y-83252658D01*
X159862613Y-83228377D01*
X159917189Y-83184752D01*
X159964188Y-83175500D01*
X162477257Y-83175500D01*
X162492877Y-83177224D01*
X162492904Y-83176939D01*
X162500666Y-83177673D01*
X162500666Y-83177672D01*
X162500667Y-83177673D01*
X162503999Y-83177568D01*
X162568847Y-83175531D01*
X162570794Y-83175500D01*
X162599347Y-83175500D01*
X162599350Y-83175500D01*
X162606228Y-83174630D01*
X162612041Y-83174172D01*
X162658627Y-83172709D01*
X162677869Y-83167117D01*
X162696912Y-83163174D01*
X162716792Y-83160664D01*
X162760122Y-83143507D01*
X162765646Y-83141617D01*
X162769396Y-83140527D01*
X162810390Y-83128618D01*
X162827629Y-83118422D01*
X162845103Y-83109862D01*
X162863727Y-83102488D01*
X162863727Y-83102487D01*
X162863732Y-83102486D01*
X162901449Y-83075082D01*
X162906305Y-83071892D01*
X162946420Y-83048170D01*
X162960589Y-83033999D01*
X162975379Y-83021368D01*
X162991587Y-83009594D01*
X163021299Y-82973676D01*
X163025212Y-82969376D01*
X165483788Y-80510801D01*
X165496042Y-80500986D01*
X165495859Y-80500764D01*
X165501868Y-80495791D01*
X165501877Y-80495786D01*
X165548607Y-80446022D01*
X165549846Y-80444743D01*
X165570120Y-80424471D01*
X165574379Y-80418978D01*
X165578152Y-80414561D01*
X165610062Y-80380582D01*
X165619713Y-80363024D01*
X165630396Y-80346761D01*
X165642673Y-80330936D01*
X165661185Y-80288153D01*
X165663738Y-80282941D01*
X165686197Y-80242092D01*
X165691180Y-80222680D01*
X165697481Y-80204280D01*
X165705437Y-80185896D01*
X165712729Y-80139852D01*
X165713906Y-80134171D01*
X165725500Y-80089019D01*
X165725500Y-80068982D01*
X165727027Y-80049582D01*
X165730160Y-80029804D01*
X165725775Y-79983415D01*
X165725500Y-79977577D01*
X165725500Y-77552737D01*
X165727224Y-77537123D01*
X165726938Y-77537096D01*
X165727672Y-77529333D01*
X165725531Y-77461170D01*
X165725500Y-77459223D01*
X165725500Y-77430651D01*
X165725500Y-77430650D01*
X165724629Y-77423759D01*
X165724172Y-77417945D01*
X165722709Y-77371374D01*
X165722709Y-77371372D01*
X165717120Y-77352137D01*
X165713174Y-77333084D01*
X165710664Y-77313208D01*
X165693501Y-77269859D01*
X165691614Y-77264346D01*
X165685503Y-77243313D01*
X165678617Y-77219610D01*
X165668421Y-77202369D01*
X165659860Y-77184893D01*
X165652486Y-77166269D01*
X165652486Y-77166267D01*
X165642474Y-77152488D01*
X165625083Y-77128550D01*
X165621900Y-77123705D01*
X165598170Y-77083579D01*
X165598165Y-77083573D01*
X165584005Y-77069413D01*
X165571370Y-77054620D01*
X165559593Y-77038412D01*
X165523693Y-77008713D01*
X165519381Y-77004790D01*
X163060802Y-74546211D01*
X163050980Y-74533950D01*
X163050759Y-74534134D01*
X163045786Y-74528122D01*
X162996066Y-74481432D01*
X162994666Y-74480075D01*
X162974476Y-74459884D01*
X162968986Y-74455625D01*
X162964561Y-74451847D01*
X162930582Y-74419938D01*
X162930580Y-74419936D01*
X162930577Y-74419935D01*
X162913029Y-74410288D01*
X162896763Y-74399604D01*
X162880933Y-74387325D01*
X162838168Y-74368818D01*
X162832922Y-74366248D01*
X162792093Y-74343803D01*
X162792092Y-74343802D01*
X162772693Y-74338822D01*
X162754281Y-74332518D01*
X162735898Y-74324562D01*
X162735892Y-74324560D01*
X162689874Y-74317272D01*
X162684152Y-74316087D01*
X162639021Y-74304500D01*
X162639019Y-74304500D01*
X162618984Y-74304500D01*
X162599586Y-74302973D01*
X162592162Y-74301797D01*
X162579805Y-74299840D01*
X162579804Y-74299840D01*
X162533416Y-74304225D01*
X162527578Y-74304500D01*
X153874499Y-74304500D01*
X153807460Y-74284815D01*
X153761705Y-74232011D01*
X153750499Y-74180500D01*
X153750499Y-74032129D01*
X153750498Y-74032123D01*
X153744091Y-73972516D01*
X153693797Y-73837671D01*
X153693793Y-73837664D01*
X153607547Y-73722455D01*
X153607544Y-73722452D01*
X153492335Y-73636206D01*
X153492328Y-73636202D01*
X153357482Y-73585908D01*
X153357483Y-73585908D01*
X153297883Y-73579501D01*
X153297881Y-73579500D01*
X153297873Y-73579500D01*
X153297864Y-73579500D01*
X151502129Y-73579500D01*
X151502123Y-73579501D01*
X151442516Y-73585908D01*
X151307671Y-73636202D01*
X151307664Y-73636206D01*
X151192455Y-73722452D01*
X151192452Y-73722455D01*
X151106206Y-73837664D01*
X151106202Y-73837671D01*
X151056997Y-73969598D01*
X151015126Y-74025532D01*
X150949661Y-74049949D01*
X150881388Y-74035097D01*
X150853134Y-74013946D01*
X150731082Y-73891894D01*
X150537578Y-73756399D01*
X150323492Y-73656570D01*
X150323486Y-73656567D01*
X150110000Y-73599364D01*
X150110000Y-74494498D01*
X150002315Y-74445320D01*
X149895763Y-74430000D01*
X149824237Y-74430000D01*
X149717685Y-74445320D01*
X149610000Y-74494498D01*
X149610000Y-73599364D01*
X149609999Y-73599364D01*
X149396513Y-73656567D01*
X149396507Y-73656570D01*
X149182422Y-73756399D01*
X149182420Y-73756400D01*
X148988926Y-73891886D01*
X148988920Y-73891891D01*
X148821891Y-74058920D01*
X148821886Y-74058926D01*
X148686400Y-74252420D01*
X148686399Y-74252422D01*
X148586570Y-74466507D01*
X148586567Y-74466513D01*
X148529364Y-74679999D01*
X148529364Y-74680000D01*
X149426314Y-74680000D01*
X149400507Y-74720156D01*
X149360000Y-74858111D01*
X149360000Y-75001889D01*
X149400507Y-75139844D01*
X149426314Y-75180000D01*
X148529364Y-75180000D01*
X148586567Y-75393486D01*
X148586570Y-75393492D01*
X148686399Y-75607578D01*
X148821894Y-75801082D01*
X148988917Y-75968105D01*
X149182421Y-76103600D01*
X149396507Y-76203429D01*
X149396516Y-76203433D01*
X149610000Y-76260634D01*
X149610000Y-75365501D01*
X149717685Y-75414680D01*
X149824237Y-75430000D01*
X149895763Y-75430000D01*
X150002315Y-75414680D01*
X150110000Y-75365501D01*
X150110000Y-76260633D01*
X150323483Y-76203433D01*
X150323492Y-76203429D01*
X150537578Y-76103600D01*
X150731078Y-75968108D01*
X150853133Y-75846053D01*
X150914456Y-75812568D01*
X150984148Y-75817552D01*
X151040082Y-75859423D01*
X151056997Y-75890401D01*
X151106202Y-76022328D01*
X151106206Y-76022335D01*
X151192452Y-76137544D01*
X151192455Y-76137547D01*
X151307664Y-76223793D01*
X151307671Y-76223797D01*
X151442517Y-76274091D01*
X151442516Y-76274091D01*
X151449444Y-76274835D01*
X151502127Y-76280500D01*
X153297872Y-76280499D01*
X153357483Y-76274091D01*
X153492331Y-76223796D01*
X153607546Y-76137546D01*
X153693796Y-76022331D01*
X153744091Y-75887483D01*
X153750500Y-75827873D01*
X153750500Y-75679500D01*
X153770185Y-75612461D01*
X153822989Y-75566706D01*
X153874500Y-75555500D01*
X162249548Y-75555500D01*
X162316587Y-75575185D01*
X162337229Y-75591819D01*
X164438181Y-77692771D01*
X164471666Y-77754094D01*
X164474500Y-77780452D01*
X164474500Y-79699546D01*
X164454815Y-79766585D01*
X164438181Y-79787227D01*
X162337228Y-81888181D01*
X162275905Y-81921666D01*
X162249547Y-81924500D01*
X159964188Y-81924500D01*
X159897149Y-81904815D01*
X159862613Y-81871623D01*
X159750045Y-81710858D01*
X159589141Y-81549954D01*
X159402734Y-81419432D01*
X159402728Y-81419429D01*
X159344725Y-81392382D01*
X159292285Y-81346210D01*
X159273133Y-81279017D01*
X159293348Y-81212135D01*
X159344725Y-81167618D01*
X159345319Y-81167341D01*
X159402734Y-81140568D01*
X159589139Y-81010047D01*
X159750047Y-80849139D01*
X159880568Y-80662734D01*
X159976739Y-80456496D01*
X160035635Y-80236692D01*
X160055468Y-80010000D01*
X160054730Y-80001570D01*
X160037109Y-79800156D01*
X160035635Y-79783308D01*
X159976739Y-79563504D01*
X159880568Y-79357266D01*
X159750047Y-79170861D01*
X159750045Y-79170858D01*
X159589143Y-79009956D01*
X159564536Y-78992726D01*
X159520912Y-78938149D01*
X159513719Y-78868650D01*
X159545241Y-78806296D01*
X159605471Y-78770882D01*
X159622404Y-78767861D01*
X159657483Y-78764091D01*
X159792331Y-78713796D01*
X159907546Y-78627546D01*
X159993796Y-78512331D01*
X160044091Y-78377483D01*
X160050500Y-78317873D01*
X160050499Y-76622128D01*
X160044091Y-76562517D01*
X160009567Y-76469954D01*
X159993797Y-76427671D01*
X159993793Y-76427664D01*
X159907547Y-76312455D01*
X159907544Y-76312452D01*
X159792335Y-76226206D01*
X159792328Y-76226202D01*
X159657482Y-76175908D01*
X159657483Y-76175908D01*
X159597883Y-76169501D01*
X159597881Y-76169500D01*
X159597873Y-76169500D01*
X159597864Y-76169500D01*
X157902129Y-76169500D01*
X157902123Y-76169501D01*
X157842516Y-76175908D01*
X157707671Y-76226202D01*
X157707664Y-76226206D01*
X157592455Y-76312452D01*
X157592452Y-76312455D01*
X157506206Y-76427664D01*
X157506202Y-76427671D01*
X157455908Y-76562517D01*
X157449501Y-76622116D01*
X157449501Y-76622123D01*
X157449500Y-76622135D01*
X157449500Y-78317870D01*
X157449501Y-78317876D01*
X157455908Y-78377483D01*
X157506202Y-78512328D01*
X157506206Y-78512335D01*
X157592452Y-78627544D01*
X157592455Y-78627547D01*
X157707664Y-78713793D01*
X157707671Y-78713797D01*
X157752618Y-78730561D01*
X157842517Y-78764091D01*
X157877596Y-78767862D01*
X157942144Y-78794599D01*
X157981993Y-78851991D01*
X157984488Y-78921816D01*
X157948836Y-78981905D01*
X157935464Y-78992725D01*
X157910858Y-79009954D01*
X157749954Y-79170858D01*
X157619432Y-79357265D01*
X157619431Y-79357267D01*
X157523261Y-79563502D01*
X157523258Y-79563511D01*
X157464366Y-79783302D01*
X157464364Y-79783313D01*
X157444532Y-80009998D01*
X157444532Y-80010001D01*
X157464364Y-80236686D01*
X157464366Y-80236697D01*
X157523258Y-80456488D01*
X157523261Y-80456497D01*
X157619431Y-80662732D01*
X157619432Y-80662734D01*
X157749954Y-80849141D01*
X157910858Y-81010045D01*
X157910861Y-81010047D01*
X158097266Y-81140568D01*
X158154681Y-81167341D01*
X158155275Y-81167618D01*
X158207714Y-81213791D01*
X158226866Y-81280984D01*
X158206650Y-81347865D01*
X158155275Y-81392382D01*
X158097267Y-81419431D01*
X158097265Y-81419432D01*
X157910858Y-81549954D01*
X157749954Y-81710858D01*
X157619432Y-81897265D01*
X157619431Y-81897267D01*
X157523261Y-82103502D01*
X157523258Y-82103511D01*
X157464366Y-82323302D01*
X157464364Y-82323313D01*
X157444532Y-82549998D01*
X157444532Y-82550001D01*
X157464364Y-82776686D01*
X157464366Y-82776697D01*
X157523258Y-82996488D01*
X157523261Y-82996497D01*
X157619431Y-83202732D01*
X157619432Y-83202734D01*
X157749954Y-83389141D01*
X157910858Y-83550045D01*
X157910861Y-83550047D01*
X158097266Y-83680568D01*
X158155865Y-83707893D01*
X158208305Y-83754065D01*
X158227457Y-83821258D01*
X158207242Y-83888139D01*
X158155867Y-83932657D01*
X158097515Y-83959867D01*
X157911179Y-84090342D01*
X157750342Y-84251179D01*
X157619865Y-84437517D01*
X157523734Y-84643673D01*
X157523730Y-84643682D01*
X157471127Y-84839999D01*
X157471128Y-84840000D01*
X158316314Y-84840000D01*
X158290507Y-84880156D01*
X158250000Y-85018111D01*
X158250000Y-85161889D01*
X158290507Y-85299844D01*
X158316314Y-85340000D01*
X157471128Y-85340000D01*
X157523730Y-85536317D01*
X157523734Y-85536326D01*
X157619865Y-85742482D01*
X157750342Y-85928820D01*
X157911179Y-86089657D01*
X158097518Y-86220134D01*
X158097520Y-86220135D01*
X158155865Y-86247342D01*
X158208305Y-86293514D01*
X158227457Y-86360707D01*
X158207242Y-86427589D01*
X158155867Y-86472105D01*
X158097268Y-86499431D01*
X158097264Y-86499433D01*
X157910862Y-86629951D01*
X157749951Y-86790863D01*
X157749950Y-86790864D01*
X157742251Y-86801859D01*
X157687671Y-86845480D01*
X157618172Y-86852668D01*
X157555820Y-86821141D01*
X157553000Y-86818409D01*
X151625803Y-80891212D01*
X151615980Y-80878950D01*
X151615759Y-80879134D01*
X151610786Y-80873122D01*
X151561066Y-80826432D01*
X151559666Y-80825075D01*
X151539476Y-80804884D01*
X151533986Y-80800625D01*
X151529561Y-80796847D01*
X151495582Y-80764938D01*
X151495580Y-80764936D01*
X151495577Y-80764935D01*
X151478029Y-80755288D01*
X151461763Y-80744604D01*
X151445933Y-80732325D01*
X151403168Y-80713818D01*
X151397922Y-80711248D01*
X151357093Y-80688803D01*
X151357092Y-80688802D01*
X151337693Y-80683822D01*
X151319281Y-80677518D01*
X151300898Y-80669562D01*
X151300892Y-80669560D01*
X151254874Y-80662272D01*
X151249152Y-80661087D01*
X151204021Y-80649500D01*
X151204019Y-80649500D01*
X151183984Y-80649500D01*
X151164586Y-80647973D01*
X151157162Y-80646797D01*
X151144805Y-80644840D01*
X151144804Y-80644840D01*
X151098416Y-80649225D01*
X151092578Y-80649500D01*
X148779499Y-80649500D01*
X148712460Y-80629815D01*
X148666705Y-80577011D01*
X148655499Y-80525500D01*
X148655499Y-80377129D01*
X148655498Y-80377123D01*
X148653983Y-80363030D01*
X148649091Y-80317517D01*
X148647810Y-80314083D01*
X148598797Y-80182671D01*
X148598793Y-80182664D01*
X148512547Y-80067455D01*
X148512544Y-80067452D01*
X148397335Y-79981206D01*
X148397328Y-79981202D01*
X148262482Y-79930908D01*
X148262483Y-79930908D01*
X148202883Y-79924501D01*
X148202881Y-79924500D01*
X148202873Y-79924500D01*
X148202864Y-79924500D01*
X146407129Y-79924500D01*
X146407123Y-79924501D01*
X146347516Y-79930908D01*
X146212671Y-79981202D01*
X146212664Y-79981206D01*
X146097455Y-80067452D01*
X146097452Y-80067455D01*
X146011206Y-80182664D01*
X146011203Y-80182669D01*
X145962189Y-80314083D01*
X145920317Y-80370016D01*
X145854853Y-80394433D01*
X145786580Y-80379581D01*
X145758326Y-80358430D01*
X145636402Y-80236506D01*
X145636395Y-80236501D01*
X145442834Y-80100967D01*
X145442830Y-80100965D01*
X145417205Y-80089016D01*
X145228663Y-80001097D01*
X145228659Y-80001096D01*
X145228655Y-80001094D01*
X145000413Y-79939938D01*
X145000403Y-79939936D01*
X144765001Y-79919341D01*
X144764999Y-79919341D01*
X144529596Y-79939936D01*
X144529586Y-79939938D01*
X144301344Y-80001094D01*
X144301335Y-80001098D01*
X144087171Y-80100964D01*
X144087169Y-80100965D01*
X143893597Y-80236505D01*
X143726508Y-80403594D01*
X143596269Y-80589595D01*
X143541692Y-80633219D01*
X143472193Y-80640412D01*
X143409839Y-80608890D01*
X143393119Y-80589594D01*
X143263113Y-80403926D01*
X143263108Y-80403920D01*
X143096082Y-80236894D01*
X142902578Y-80101399D01*
X142688492Y-80001570D01*
X142688486Y-80001567D01*
X142475000Y-79944364D01*
X142475000Y-80839498D01*
X142367315Y-80790320D01*
X142260763Y-80775000D01*
X142189237Y-80775000D01*
X142082685Y-80790320D01*
X141975000Y-80839498D01*
X141975000Y-79944364D01*
X141974999Y-79944364D01*
X141761513Y-80001567D01*
X141761507Y-80001570D01*
X141547422Y-80101399D01*
X141547420Y-80101400D01*
X141353926Y-80236886D01*
X141353920Y-80236891D01*
X141186891Y-80403920D01*
X141186886Y-80403926D01*
X141051400Y-80597420D01*
X141051399Y-80597422D01*
X140951570Y-80811507D01*
X140951567Y-80811513D01*
X140894364Y-81024999D01*
X140894364Y-81025000D01*
X141791314Y-81025000D01*
X141765507Y-81065156D01*
X141725000Y-81203111D01*
X141725000Y-81346889D01*
X141765507Y-81484844D01*
X141791314Y-81525000D01*
X140894364Y-81525000D01*
X140951567Y-81738486D01*
X140951570Y-81738492D01*
X141051399Y-81952578D01*
X141186894Y-82146082D01*
X141353917Y-82313105D01*
X141540031Y-82443425D01*
X141583656Y-82498003D01*
X141590848Y-82567501D01*
X141559326Y-82629856D01*
X141540031Y-82646575D01*
X141353922Y-82776890D01*
X141353920Y-82776891D01*
X141186891Y-82943920D01*
X141186886Y-82943926D01*
X141051400Y-83137420D01*
X141051399Y-83137422D01*
X140951570Y-83351507D01*
X140951567Y-83351513D01*
X140894364Y-83564999D01*
X140894364Y-83565000D01*
X141791314Y-83565000D01*
X141765507Y-83605156D01*
X141725000Y-83743111D01*
X141725000Y-83886889D01*
X141765507Y-84024844D01*
X141791314Y-84065000D01*
X140894364Y-84065000D01*
X140951567Y-84278486D01*
X140951570Y-84278492D01*
X141051399Y-84492578D01*
X141186894Y-84686082D01*
X141353917Y-84853105D01*
X141547421Y-84988600D01*
X141761507Y-85088429D01*
X141761516Y-85088433D01*
X141975000Y-85145634D01*
X141975000Y-84250501D01*
X142082685Y-84299680D01*
X142189237Y-84315000D01*
X142260763Y-84315000D01*
X142367315Y-84299680D01*
X142475000Y-84250501D01*
X142475000Y-85145633D01*
X142688483Y-85088433D01*
X142688492Y-85088429D01*
X142902578Y-84988600D01*
X143096082Y-84853105D01*
X143263105Y-84686082D01*
X143393119Y-84500405D01*
X143447696Y-84456781D01*
X143517195Y-84449588D01*
X143579549Y-84481110D01*
X143596269Y-84500405D01*
X143726505Y-84686401D01*
X143726506Y-84686402D01*
X143893597Y-84853493D01*
X143893603Y-84853498D01*
X143926036Y-84876208D01*
X144086624Y-84988653D01*
X144130248Y-85043228D01*
X144139500Y-85090226D01*
X144139500Y-86365276D01*
X144119815Y-86432315D01*
X144086623Y-86466851D01*
X143908597Y-86591505D01*
X143741508Y-86758594D01*
X143611269Y-86944595D01*
X143556692Y-86988219D01*
X143487193Y-86995412D01*
X143424839Y-86963890D01*
X143408119Y-86944594D01*
X143278113Y-86758926D01*
X143278108Y-86758920D01*
X143111082Y-86591894D01*
X142917578Y-86456399D01*
X142703492Y-86356570D01*
X142703486Y-86356567D01*
X142490000Y-86299364D01*
X142490000Y-87194498D01*
X142382315Y-87145320D01*
X142275763Y-87130000D01*
X142204237Y-87130000D01*
X142097685Y-87145320D01*
X141990000Y-87194498D01*
X141990000Y-86299364D01*
X141989999Y-86299364D01*
X141776513Y-86356567D01*
X141776507Y-86356570D01*
X141562422Y-86456399D01*
X141562420Y-86456400D01*
X141368926Y-86591886D01*
X141368920Y-86591891D01*
X141201891Y-86758920D01*
X141201886Y-86758926D01*
X141066400Y-86952420D01*
X141066399Y-86952422D01*
X140966570Y-87166507D01*
X140966567Y-87166513D01*
X140909364Y-87379999D01*
X140909364Y-87380000D01*
X141806314Y-87380000D01*
X141780507Y-87420156D01*
X141740000Y-87558111D01*
X141740000Y-87701889D01*
X141780507Y-87839844D01*
X141806314Y-87880000D01*
X140909364Y-87880000D01*
X140966567Y-88093486D01*
X140966570Y-88093492D01*
X141066399Y-88307578D01*
X141201894Y-88501082D01*
X141368917Y-88668105D01*
X141555031Y-88798425D01*
X141598656Y-88853003D01*
X141605848Y-88922501D01*
X141574326Y-88984856D01*
X141555031Y-89001575D01*
X141368922Y-89131890D01*
X141368920Y-89131891D01*
X141201891Y-89298920D01*
X141201886Y-89298926D01*
X141066400Y-89492420D01*
X141066399Y-89492422D01*
X140966570Y-89706507D01*
X140966567Y-89706513D01*
X140909364Y-89919999D01*
X140909364Y-89920000D01*
X141806314Y-89920000D01*
X141780507Y-89960156D01*
X141740000Y-90098111D01*
X141740000Y-90241889D01*
X141780507Y-90379844D01*
X141806314Y-90420000D01*
X140909364Y-90420000D01*
X140966567Y-90633486D01*
X140966570Y-90633492D01*
X141066399Y-90847578D01*
X141201894Y-91041082D01*
X141368917Y-91208105D01*
X141562421Y-91343600D01*
X141776507Y-91443429D01*
X141776516Y-91443433D01*
X141990000Y-91500634D01*
X141990000Y-90605501D01*
X142097685Y-90654680D01*
X142204237Y-90670000D01*
X142275763Y-90670000D01*
X142382315Y-90654680D01*
X142490000Y-90605501D01*
X142490000Y-91500633D01*
X142703483Y-91443433D01*
X142703492Y-91443429D01*
X142917578Y-91343600D01*
X143111082Y-91208105D01*
X143278105Y-91041082D01*
X143408119Y-90855405D01*
X143462696Y-90811781D01*
X143532195Y-90804588D01*
X143594549Y-90836110D01*
X143611269Y-90855405D01*
X143741505Y-91041401D01*
X143741506Y-91041402D01*
X143908597Y-91208493D01*
X143908603Y-91208498D01*
X144086623Y-91333149D01*
X144130248Y-91387726D01*
X144139500Y-91434724D01*
X144139500Y-92704773D01*
X144119815Y-92771812D01*
X144086623Y-92806348D01*
X143893597Y-92941505D01*
X143726508Y-93108594D01*
X143596269Y-93294595D01*
X143541692Y-93338219D01*
X143472193Y-93345412D01*
X143409839Y-93313890D01*
X143393119Y-93294594D01*
X143263113Y-93108926D01*
X143263108Y-93108920D01*
X143096082Y-92941894D01*
X142902578Y-92806399D01*
X142688492Y-92706570D01*
X142688486Y-92706567D01*
X142475000Y-92649364D01*
X142475000Y-93544498D01*
X142367315Y-93495320D01*
X142260763Y-93480000D01*
X142189237Y-93480000D01*
X142082685Y-93495320D01*
X141975000Y-93544498D01*
X141975000Y-92649364D01*
X141974999Y-92649364D01*
X141761513Y-92706567D01*
X141761507Y-92706570D01*
X141547422Y-92806399D01*
X141547420Y-92806400D01*
X141353926Y-92941886D01*
X141353920Y-92941891D01*
X141186891Y-93108920D01*
X141186886Y-93108926D01*
X141051400Y-93302420D01*
X141051399Y-93302422D01*
X140951570Y-93516507D01*
X140951567Y-93516513D01*
X140894364Y-93729999D01*
X140894364Y-93730000D01*
X141791314Y-93730000D01*
X141765507Y-93770156D01*
X141725000Y-93908111D01*
X141725000Y-94051889D01*
X141765507Y-94189844D01*
X141791314Y-94230000D01*
X140894364Y-94230000D01*
X140951567Y-94443486D01*
X140951570Y-94443492D01*
X141051399Y-94657578D01*
X141186894Y-94851082D01*
X141353917Y-95018105D01*
X141547421Y-95153600D01*
X141761507Y-95253429D01*
X141761516Y-95253433D01*
X141975000Y-95310634D01*
X141975000Y-94415501D01*
X142082685Y-94464680D01*
X142189237Y-94480000D01*
X142260763Y-94480000D01*
X142367315Y-94464680D01*
X142475000Y-94415501D01*
X142475000Y-95310633D01*
X142688483Y-95253433D01*
X142688492Y-95253429D01*
X142902578Y-95153600D01*
X143096082Y-95018105D01*
X143263105Y-94851082D01*
X143393119Y-94665405D01*
X143447696Y-94621781D01*
X143517195Y-94614588D01*
X143579549Y-94646110D01*
X143596269Y-94665405D01*
X143726505Y-94851401D01*
X143726506Y-94851402D01*
X143893597Y-95018493D01*
X143893603Y-95018498D01*
X143900480Y-95023313D01*
X144086624Y-95153653D01*
X144130248Y-95208228D01*
X144139500Y-95255226D01*
X144139500Y-96514773D01*
X144119815Y-96581812D01*
X144086623Y-96616348D01*
X143893597Y-96751505D01*
X143726508Y-96918594D01*
X143596269Y-97104595D01*
X143541692Y-97148219D01*
X143472193Y-97155412D01*
X143409839Y-97123890D01*
X143393119Y-97104594D01*
X143263113Y-96918926D01*
X143263108Y-96918920D01*
X143096082Y-96751894D01*
X142902578Y-96616399D01*
X142688492Y-96516570D01*
X142688486Y-96516567D01*
X142475000Y-96459364D01*
X142475000Y-97354498D01*
X142367315Y-97305320D01*
X142260763Y-97290000D01*
X142189237Y-97290000D01*
X142082685Y-97305320D01*
X141975000Y-97354498D01*
X141975000Y-96459364D01*
X141974999Y-96459364D01*
X141761513Y-96516567D01*
X141761507Y-96516570D01*
X141547422Y-96616399D01*
X141547420Y-96616400D01*
X141353926Y-96751886D01*
X141353920Y-96751891D01*
X141186891Y-96918920D01*
X141186886Y-96918926D01*
X141051400Y-97112420D01*
X141051399Y-97112422D01*
X140951570Y-97326507D01*
X140951567Y-97326513D01*
X140894364Y-97539999D01*
X140894364Y-97540000D01*
X141791314Y-97540000D01*
X141765507Y-97580156D01*
X141725000Y-97718111D01*
X141725000Y-97861889D01*
X141765507Y-97999844D01*
X141791314Y-98040000D01*
X140894364Y-98040000D01*
X140951567Y-98253486D01*
X140951570Y-98253492D01*
X141051399Y-98467578D01*
X141186894Y-98661082D01*
X141353917Y-98828105D01*
X141547421Y-98963600D01*
X141761507Y-99063429D01*
X141761516Y-99063433D01*
X141975000Y-99120634D01*
X141975000Y-98225501D01*
X142082685Y-98274680D01*
X142189237Y-98290000D01*
X142260763Y-98290000D01*
X142367315Y-98274680D01*
X142475000Y-98225501D01*
X142475000Y-99120633D01*
X142688483Y-99063433D01*
X142688492Y-99063429D01*
X142902578Y-98963600D01*
X143096082Y-98828105D01*
X143263105Y-98661082D01*
X143393119Y-98475405D01*
X143447696Y-98431781D01*
X143517195Y-98424588D01*
X143579549Y-98456110D01*
X143596269Y-98475405D01*
X143726505Y-98661401D01*
X143893599Y-98828495D01*
X144086624Y-98963653D01*
X144130248Y-99018228D01*
X144139500Y-99065226D01*
X144139500Y-100335276D01*
X144119815Y-100402315D01*
X144086623Y-100436851D01*
X143908597Y-100561505D01*
X143741508Y-100728594D01*
X143611269Y-100914595D01*
X143556692Y-100958219D01*
X143487193Y-100965412D01*
X143424839Y-100933890D01*
X143408119Y-100914594D01*
X143278113Y-100728926D01*
X143278108Y-100728920D01*
X143111082Y-100561894D01*
X142917578Y-100426399D01*
X142703492Y-100326570D01*
X142703486Y-100326567D01*
X142490000Y-100269364D01*
X142490000Y-101164498D01*
X142382315Y-101115320D01*
X142275763Y-101100000D01*
X142204237Y-101100000D01*
X142097685Y-101115320D01*
X141990000Y-101164498D01*
X141990000Y-100269364D01*
X141989999Y-100269364D01*
X141776513Y-100326567D01*
X141776507Y-100326570D01*
X141562422Y-100426399D01*
X141562420Y-100426400D01*
X141368926Y-100561886D01*
X141368920Y-100561891D01*
X141201891Y-100728920D01*
X141201886Y-100728926D01*
X141066400Y-100922420D01*
X141066399Y-100922422D01*
X140966570Y-101136507D01*
X140966567Y-101136513D01*
X140909364Y-101349999D01*
X140909364Y-101350000D01*
X141806314Y-101350000D01*
X141780507Y-101390156D01*
X141740000Y-101528111D01*
X141740000Y-101671889D01*
X141780507Y-101809844D01*
X141806314Y-101850000D01*
X140909364Y-101850000D01*
X140966567Y-102063486D01*
X140966570Y-102063492D01*
X141066399Y-102277578D01*
X141201894Y-102471082D01*
X141368917Y-102638105D01*
X141562421Y-102773600D01*
X141776507Y-102873429D01*
X141776516Y-102873433D01*
X141990000Y-102930634D01*
X141990000Y-102035501D01*
X142097685Y-102084680D01*
X142204237Y-102100000D01*
X142275763Y-102100000D01*
X142382315Y-102084680D01*
X142490000Y-102035501D01*
X142490000Y-102930633D01*
X142703483Y-102873433D01*
X142703492Y-102873429D01*
X142917578Y-102773600D01*
X143111082Y-102638105D01*
X143278105Y-102471082D01*
X143408119Y-102285405D01*
X143462696Y-102241781D01*
X143532195Y-102234588D01*
X143594549Y-102266110D01*
X143611269Y-102285405D01*
X143741505Y-102471401D01*
X143741506Y-102471402D01*
X143908597Y-102638493D01*
X143908603Y-102638498D01*
X144086623Y-102763149D01*
X144130248Y-102817726D01*
X144139500Y-102864724D01*
X144139500Y-104134773D01*
X144119815Y-104201812D01*
X144086623Y-104236348D01*
X143893597Y-104371505D01*
X143726508Y-104538594D01*
X143596269Y-104724595D01*
X143541692Y-104768219D01*
X143472193Y-104775412D01*
X143409839Y-104743890D01*
X143393119Y-104724594D01*
X143263113Y-104538926D01*
X143263108Y-104538920D01*
X143096082Y-104371894D01*
X142902578Y-104236399D01*
X142688492Y-104136570D01*
X142688486Y-104136567D01*
X142475000Y-104079364D01*
X142475000Y-104974498D01*
X142367315Y-104925320D01*
X142260763Y-104910000D01*
X142189237Y-104910000D01*
X142082685Y-104925320D01*
X141975000Y-104974498D01*
X141975000Y-104079364D01*
X141974999Y-104079364D01*
X141761513Y-104136567D01*
X141761507Y-104136570D01*
X141547422Y-104236399D01*
X141547420Y-104236400D01*
X141353926Y-104371886D01*
X141353920Y-104371891D01*
X141186891Y-104538920D01*
X141186886Y-104538926D01*
X141051400Y-104732420D01*
X141051399Y-104732422D01*
X140951570Y-104946507D01*
X140951567Y-104946513D01*
X140894364Y-105159999D01*
X140894364Y-105160000D01*
X141791314Y-105160000D01*
X141765507Y-105200156D01*
X141725000Y-105338111D01*
X141725000Y-105481889D01*
X141765507Y-105619844D01*
X141791314Y-105660000D01*
X140894364Y-105660000D01*
X140951567Y-105873486D01*
X140951570Y-105873492D01*
X141051399Y-106087578D01*
X141186894Y-106281082D01*
X141353917Y-106448105D01*
X141547421Y-106583600D01*
X141761507Y-106683429D01*
X141761516Y-106683433D01*
X141975000Y-106740634D01*
X141975000Y-105845501D01*
X142082685Y-105894680D01*
X142189237Y-105910000D01*
X142260763Y-105910000D01*
X142367315Y-105894680D01*
X142475000Y-105845501D01*
X142475000Y-106740633D01*
X142688483Y-106683433D01*
X142688492Y-106683429D01*
X142902578Y-106583600D01*
X143096082Y-106448105D01*
X143263105Y-106281082D01*
X143393119Y-106095405D01*
X143447696Y-106051781D01*
X143517195Y-106044588D01*
X143579549Y-106076110D01*
X143596269Y-106095405D01*
X143726505Y-106281401D01*
X143726506Y-106281402D01*
X143893595Y-106448492D01*
X143893598Y-106448494D01*
X143893599Y-106448495D01*
X143909772Y-106459819D01*
X143953398Y-106514395D01*
X143960592Y-106583893D01*
X143929071Y-106646248D01*
X143926331Y-106649076D01*
X143126208Y-107449199D01*
X143113951Y-107459020D01*
X143114134Y-107459241D01*
X143108122Y-107464214D01*
X143061432Y-107513932D01*
X143060079Y-107515329D01*
X143039889Y-107535519D01*
X143039877Y-107535532D01*
X143035621Y-107541017D01*
X143031837Y-107545447D01*
X142999937Y-107579418D01*
X142999936Y-107579420D01*
X142990284Y-107596976D01*
X142979610Y-107613226D01*
X142967329Y-107629061D01*
X142967324Y-107629068D01*
X142948815Y-107671838D01*
X142946245Y-107677084D01*
X142923803Y-107717906D01*
X142918822Y-107737307D01*
X142912521Y-107755710D01*
X142904562Y-107774102D01*
X142904561Y-107774105D01*
X142897271Y-107820127D01*
X142896087Y-107825846D01*
X142884501Y-107870972D01*
X142884500Y-107870982D01*
X142884500Y-107891016D01*
X142882973Y-107910415D01*
X142879840Y-107930194D01*
X142879840Y-107930195D01*
X142880353Y-107935622D01*
X142867064Y-108004216D01*
X142828027Y-108048866D01*
X142638597Y-108181505D01*
X142516284Y-108303819D01*
X142454961Y-108337303D01*
X142385269Y-108332319D01*
X142329336Y-108290447D01*
X142312421Y-108259470D01*
X142263354Y-108127913D01*
X142263350Y-108127906D01*
X142177190Y-108012812D01*
X142177187Y-108012809D01*
X142062093Y-107926649D01*
X142062086Y-107926645D01*
X141927379Y-107876403D01*
X141927372Y-107876401D01*
X141867844Y-107870000D01*
X141220000Y-107870000D01*
X141220000Y-108784498D01*
X141112315Y-108735320D01*
X141005763Y-108720000D01*
X140934237Y-108720000D01*
X140827685Y-108735320D01*
X140720000Y-108784498D01*
X140720000Y-107870000D01*
X140072155Y-107870000D01*
X140012627Y-107876401D01*
X140012620Y-107876403D01*
X139877913Y-107926645D01*
X139877906Y-107926649D01*
X139762812Y-108012809D01*
X139762809Y-108012812D01*
X139676649Y-108127906D01*
X139676645Y-108127913D01*
X139626403Y-108262620D01*
X139626401Y-108262627D01*
X139620000Y-108322155D01*
X139620000Y-108970000D01*
X140536314Y-108970000D01*
X140510507Y-109010156D01*
X140470000Y-109148111D01*
X140470000Y-109291889D01*
X140510507Y-109429844D01*
X140536314Y-109470000D01*
X139620000Y-109470000D01*
X139620000Y-110117844D01*
X134620500Y-110117844D01*
X134620500Y-63840001D01*
X137694390Y-63840001D01*
X137714804Y-64125433D01*
X137775628Y-64405037D01*
X137875635Y-64673166D01*
X138012770Y-64924309D01*
X138012775Y-64924317D01*
X138184254Y-65153387D01*
X138184270Y-65153405D01*
X138386594Y-65355729D01*
X138386612Y-65355745D01*
X138615682Y-65527224D01*
X138615690Y-65527229D01*
X138866833Y-65664364D01*
X138866832Y-65664364D01*
X138866836Y-65664365D01*
X138866839Y-65664367D01*
X139134954Y-65764369D01*
X139134960Y-65764370D01*
X139134962Y-65764371D01*
X139414566Y-65825195D01*
X139414568Y-65825195D01*
X139414572Y-65825196D01*
X139628552Y-65840500D01*
X139771448Y-65840500D01*
X139985428Y-65825196D01*
X140265046Y-65764369D01*
X140533161Y-65664367D01*
X140784315Y-65527226D01*
X141013395Y-65355739D01*
X141215739Y-65153395D01*
X141387226Y-64924315D01*
X141524367Y-64673161D01*
X141624369Y-64405046D01*
X141624371Y-64405037D01*
X141685195Y-64125433D01*
X141685195Y-64125432D01*
X141685196Y-64125428D01*
X141705610Y-63840000D01*
X141685196Y-63554572D01*
X141673325Y-63500001D01*
X216434390Y-63500001D01*
X216454804Y-63785433D01*
X216515628Y-64065037D01*
X216515630Y-64065043D01*
X216515631Y-64065046D01*
X216615633Y-64333161D01*
X216615635Y-64333166D01*
X216752770Y-64584309D01*
X216752775Y-64584317D01*
X216924254Y-64813387D01*
X216924270Y-64813405D01*
X217126594Y-65015729D01*
X217126612Y-65015745D01*
X217355682Y-65187224D01*
X217355690Y-65187229D01*
X217606833Y-65324364D01*
X217606832Y-65324364D01*
X217606836Y-65324365D01*
X217606839Y-65324367D01*
X217874954Y-65424369D01*
X217874960Y-65424370D01*
X217874962Y-65424371D01*
X218154566Y-65485195D01*
X218154568Y-65485195D01*
X218154572Y-65485196D01*
X218368552Y-65500500D01*
X218511448Y-65500500D01*
X218725428Y-65485196D01*
X219005046Y-65424369D01*
X219273161Y-65324367D01*
X219524315Y-65187226D01*
X219753395Y-65015739D01*
X219955739Y-64813395D01*
X220127226Y-64584315D01*
X220264367Y-64333161D01*
X220364369Y-64065046D01*
X220425196Y-63785428D01*
X220445610Y-63500000D01*
X220425196Y-63214572D01*
X220380005Y-63006833D01*
X220364371Y-62934962D01*
X220364370Y-62934960D01*
X220364369Y-62934954D01*
X220264367Y-62666839D01*
X220127226Y-62415685D01*
X220058782Y-62324254D01*
X219955745Y-62186612D01*
X219955729Y-62186594D01*
X219753405Y-61984270D01*
X219753387Y-61984254D01*
X219524317Y-61812775D01*
X219524309Y-61812770D01*
X219273166Y-61675635D01*
X219273167Y-61675635D01*
X219165915Y-61635632D01*
X219005046Y-61575631D01*
X219005043Y-61575630D01*
X219005037Y-61575628D01*
X218725433Y-61514804D01*
X218511450Y-61499500D01*
X218511448Y-61499500D01*
X218368552Y-61499500D01*
X218368549Y-61499500D01*
X218154566Y-61514804D01*
X217874962Y-61575628D01*
X217606833Y-61675635D01*
X217355690Y-61812770D01*
X217355682Y-61812775D01*
X217126612Y-61984254D01*
X217126594Y-61984270D01*
X216924270Y-62186594D01*
X216924254Y-62186612D01*
X216752775Y-62415682D01*
X216752770Y-62415690D01*
X216615635Y-62666833D01*
X216515628Y-62934962D01*
X216454804Y-63214566D01*
X216434390Y-63499998D01*
X216434390Y-63500001D01*
X141673325Y-63500001D01*
X141624369Y-63274954D01*
X141524367Y-63006839D01*
X141387226Y-62755685D01*
X141320717Y-62666839D01*
X141215745Y-62526612D01*
X141215729Y-62526594D01*
X141013405Y-62324270D01*
X141013387Y-62324254D01*
X140784317Y-62152775D01*
X140784309Y-62152770D01*
X140533166Y-62015635D01*
X140533167Y-62015635D01*
X140425915Y-61975632D01*
X140265046Y-61915631D01*
X140265043Y-61915630D01*
X140265037Y-61915628D01*
X139985433Y-61854804D01*
X139771450Y-61839500D01*
X139771448Y-61839500D01*
X139628552Y-61839500D01*
X139628549Y-61839500D01*
X139414566Y-61854804D01*
X139134962Y-61915628D01*
X138866833Y-62015635D01*
X138615690Y-62152770D01*
X138615682Y-62152775D01*
X138386612Y-62324254D01*
X138386594Y-62324270D01*
X138184270Y-62526594D01*
X138184254Y-62526612D01*
X138012775Y-62755682D01*
X138012770Y-62755690D01*
X137875635Y-63006833D01*
X137775628Y-63274962D01*
X137714804Y-63554566D01*
X137694390Y-63839998D01*
X137694390Y-63840001D01*
X134620500Y-63840001D01*
X134620500Y-59814500D01*
X134640185Y-59747461D01*
X134692989Y-59701706D01*
X134744500Y-59690500D01*
X222125500Y-59690500D01*
X222192539Y-59710185D01*
G37*
%TD.AperFunction*%
%TD*%
M02*
