%TF.GenerationSoftware,KiCad,Pcbnew,7.0.5-7.0.5~ubuntu20.04.1*%
%TF.CreationDate,2023-06-14T17:48:14+02:00*%
%TF.ProjectId,nanoRIghtAux,6e616e6f-5249-4676-9874-4175782e6b69,rev?*%
%TF.SameCoordinates,Original*%
%TF.FileFunction,Legend,Bot*%
%TF.FilePolarity,Positive*%
%FSLAX46Y46*%
G04 Gerber Fmt 4.6, Leading zero omitted, Abs format (unit mm)*
G04 Created by KiCad (PCBNEW 7.0.5-7.0.5~ubuntu20.04.1) date 2023-06-14 17:48:14*
%MOMM*%
%LPD*%
G01*
G04 APERTURE LIST*
%ADD10C,0.150000*%
G04 APERTURE END LIST*
D10*
X163007731Y-126747438D02*
X162341064Y-125795057D01*
X161864874Y-126747438D02*
X161864874Y-124747438D01*
X161864874Y-124747438D02*
X162626779Y-124747438D01*
X162626779Y-124747438D02*
X162817255Y-124842676D01*
X162817255Y-124842676D02*
X162912493Y-124937914D01*
X162912493Y-124937914D02*
X163007731Y-125128390D01*
X163007731Y-125128390D02*
X163007731Y-125414104D01*
X163007731Y-125414104D02*
X162912493Y-125604580D01*
X162912493Y-125604580D02*
X162817255Y-125699819D01*
X162817255Y-125699819D02*
X162626779Y-125795057D01*
X162626779Y-125795057D02*
X161864874Y-125795057D01*
X163864874Y-126747438D02*
X163864874Y-125414104D01*
X163864874Y-124747438D02*
X163769636Y-124842676D01*
X163769636Y-124842676D02*
X163864874Y-124937914D01*
X163864874Y-124937914D02*
X163960112Y-124842676D01*
X163960112Y-124842676D02*
X163864874Y-124747438D01*
X163864874Y-124747438D02*
X163864874Y-124937914D01*
X165674398Y-125414104D02*
X165674398Y-127033152D01*
X165674398Y-127033152D02*
X165579160Y-127223628D01*
X165579160Y-127223628D02*
X165483922Y-127318866D01*
X165483922Y-127318866D02*
X165293445Y-127414104D01*
X165293445Y-127414104D02*
X165007731Y-127414104D01*
X165007731Y-127414104D02*
X164817255Y-127318866D01*
X165674398Y-126652200D02*
X165483922Y-126747438D01*
X165483922Y-126747438D02*
X165102969Y-126747438D01*
X165102969Y-126747438D02*
X164912493Y-126652200D01*
X164912493Y-126652200D02*
X164817255Y-126556961D01*
X164817255Y-126556961D02*
X164722017Y-126366485D01*
X164722017Y-126366485D02*
X164722017Y-125795057D01*
X164722017Y-125795057D02*
X164817255Y-125604580D01*
X164817255Y-125604580D02*
X164912493Y-125509342D01*
X164912493Y-125509342D02*
X165102969Y-125414104D01*
X165102969Y-125414104D02*
X165483922Y-125414104D01*
X165483922Y-125414104D02*
X165674398Y-125509342D01*
X166626779Y-126747438D02*
X166626779Y-124747438D01*
X167483922Y-126747438D02*
X167483922Y-125699819D01*
X167483922Y-125699819D02*
X167388684Y-125509342D01*
X167388684Y-125509342D02*
X167198208Y-125414104D01*
X167198208Y-125414104D02*
X166912493Y-125414104D01*
X166912493Y-125414104D02*
X166722017Y-125509342D01*
X166722017Y-125509342D02*
X166626779Y-125604580D01*
X168150589Y-125414104D02*
X168912493Y-125414104D01*
X168436303Y-124747438D02*
X168436303Y-126461723D01*
X168436303Y-126461723D02*
X168531541Y-126652200D01*
X168531541Y-126652200D02*
X168722017Y-126747438D01*
X168722017Y-126747438D02*
X168912493Y-126747438D01*
X169483922Y-126176009D02*
X170436303Y-126176009D01*
X169293446Y-126747438D02*
X169960112Y-124747438D01*
X169960112Y-124747438D02*
X170626779Y-126747438D01*
X171293446Y-124747438D02*
X171293446Y-126366485D01*
X171293446Y-126366485D02*
X171388684Y-126556961D01*
X171388684Y-126556961D02*
X171483922Y-126652200D01*
X171483922Y-126652200D02*
X171674398Y-126747438D01*
X171674398Y-126747438D02*
X172055351Y-126747438D01*
X172055351Y-126747438D02*
X172245827Y-126652200D01*
X172245827Y-126652200D02*
X172341065Y-126556961D01*
X172341065Y-126556961D02*
X172436303Y-126366485D01*
X172436303Y-126366485D02*
X172436303Y-124747438D01*
X173198208Y-124747438D02*
X174531541Y-126747438D01*
X174531541Y-124747438D02*
X173198208Y-126747438D01*
X177960113Y-126556961D02*
X177864875Y-126652200D01*
X177864875Y-126652200D02*
X177579161Y-126747438D01*
X177579161Y-126747438D02*
X177388685Y-126747438D01*
X177388685Y-126747438D02*
X177102970Y-126652200D01*
X177102970Y-126652200D02*
X176912494Y-126461723D01*
X176912494Y-126461723D02*
X176817256Y-126271247D01*
X176817256Y-126271247D02*
X176722018Y-125890295D01*
X176722018Y-125890295D02*
X176722018Y-125604580D01*
X176722018Y-125604580D02*
X176817256Y-125223628D01*
X176817256Y-125223628D02*
X176912494Y-125033152D01*
X176912494Y-125033152D02*
X177102970Y-124842676D01*
X177102970Y-124842676D02*
X177388685Y-124747438D01*
X177388685Y-124747438D02*
X177579161Y-124747438D01*
X177579161Y-124747438D02*
X177864875Y-124842676D01*
X177864875Y-124842676D02*
X177960113Y-124937914D01*
X179102970Y-126747438D02*
X178912494Y-126652200D01*
X178912494Y-126652200D02*
X178817256Y-126556961D01*
X178817256Y-126556961D02*
X178722018Y-126366485D01*
X178722018Y-126366485D02*
X178722018Y-125795057D01*
X178722018Y-125795057D02*
X178817256Y-125604580D01*
X178817256Y-125604580D02*
X178912494Y-125509342D01*
X178912494Y-125509342D02*
X179102970Y-125414104D01*
X179102970Y-125414104D02*
X179388685Y-125414104D01*
X179388685Y-125414104D02*
X179579161Y-125509342D01*
X179579161Y-125509342D02*
X179674399Y-125604580D01*
X179674399Y-125604580D02*
X179769637Y-125795057D01*
X179769637Y-125795057D02*
X179769637Y-126366485D01*
X179769637Y-126366485D02*
X179674399Y-126556961D01*
X179674399Y-126556961D02*
X179579161Y-126652200D01*
X179579161Y-126652200D02*
X179388685Y-126747438D01*
X179388685Y-126747438D02*
X179102970Y-126747438D01*
X180626780Y-125414104D02*
X180626780Y-126747438D01*
X180626780Y-125604580D02*
X180722018Y-125509342D01*
X180722018Y-125509342D02*
X180912494Y-125414104D01*
X180912494Y-125414104D02*
X181198209Y-125414104D01*
X181198209Y-125414104D02*
X181388685Y-125509342D01*
X181388685Y-125509342D02*
X181483923Y-125699819D01*
X181483923Y-125699819D02*
X181483923Y-126747438D01*
X182150590Y-125414104D02*
X182912494Y-125414104D01*
X182436304Y-124747438D02*
X182436304Y-126461723D01*
X182436304Y-126461723D02*
X182531542Y-126652200D01*
X182531542Y-126652200D02*
X182722018Y-126747438D01*
X182722018Y-126747438D02*
X182912494Y-126747438D01*
X183579161Y-126747438D02*
X183579161Y-125414104D01*
X183579161Y-125795057D02*
X183674399Y-125604580D01*
X183674399Y-125604580D02*
X183769637Y-125509342D01*
X183769637Y-125509342D02*
X183960113Y-125414104D01*
X183960113Y-125414104D02*
X184150590Y-125414104D01*
X185102970Y-126747438D02*
X184912494Y-126652200D01*
X184912494Y-126652200D02*
X184817256Y-126556961D01*
X184817256Y-126556961D02*
X184722018Y-126366485D01*
X184722018Y-126366485D02*
X184722018Y-125795057D01*
X184722018Y-125795057D02*
X184817256Y-125604580D01*
X184817256Y-125604580D02*
X184912494Y-125509342D01*
X184912494Y-125509342D02*
X185102970Y-125414104D01*
X185102970Y-125414104D02*
X185388685Y-125414104D01*
X185388685Y-125414104D02*
X185579161Y-125509342D01*
X185579161Y-125509342D02*
X185674399Y-125604580D01*
X185674399Y-125604580D02*
X185769637Y-125795057D01*
X185769637Y-125795057D02*
X185769637Y-126366485D01*
X185769637Y-126366485D02*
X185674399Y-126556961D01*
X185674399Y-126556961D02*
X185579161Y-126652200D01*
X185579161Y-126652200D02*
X185388685Y-126747438D01*
X185388685Y-126747438D02*
X185102970Y-126747438D01*
X186912494Y-126747438D02*
X186722018Y-126652200D01*
X186722018Y-126652200D02*
X186626780Y-126461723D01*
X186626780Y-126461723D02*
X186626780Y-124747438D01*
X189864876Y-125699819D02*
X190150590Y-125795057D01*
X190150590Y-125795057D02*
X190245828Y-125890295D01*
X190245828Y-125890295D02*
X190341066Y-126080771D01*
X190341066Y-126080771D02*
X190341066Y-126366485D01*
X190341066Y-126366485D02*
X190245828Y-126556961D01*
X190245828Y-126556961D02*
X190150590Y-126652200D01*
X190150590Y-126652200D02*
X189960114Y-126747438D01*
X189960114Y-126747438D02*
X189198209Y-126747438D01*
X189198209Y-126747438D02*
X189198209Y-124747438D01*
X189198209Y-124747438D02*
X189864876Y-124747438D01*
X189864876Y-124747438D02*
X190055352Y-124842676D01*
X190055352Y-124842676D02*
X190150590Y-124937914D01*
X190150590Y-124937914D02*
X190245828Y-125128390D01*
X190245828Y-125128390D02*
X190245828Y-125318866D01*
X190245828Y-125318866D02*
X190150590Y-125509342D01*
X190150590Y-125509342D02*
X190055352Y-125604580D01*
X190055352Y-125604580D02*
X189864876Y-125699819D01*
X189864876Y-125699819D02*
X189198209Y-125699819D01*
X191483923Y-126747438D02*
X191293447Y-126652200D01*
X191293447Y-126652200D02*
X191198209Y-126556961D01*
X191198209Y-126556961D02*
X191102971Y-126366485D01*
X191102971Y-126366485D02*
X191102971Y-125795057D01*
X191102971Y-125795057D02*
X191198209Y-125604580D01*
X191198209Y-125604580D02*
X191293447Y-125509342D01*
X191293447Y-125509342D02*
X191483923Y-125414104D01*
X191483923Y-125414104D02*
X191769638Y-125414104D01*
X191769638Y-125414104D02*
X191960114Y-125509342D01*
X191960114Y-125509342D02*
X192055352Y-125604580D01*
X192055352Y-125604580D02*
X192150590Y-125795057D01*
X192150590Y-125795057D02*
X192150590Y-126366485D01*
X192150590Y-126366485D02*
X192055352Y-126556961D01*
X192055352Y-126556961D02*
X191960114Y-126652200D01*
X191960114Y-126652200D02*
X191769638Y-126747438D01*
X191769638Y-126747438D02*
X191483923Y-126747438D01*
X193864876Y-126747438D02*
X193864876Y-125699819D01*
X193864876Y-125699819D02*
X193769638Y-125509342D01*
X193769638Y-125509342D02*
X193579162Y-125414104D01*
X193579162Y-125414104D02*
X193198209Y-125414104D01*
X193198209Y-125414104D02*
X193007733Y-125509342D01*
X193864876Y-126652200D02*
X193674400Y-126747438D01*
X193674400Y-126747438D02*
X193198209Y-126747438D01*
X193198209Y-126747438D02*
X193007733Y-126652200D01*
X193007733Y-126652200D02*
X192912495Y-126461723D01*
X192912495Y-126461723D02*
X192912495Y-126271247D01*
X192912495Y-126271247D02*
X193007733Y-126080771D01*
X193007733Y-126080771D02*
X193198209Y-125985533D01*
X193198209Y-125985533D02*
X193674400Y-125985533D01*
X193674400Y-125985533D02*
X193864876Y-125890295D01*
X194817257Y-126747438D02*
X194817257Y-125414104D01*
X194817257Y-125795057D02*
X194912495Y-125604580D01*
X194912495Y-125604580D02*
X195007733Y-125509342D01*
X195007733Y-125509342D02*
X195198209Y-125414104D01*
X195198209Y-125414104D02*
X195388686Y-125414104D01*
X196912495Y-126747438D02*
X196912495Y-124747438D01*
X196912495Y-126652200D02*
X196722019Y-126747438D01*
X196722019Y-126747438D02*
X196341066Y-126747438D01*
X196341066Y-126747438D02*
X196150590Y-126652200D01*
X196150590Y-126652200D02*
X196055352Y-126556961D01*
X196055352Y-126556961D02*
X195960114Y-126366485D01*
X195960114Y-126366485D02*
X195960114Y-125795057D01*
X195960114Y-125795057D02*
X196055352Y-125604580D01*
X196055352Y-125604580D02*
X196150590Y-125509342D01*
X196150590Y-125509342D02*
X196341066Y-125414104D01*
X196341066Y-125414104D02*
X196722019Y-125414104D01*
X196722019Y-125414104D02*
X196912495Y-125509342D01*
M02*
