M48
; DRILL file {KiCad 7.0.5-7.0.5~ubuntu20.04.1} date Wed 14 Jun 2023 05:48:42 PM CEST
; FORMAT={-:-/ absolute / inch / decimal}
; #@! TF.CreationDate,2023-06-14T17:48:42+02:00
; #@! TF.GenerationSoftware,Kicad,Pcbnew,7.0.5-7.0.5~ubuntu20.04.1
; #@! TF.FileFunction,Plated,1,2,PTH
FMAT,2
INCH
; #@! TA.AperFunction,Plated,PTH,ComponentDrill
T1C0.0394
%
G90
G05
T1
X5.8Y-4.55
X5.8Y-4.8
X5.8994Y-3.3498
X5.8994Y-3.4498
X5.8994Y-3.85
X5.8994Y-4.0
X5.8994Y-4.3
X5.9Y-3.6
X5.9Y-3.7
X5.9Y-4.15
X5.9Y-4.55
X5.9Y-4.8
X5.9994Y-3.3498
X5.9994Y-3.4498
X5.9994Y-3.85
X5.9994Y-4.0
X5.9994Y-4.3
X6.0Y-3.6
X6.0Y-3.7
X6.0Y-4.15
X6.0994Y-3.3498
X6.0994Y-3.4498
X6.0994Y-3.85
X6.0994Y-4.0
X6.0994Y-4.3
X6.1Y-3.6
X6.1Y-3.7
X6.1Y-4.15
X6.101Y-4.4506
X6.101Y-4.5506
X6.101Y-4.6506
X6.45Y-3.15
X6.45Y-3.25
X6.45Y-3.35
X6.45Y-3.45
X6.45Y-3.55
X6.45Y-3.65
X6.45Y-3.75
X6.45Y-3.85
X6.45Y-3.95
X6.45Y-4.05
X6.45Y-4.15
X6.45Y-4.25
X6.45Y-4.35
X6.45Y-4.45
X6.45Y-4.55
X6.55Y-2.65
X6.55Y-2.75
X6.75Y-2.65
X6.75Y-2.75
X6.95Y-2.65
X6.95Y-2.75
X7.05Y-3.15
X7.05Y-3.25
X7.05Y-3.35
X7.05Y-3.45
X7.05Y-3.55
X7.05Y-3.65
X7.05Y-3.75
X7.05Y-3.85
X7.05Y-3.95
X7.05Y-4.05
X7.05Y-4.15
X7.05Y-4.25
X7.05Y-4.35
X7.05Y-4.45
X7.05Y-4.55
X7.5496Y-3.3831
X7.55Y-4.4331
X7.6496Y-3.3831
X7.65Y-4.4331
X7.7496Y-3.3831
X7.75Y-4.4331
X7.8496Y-3.3831
X7.85Y-4.4331
X8.0Y-3.3831
X8.0Y-4.4331
X8.1Y-3.3831
X8.1Y-4.4331
X8.2Y-3.3831
X8.2Y-4.4331
X8.3Y-3.3831
X8.3Y-4.4331
T0
M30
